{
.appVersion = "1230";
DisplayStrings = (
noHO
);
copyright = "Copyright 2014 The ComicNeue Project Authors (https://github.com/crozynski/comicneue)";
customParameters = (
{
name = fsType;
value = (
);
},
{
name = license;
value = "This Font Software is licensed under the SIL Open Font License, Version 1.1. This license is available with a FAQ at: http://scripts.sil.org/OFL\012";
},
{
name = licenseURL;
value = "http://scripts.sil.org/OFL";
},
{
name = macintoshFONDName;
value = "Comic Neue";
},
{
name = note;
value = "";
},
{
name = openTypeNameUniqueID;
value = "2.003;;Comic Neue Oblique";
},
{
name = openTypeNameVersion;
value = "Version 2.003";
},
{
name = codePageRanges;
value = (
1252,
1250
);
},
{
name = openTypeOS2FamilyClass;
value = (
0,
0
);
},
{
name = openTypeOS2Panose;
value = (
2,
0,
0,
0,
0,
0,
0,
0,
0,
0
);
},
{
name = openTypeOS2StrikeoutPosition;
value = 300;
},
{
name = openTypeOS2StrikeoutSize;
value = 50;
},
{
name = openTypeOS2SubscriptXOffset;
value = -16;
},
{
name = openTypeOS2SubscriptXSize;
value = 650;
},
{
name = openTypeOS2SubscriptYOffset;
value = 75;
},
{
name = openTypeOS2SubscriptYSize;
value = 600;
},
{
name = openTypeOS2SuperscriptXOffset;
value = 74;
},
{
name = openTypeOS2SuperscriptXSize;
value = 650;
},
{
name = openTypeOS2SuperscriptYOffset;
value = 350;
},
{
name = openTypeOS2SuperscriptYSize;
value = 600;
},
{
name = unicodeRanges;
value = (
0,
1,
2
);
},
{
name = blueFuzz;
value = 1;
},
{
name = blueScale;
value = 0.03963;
},
{
name = blueShift;
value = 7;
},
{
name = postscriptForceBold;
value = 0;
}
);
date = "2019-10-16 00:33:23 +0000";
designer = "Craig Rozynski";
designerURL = "http://www.craigrozynski.com";
disablesNiceNames = 1;
familyName = "Comic Neue";
featurePrefixes = (
{
code = "languagesystem DFLT dflt;\012languagesystem latn dflt;\012";
name = Languagesystems;
},
{

glyphs = (
{
glyphname = A;
lastChange = "2019-10-15 23:54:51 +0000";
layers = (
{
layerId = master01;
paths = (
{
closed = 1;
nodes = (
"506 -1 OFFCURVE",
"520 13 OFFCURVE",
"523 28 CURVE SMOOTH",
"524 31 OFFCURVE",
"525 34 OFFCURVE",
"524 37 CURVE",
"441 670 LINE SMOOTH",
"439 681 OFFCURVE",
"430 689 OFFCURVE",
"419 689 CURVE SMOOTH",
"407 689 OFFCURVE",
"394 682 OFFCURVE",
"387 671 CURVE SMOOTH",
"136 256 LINE",
"81 244 LINE SMOOTH",
"68 241 OFFCURVE",
"56 230 OFFCURVE",
"54 217 CURVE",
"53.403 214.463 OFFCURVE",
"53.118 212.038 OFFCURVE",
"53.118 209.747 CURVE SMOOTH",
"53.118 196.686 OFFCURVE",
"62.388 188 OFFCURVE",
"76 188 CURVE SMOOTH",
"78 188 OFFCURVE",
"80 188 OFFCURVE",
"97 192 CURVE",
"5 39 LINE SMOOTH",
"3 36 OFFCURVE",
"1 32 OFFCURVE",
"1 29 CURVE SMOOTH",
"0.617 27.212 OFFCURVE",
"0.429 25.408 OFFCURVE",
"0.429 23.62 CURVE SMOOTH",
"0.429 11.413 OFFCURVE",
"9.171 0 OFFCURVE",
"24 0 CURVE SMOOTH",
"35 0 OFFCURVE",
"47 7 OFFCURVE",
"53 18 CURVE SMOOTH",
"167 206 LINE",
"434 262 LINE",
"466 18 LINE SMOOTH",
"468 6 OFFCURVE",
"477 -1 OFFCURVE",
"489 -1 CURVE SMOOTH"
);
},
{
closed = 1;
nodes = (
"392 578 LINE",
"427 316 LINE",
"206 270 LINE"
);
}
);
userData = {
com.fontlab.hintData = {
hhints = (
{
position = 0;
width = 20;
},
{
position = 669;
width = 20;
}
);
vhints = (
{
position = 466;
width = 57;
}
);
};
};
width = 624;
}
);
unicode = 0041;
},
{
glyphname = Aacute;
lastChange = "2019-10-15 23:54:51 +0000";
layers = (
{
layerId = master01;
paths = (
{
closed = 1;
nodes = (
"506 -1 OFFCURVE",
"520 13 OFFCURVE",
"523 28 CURVE SMOOTH",
"524 31 OFFCURVE",
"525 34 OFFCURVE",
"524 37 CURVE",
"441 670 LINE SMOOTH",
"439 681 OFFCURVE",
"430 689 OFFCURVE",
"419 689 CURVE SMOOTH",
"407 689 OFFCURVE",
"394 682 OFFCURVE",
"387 671 CURVE SMOOTH",
"136 256 LINE",
"81 244 LINE SMOOTH",
"68 241 OFFCURVE",
"56 230 OFFCURVE",
"54 217 CURVE",
"53.403 214.463 OFFCURVE",
"53.118 212.038 OFFCURVE",
"53.118 209.747 CURVE SMOOTH",
"53.118 196.686 OFFCURVE",
"62.388 188 OFFCURVE",
"76 188 CURVE SMOOTH",
"78 188 OFFCURVE",
"80 188 OFFCURVE",
"97 192 CURVE",
"5 39 LINE SMOOTH",
"3 36 OFFCURVE",
"1 32 OFFCURVE",
"1 29 CURVE SMOOTH",
"0.617 27.212 OFFCURVE",
"0.429 25.408 OFFCURVE",
"0.429 23.62 CURVE SMOOTH",
"0.429 11.413 OFFCURVE",
"9.171 0 OFFCURVE",
"24 0 CURVE SMOOTH",
"35 0 OFFCURVE",
"47 7 OFFCURVE",
"53 18 CURVE SMOOTH",
"167 206 LINE",
"434 262 LINE",
"466 18 LINE SMOOTH",
"468 6 OFFCURVE",
"477 -1 OFFCURVE",
"489 -1 CURVE SMOOTH"
);
},
{
closed = 1;
nodes = (
"392 578 LINE",
"427 316 LINE",
"206 270 LINE"
);
},
{
closed = 1;
nodes = (
"378 732 OFFCURVE",
"387 736 OFFCURVE",
"395 741 CURVE SMOOTH",
"553 835 LINE SMOOTH",
"561 840 OFFCURVE",
"566 849 OFFCURVE",
"568 858 CURVE SMOOTH",
"568.551 860.755 OFFCURVE",
"568.817 863.435 OFFCURVE",
"568.817 866.007 CURVE SMOOTH",
"568.817 882.105 OFFCURVE",
"558.383 894 OFFCURVE",
"542 894 CURVE SMOOTH",
"531 894 OFFCURVE",
"519 886 OFFCURVE",
"509 879 CURVE SMOOTH",
"361 776 LINE SMOOTH",
"356 772 OFFCURVE",
"353 765 OFFCURVE",
"352 759 CURVE SMOOTH",
"351.61 757.051 OFFCURVE",
"351.423 755.153 OFFCURVE",
"351.423 753.325 CURVE SMOOTH",
"351.423 741.084 OFFCURVE",
"359.819 732 OFFCURVE",
"372 732 CURVE SMOOTH"
);
}
);
userData = {
com.fontlab.hintData = {
hhints = (
{
position = 0;
width = 20;
},
{
position = 669;
width = 20;
}
);
vhints = (
{
position = 466;
width = 57;
}
);
};
};
width = 624;
}
);
unicode = 00C1;
},
{
glyphname = Abreve;
lastChange = "2019-10-15 23:54:51 +0000";
layers = (
{
layerId = master01;
paths = (
{
closed = 1;
nodes = (
"506 -1 OFFCURVE",
"520 13 OFFCURVE",
"523 28 CURVE SMOOTH",
"524 31 OFFCURVE",
"525 34 OFFCURVE",
"524 37 CURVE",
"441 670 LINE SMOOTH",
"439 681 OFFCURVE",
"430 689 OFFCURVE",
"419 689 CURVE SMOOTH",
"407 689 OFFCURVE",
"394 682 OFFCURVE",
"387 671 CURVE SMOOTH",
"136 256 LINE",
"81 244 LINE SMOOTH",
"68 241 OFFCURVE",
"56 230 OFFCURVE",
"54 217 CURVE",
"53.403 214.463 OFFCURVE",
"53.118 212.038 OFFCURVE",
"53.118 209.747 CURVE SMOOTH",
"53.118 196.686 OFFCURVE",
"62.388 188 OFFCURVE",
"76 188 CURVE SMOOTH",
"78 188 OFFCURVE",
"80 188 OFFCURVE",
"97 192 CURVE",
"5 39 LINE SMOOTH",
"3 36 OFFCURVE",
"1 32 OFFCURVE",
"1 29 CURVE SMOOTH",
"0.617 27.212 OFFCURVE",
"0.429 25.408 OFFCURVE",
"0.429 23.62 CURVE SMOOTH",
"0.429 11.413 OFFCURVE",
"9.171 0 OFFCURVE",
"24 0 CURVE SMOOTH",
"35 0 OFFCURVE",
"47 7 OFFCURVE",
"53 18 CURVE SMOOTH",
"167 206 LINE",
"434 262 LINE",
"466 18 LINE SMOOTH",
"468 6 OFFCURVE",
"477 -1 OFFCURVE",
"489 -1 CURVE SMOOTH"
);
},
{
closed = 1;
nodes = (
"392 578 LINE",
"427 316 LINE",
"206 270 LINE"
);
},
{
closed = 1;
nodes = (
"518 740 OFFCURVE",
"587 814 OFFCURVE",
"596 859 CURVE SMOOTH",
"598 868 OFFCURVE",
"592 876 OFFCURVE",
"583 876 CURVE SMOOTH",
"570 876 OFFCURVE",
"563 867 OFFCURVE",
"555 855 CURVE SMOOTH",
"525 806 OFFCURVE",
"486 786 OFFCURVE",
"435 786 CURVE SMOOTH",
"398 786 OFFCURVE",
"343 803 OFFCURVE",
"329 853 CURVE",
"326 860 OFFCURVE",
"321 871 OFFCURVE",
"310 871 CURVE SMOOTH",
"295 871 OFFCURVE",
"290 860 OFFCURVE",
"289 852 CURVE",
"288.57 850.193 OFFCURVE",
"288.332 847.868 OFFCURVE",
"288.332 845.127 CURVE SMOOTH",
"288.332 816.014 OFFCURVE",
"315.153 740 OFFCURVE",
"423 740 CURVE SMOOTH"
);
}
);
userData = {
com.fontlab.hintData = {
hhints = (
{
position = 0;
width = 20;
},
{
position = 669;
width = 20;
},
{
position = 740;
width = 46;
}
);
vhints = (
{
position = 289;
width = 40;
},
{
position = 466;
width = 57;
},
{
position = 555;
width = 41;
}
);
};
};
width = 624;
}
);
unicode = 0102;
},
{
glyphname = Acircumflex;
lastChange = "2019-10-15 23:54:51 +0000";
layers = (
{
layerId = master01;
paths = (
{
closed = 1;
nodes = (
"506 -1 OFFCURVE",
"520 13 OFFCURVE",
"523 28 CURVE SMOOTH",
"524 31 OFFCURVE",
"525 34 OFFCURVE",
"524 37 CURVE",
"441 670 LINE SMOOTH",
"439 681 OFFCURVE",
"430 689 OFFCURVE",
"419 689 CURVE SMOOTH",
"407 689 OFFCURVE",
"394 682 OFFCURVE",
"387 671 CURVE SMOOTH",
"136 256 LINE",
"81 244 LINE SMOOTH",
"68 241 OFFCURVE",
"56 230 OFFCURVE",
"54 217 CURVE",
"53.403 214.463 OFFCURVE",
"53.118 212.038 OFFCURVE",
"53.118 209.747 CURVE SMOOTH",
"53.118 196.686 OFFCURVE",
"62.388 188 OFFCURVE",
"76 188 CURVE SMOOTH",
"78 188 OFFCURVE",
"80 188 OFFCURVE",
"97 192 CURVE",
"5 39 LINE SMOOTH",
"3 36 OFFCURVE",
"1 32 OFFCURVE",
"1 29 CURVE SMOOTH",
"0.617 27.212 OFFCURVE",
"0.429 25.408 OFFCURVE",
"0.429 23.62 CURVE SMOOTH",
"0.429 11.413 OFFCURVE",
"9.171 0 OFFCURVE",
"24 0 CURVE SMOOTH",
"35 0 OFFCURVE",
"47 7 OFFCURVE",
"53 18 CURVE SMOOTH",
"167 206 LINE",
"434 262 LINE",
"466 18 LINE SMOOTH",
"468 6 OFFCURVE",
"477 -1 OFFCURVE",
"489 -1 CURVE SMOOTH"
);
},
{
closed = 1;
nodes = (
"392 578 LINE",
"427 316 LINE",
"206 270 LINE"
);
},
{
closed = 1;
nodes = (
"308 731 OFFCURVE",
"314 732 OFFCURVE",
"320 736 CURVE SMOOTH",
"454 825 LINE",
"531 738 LINE SMOOTH",
"535 733 OFFCURVE",
"542 731 OFFCURVE",
"549 731 CURVE SMOOTH",
"563 731 OFFCURVE",
"577 743 OFFCURVE",
"580 757 CURVE SMOOTH",
"582 765 OFFCURVE",
"581 772 OFFCURVE",
"576 777 CURVE",
"489 887 LINE",
"484 892 OFFCURVE",
"478 895 OFFCURVE",
"471 895 CURVE SMOOTH",
"465 895 OFFCURVE",
"457 893 OFFCURVE",
"450 888 CURVE SMOOTH",
"296 778 LINE SMOOTH",
"288 773 OFFCURVE",
"283 765 OFFCURVE",
"281 757 CURVE SMOOTH",
"280.639 755.194 OFFCURVE",
"280.466 753.446 OFFCURVE",
"280.466 751.768 CURVE SMOOTH",
"280.466 739.511 OFFCURVE",
"289.686 731 OFFCURVE",
"302 731 CURVE SMOOTH"
);
}
);
userData = {
com.fontlab.hintData = {
hhints = (
{
position = 0;
width = 20;
},
{
position = 669;
width = 20;
}
);
vhints = (
{
position = 466;
width = 57;
}
);
};
};
width = 624;
}
);
unicode = 00C2;
},
{
glyphname = Adieresis;
lastChange = "2019-10-15 23:54:51 +0000";
layers = (
{
layerId = master01;
paths = (
{
closed = 1;
nodes = (
"506 -1 OFFCURVE",
"520 13 OFFCURVE",
"523 28 CURVE SMOOTH",
"524 31 OFFCURVE",
"525 34 OFFCURVE",
"524 37 CURVE",
"441 670 LINE SMOOTH",
"439 681 OFFCURVE",
"430 689 OFFCURVE",
"419 689 CURVE SMOOTH",
"407 689 OFFCURVE",
"394 682 OFFCURVE",
"387 671 CURVE SMOOTH",
"136 256 LINE",
"81 244 LINE SMOOTH",
"68 241 OFFCURVE",
"56 230 OFFCURVE",
"54 217 CURVE",
"53.403 214.463 OFFCURVE",
"53.118 212.038 OFFCURVE",
"53.118 209.747 CURVE SMOOTH",
"53.118 196.686 OFFCURVE",
"62.388 188 OFFCURVE",
"76 188 CURVE SMOOTH",
"78 188 OFFCURVE",
"80 188 OFFCURVE",
"97 192 CURVE",
"5 39 LINE SMOOTH",
"3 36 OFFCURVE",
"1 32 OFFCURVE",
"1 29 CURVE SMOOTH",
"0.617 27.212 OFFCURVE",
"0.429 25.408 OFFCURVE",
"0.429 23.62 CURVE SMOOTH",
"0.429 11.413 OFFCURVE",
"9.171 0 OFFCURVE",
"24 0 CURVE SMOOTH",
"35 0 OFFCURVE",
"47 7 OFFCURVE",
"53 18 CURVE SMOOTH",
"167 206 LINE",
"434 262 LINE",
"466 18 LINE SMOOTH",
"468 6 OFFCURVE",
"477 -1 OFFCURVE",
"489 -1 CURVE SMOOTH"
);
},
{
closed = 1;
nodes = (
"392 578 LINE",
"427 316 LINE",
"206 270 LINE"
);
},
{
closed = 1;
nodes = (
"372 733 OFFCURVE",
"399 753 OFFCURVE",
"404 777 CURVE SMOOTH",
"404.377 779.076 OFFCURVE",
"404.559 781.107 OFFCURVE",
"404.559 783.083 CURVE SMOOTH",
"404.559 802.057 OFFCURVE",
"387.83 816 OFFCURVE",
"367 816 CURVE SMOOTH",
"339 816 OFFCURVE",
"311 795 OFFCURVE",
"307 772 CURVE SMOOTH",
"306.383 769.162 OFFCURVE",
"306.086 766.43 OFFCURVE",
"306.086 763.822 CURVE SMOOTH",
"306.086 745.295 OFFCURVE",
"321.085 733 OFFCURVE",
"343 733 CURVE SMOOTH"
);
},
{
closed = 1;
nodes = (
"531 733 OFFCURVE",
"558 753 OFFCURVE",
"563 777 CURVE SMOOTH",
"563.377 779.076 OFFCURVE",
"563.559 781.107 OFFCURVE",
"563.559 783.083 CURVE SMOOTH",
"563.559 802.057 OFFCURVE",
"546.83 816 OFFCURVE",
"526 816 CURVE SMOOTH",
"498 816 OFFCURVE",
"470 795 OFFCURVE",
"466 772 CURVE SMOOTH",
"465.383 769.162 OFFCURVE",
"465.086 766.43 OFFCURVE",
"465.086 763.822 CURVE SMOOTH",
"465.086 745.295 OFFCURVE",
"480.085 733 OFFCURVE",
"502 733 CURVE SMOOTH"
);
}
);
userData = {
com.fontlab.hintData = {
hhints = (
{
position = 0;
width = 20;
},
{
position = 669;
width = 20;
},
{
position = 733;
width = 83;
}
);
vhints = (
{
position = 306;
width = 98;
},
{
position = 465;
width = 98;
},
{
position = 466;
width = 57;
}
);
};
};
width = 624;
}
);
unicode = 00C4;
},
{
glyphname = Agrave;
lastChange = "2019-10-15 23:54:51 +0000";
layers = (
{
layerId = master01;
paths = (
{
closed = 1;
nodes = (
"506 -1 OFFCURVE",
"520 13 OFFCURVE",
"523 28 CURVE SMOOTH",
"524 31 OFFCURVE",
"525 34 OFFCURVE",
"524 37 CURVE",
"441 670 LINE SMOOTH",
"439 681 OFFCURVE",
"430 689 OFFCURVE",
"419 689 CURVE SMOOTH",
"407 689 OFFCURVE",
"394 682 OFFCURVE",
"387 671 CURVE SMOOTH",
"136 256 LINE",
"81 244 LINE SMOOTH",
"68 241 OFFCURVE",
"56 230 OFFCURVE",
"54 217 CURVE",
"53.403 214.463 OFFCURVE",
"53.118 212.038 OFFCURVE",
"53.118 209.747 CURVE SMOOTH",
"53.118 196.686 OFFCURVE",
"62.388 188 OFFCURVE",
"76 188 CURVE SMOOTH",
"78 188 OFFCURVE",
"80 188 OFFCURVE",
"97 192 CURVE",
"5 39 LINE SMOOTH",
"3 36 OFFCURVE",
"1 32 OFFCURVE",
"1 29 CURVE SMOOTH",
"0.617 27.212 OFFCURVE",
"0.429 25.408 OFFCURVE",
"0.429 23.62 CURVE SMOOTH",
"0.429 11.413 OFFCURVE",
"9.171 0 OFFCURVE",
"24 0 CURVE SMOOTH",
"35 0 OFFCURVE",
"47 7 OFFCURVE",
"53 18 CURVE SMOOTH",
"167 206 LINE",
"434 262 LINE",
"466 18 LINE SMOOTH",
"468 6 OFFCURVE",
"477 -1 OFFCURVE",
"489 -1 CURVE SMOOTH"
);
},
{
closed = 1;
nodes = (
"392 578 LINE",
"427 316 LINE",
"206 270 LINE"
);
},
{
closed = 1;
nodes = (
"477 716 OFFCURVE",
"493 727 OFFCURVE",
"496 742 CURVE SMOOTH",
"497 748 OFFCURVE",
"497 753 OFFCURVE",
"493 760 CURVE SMOOTH",
"416 890 LINE",
"410 898 OFFCURVE",
"401 905 OFFCURVE",
"390 905 CURVE SMOOTH",
"372 905 OFFCURVE",
"351 889 OFFCURVE",
"348 871 CURVE SMOOTH",
"346 861 OFFCURVE",
"348 853 OFFCURVE",
"353 846 CURVE SMOOTH",
"446 725 LINE SMOOTH",
"450 720 OFFCURVE",
"455 716 OFFCURVE",
"463 716 CURVE SMOOTH"
);
}
);
userData = {
com.fontlab.hintData = {
hhints = (
{
position = 0;
width = 20;
},
{
position = 669;
width = 20;
}
);
vhints = (
{
position = 466;
width = 57;
}
);
};
};
width = 624;
}
);
unicode = 00C0;
},
{
glyphname = Aogonek;
lastChange = "2019-10-15 23:54:51 +0000";
layers = (
{
layerId = master01;
paths = (
{
closed = 1;
nodes = (
"473 -201 OFFCURVE",
"545 -181 OFFCURVE",
"551 -152 CURVE SMOOTH",
"554 -141 OFFCURVE",
"545 -131 OFFCURVE",
"535 -131 CURVE SMOOTH",
"530 -131 OFFCURVE",
"525 -132 OFFCURVE",
"521 -135 CURVE SMOOTH",
"497 -151 OFFCURVE",
"474 -158 OFFCURVE",
"454 -158 CURVE SMOOTH",
"424.26 -158 OFFCURVE",
"403.701 -140.402 OFFCURVE",
"403.701 -113.238 CURVE SMOOTH",
"403.701 -109.347 OFFCURVE",
"404.123 -105.26 OFFCURVE",
"405 -101 CURVE SMOOTH",
"414 -57 OFFCURVE",
"457 -30 OFFCURVE",
"487 -11 CURVE SMOOTH",
"506.095 0.821 OFFCURVE",
"523.536 12.642 OFFCURVE",
"523.536 34.987 CURVE SMOOTH",
"523.536 37.217 OFFCURVE",
"523.363 39.551 OFFCURVE",
"523 42 CURVE SMOOTH",
"441 670 LINE SMOOTH",
"439 681 OFFCURVE",
"430 689 OFFCURVE",
"419 689 CURVE SMOOTH",
"407 689 OFFCURVE",
"394 682 OFFCURVE",
"387 671 CURVE SMOOTH",
"136 256 LINE",
"81 244 LINE SMOOTH",
"68 241 OFFCURVE",
"56 230 OFFCURVE",
"54 217 CURVE",
"53.403 214.463 OFFCURVE",
"53.118 212.038 OFFCURVE",
"53.118 209.747 CURVE SMOOTH",
"53.118 196.686 OFFCURVE",
"62.388 188 OFFCURVE",
"76 188 CURVE SMOOTH",
"78 188 OFFCURVE",
"80 188 OFFCURVE",
"97 192 CURVE",
"5 39 LINE SMOOTH",
"3 36 OFFCURVE",
"1 32 OFFCURVE",
"1 29 CURVE SMOOTH",
"0.617 27.212 OFFCURVE",
"0.429 25.408 OFFCURVE",
"0.429 23.62 CURVE SMOOTH",
"0.429 11.413 OFFCURVE",
"9.171 0 OFFCURVE",
"24 0 CURVE SMOOTH",
"35 0 OFFCURVE",
"47 7 OFFCURVE",
"53 18 CURVE SMOOTH",
"167 206 LINE",
"434 262 LINE",
"466 21 LINE",
"420 -7 OFFCURVE",
"374 -48 OFFCURVE",
"363 -100 CURVE SMOOTH",
"361.417 -107.651 OFFCURVE",
"360.652 -115.024 OFFCURVE",
"360.652 -122.061 CURVE SMOOTH",
"360.652 -168.368 OFFCURVE",
"393.783 -200.132 OFFCURVE",
"445 -201 CURVE SMOOTH"
);
},
{
closed = 1;
nodes = (
"392 578 LINE",
"427 316 LINE",
"206 270 LINE"
);
}
);
userData = {
com.fontlab.hintData = {
hhints = (
{
position = -201;
width = 43;
},
{
position = 0;
width = 21;
},
{
position = 669;
width = 20;
}
);
vhints = (
{
position = 361;
width = 43;
}
);
};
};
width = 624;
}
);
unicode = 0104;
},
{
glyphname = Aring;
lastChange = "2019-10-15 23:54:51 +0000";
layers = (
{
layerId = master01;
paths = (
{
closed = 1;
nodes = (
"506 -1 OFFCURVE",
"520 13 OFFCURVE",
"523 28 CURVE SMOOTH",
"524 31 OFFCURVE",
"525 34 OFFCURVE",
"524 37 CURVE",
"441 670 LINE SMOOTH",
"439 681 OFFCURVE",
"430 689 OFFCURVE",
"419 689 CURVE SMOOTH",
"407 689 OFFCURVE",
"394 682 OFFCURVE",
"387 671 CURVE SMOOTH",
"136 256 LINE",
"81 244 LINE SMOOTH",
"68 241 OFFCURVE",
"56 230 OFFCURVE",
"54 217 CURVE",
"53.403 214.463 OFFCURVE",
"53.118 212.038 OFFCURVE",
"53.118 209.747 CURVE SMOOTH",
"53.118 196.686 OFFCURVE",
"62.388 188 OFFCURVE",
"76 188 CURVE SMOOTH",
"78 188 OFFCURVE",
"80 188 OFFCURVE",
"97 192 CURVE",
"5 39 LINE SMOOTH",
"3 36 OFFCURVE",
"1 32 OFFCURVE",
"1 29 CURVE SMOOTH",
"0.617 27.212 OFFCURVE",
"0.429 25.408 OFFCURVE",
"0.429 23.62 CURVE SMOOTH",
"0.429 11.413 OFFCURVE",
"9.171 0 OFFCURVE",
"24 0 CURVE SMOOTH",
"35 0 OFFCURVE",
"47 7 OFFCURVE",
"53 18 CURVE SMOOTH",
"167 206 LINE",
"434 262 LINE",
"466 18 LINE SMOOTH",
"468 6 OFFCURVE",
"477 -1 OFFCURVE",
"489 -1 CURVE SMOOTH"
);
},
{
closed = 1;
nodes = (
"392 578 LINE",
"427 316 LINE",
"206 270 LINE"
);
},
{
closed = 1;
nodes = (
"487 721 OFFCURVE",
"565 768 OFFCURVE",
"579 837 CURVE",
"580.549 843.91 OFFCURVE",
"581.289 850.636 OFFCURVE",
"581.289 857.123 CURVE SMOOTH",
"581.289 905.084 OFFCURVE",
"540.852 940 OFFCURVE",
"488 940 CURVE SMOOTH",
"420 940 OFFCURVE",
"342 891 OFFCURVE",
"327 823 CURVE SMOOTH",
"325.641 816.542 OFFCURVE",
"324.987 810.239 OFFCURVE",
"324.987 804.137 CURVE SMOOTH",
"324.987 756.381 OFFCURVE",
"365.024 721 OFFCURVE",
"420 721 CURVE SMOOTH"
);
},
{
closed = 1;
nodes = (
"397.362 767 OFFCURVE",
"368.014 784.206 OFFCURVE",
"368.014 813.427 CURVE SMOOTH",
"368.014 816.488 OFFCURVE",
"368.336 819.681 OFFCURVE",
"369 823 CURVE SMOOTH",
"376 853 OFFCURVE",
"420 893 OFFCURVE",
"474 893 CURVE SMOOTH",
"512.876 893 OFFCURVE",
"537.857 869.296 OFFCURVE",
"537.857 843.318 CURVE SMOOTH",
"537.857 840.563 OFFCURVE",
"537.575 837.781 OFFCURVE",
"537 835 CURVE SMOOTH",
"528 793 OFFCURVE",
"474 767 OFFCURVE",
"439 767 CURVE SMOOTH"
);
}
);
userData = {
com.fontlab.hintData = {
hhints = (
{
position = 0;
width = 20;
},
{
position = 669;
width = 20;
},
{
position = 721;
width = 46;
},
{
position = 893;
width = 47;
}
);
vhints = (
{
position = 325;
width = 43;
},
{
position = 466;
width = 57;
},
{
position = 538;
width = 43;
}
);
};
};
width = 624;
}
);
unicode = 00C5;
},
{
glyphname = Atilde;
lastChange = "2019-10-15 23:54:51 +0000";
layers = (
{
layerId = master01;
paths = (
{
closed = 1;
nodes = (
"506 -1 OFFCURVE",
"520 13 OFFCURVE",
"523 28 CURVE SMOOTH",
"524 31 OFFCURVE",
"525 34 OFFCURVE",
"524 37 CURVE",
"441 670 LINE SMOOTH",
"439 681 OFFCURVE",
"430 689 OFFCURVE",
"419 689 CURVE SMOOTH",
"407 689 OFFCURVE",
"394 682 OFFCURVE",
"387 671 CURVE SMOOTH",
"136 256 LINE",
"81 244 LINE SMOOTH",
"68 241 OFFCURVE",
"56 230 OFFCURVE",
"54 217 CURVE",
"53.403 214.463 OFFCURVE",
"53.118 212.038 OFFCURVE",
"53.118 209.747 CURVE SMOOTH",
"53.118 196.686 OFFCURVE",
"62.388 188 OFFCURVE",
"76 188 CURVE SMOOTH",
"78 188 OFFCURVE",
"80 188 OFFCURVE",
"97 192 CURVE",
"5 39 LINE SMOOTH",
"3 36 OFFCURVE",
"1 32 OFFCURVE",
"1 29 CURVE SMOOTH",
"0.617 27.212 OFFCURVE",
"0.429 25.408 OFFCURVE",
"0.429 23.62 CURVE SMOOTH",
"0.429 11.413 OFFCURVE",
"9.171 0 OFFCURVE",
"24 0 CURVE SMOOTH",
"35 0 OFFCURVE",
"47 7 OFFCURVE",
"53 18 CURVE SMOOTH",
"167 206 LINE",
"434 262 LINE",
"466 18 LINE SMOOTH",
"468 6 OFFCURVE",
"477 -1 OFFCURVE",
"489 -1 CURVE SMOOTH"
);
},
{
closed = 1;
nodes = (
"392 578 LINE",
"427 316 LINE",
"206 270 LINE"
);
},
{
closed = 1;
nodes = (
"553 713 OFFCURVE",
"599 781 OFFCURVE",
"616 812 CURVE SMOOTH",
"619 818 OFFCURVE",
"621 821 OFFCURVE",
"622 826 CURVE SMOOTH",
"622.361 827.565 OFFCURVE",
"622.534 829.101 OFFCURVE",
"622.534 830.593 CURVE SMOOTH",
"622.534 841.489 OFFCURVE",
"613.314 850 OFFCURVE",
"601 850 CURVE SMOOTH",
"591 850 OFFCURVE",
"580 843 OFFCURVE",
"574 833 CURVE SMOOTH",
"556 804 OFFCURVE",
"527 755 OFFCURVE",
"497 755 CURVE SMOOTH",
"480 755 OFFCURVE",
"474 777 OFFCURVE",
"460 803 CURVE SMOOTH",
"446 830 OFFCURVE",
"429 863 OFFCURVE",
"384 863 CURVE SMOOTH",
"347 863 OFFCURVE",
"311 842 OFFCURVE",
"281 804 CURVE SMOOTH",
"273 793 OFFCURVE",
"259 776 OFFCURVE",
"256 761 CURVE SMOOTH",
"255.639 759.314 OFFCURVE",
"255.466 757.672 OFFCURVE",
"255.466 756.088 CURVE SMOOTH",
"255.466 744.511 OFFCURVE",
"264.686 736 OFFCURVE",
"277 736 CURVE SMOOTH",
"289 736 OFFCURVE",
"299 742 OFFCURVE",
"306 755 CURVE SMOOTH",
"332 804 OFFCURVE",
"362 821 OFFCURVE",
"375 821 CURVE SMOOTH",
"392 821 OFFCURVE",
"398 799 OFFCURVE",
"412 773 CURVE SMOOTH",
"426 745 OFFCURVE",
"443 713 OFFCURVE",
"488 713 CURVE SMOOTH"
);
}
);
userData = {
com.fontlab.hintData = {
hhints = (
{
position = 0;
width = 20;
},
{
position = 669;
width = 20;
},
{
position = 713;
width = 42;
},
{
position = 821;
width = 42;
}
);
vhints = (
{
position = 466;
width = 57;
}
);
};
};
width = 624;
}
);
unicode = 00C3;
},
{
glyphname = AE;
lastChange = "2019-10-15 23:54:51 +0000";
layers = (
{
layerId = master01;
paths = (
{
closed = 1;
nodes = (
"29 -3 OFFCURVE",
"39 1 OFFCURVE",
"45 8 CURVE SMOOTH",
"275 258 LINE",
"506 304 LINE",
"447 27 LINE SMOOTH",
"446.641 25.203 OFFCURVE",
"446.468 23.449 OFFCURVE",
"446.468 21.754 CURVE SMOOTH",
"446.468 9.297 OFFCURVE",
"455.797 0 OFFCURVE",
"469 0 CURVE SMOOTH",
"898 0 LINE SMOOTH",
"914 0 OFFCURVE",
"927 12 OFFCURVE",
"930 27 CURVE SMOOTH",
"930.639 29.556 OFFCURVE",
"930.946 31.984 OFFCURVE",
"930.946 34.26 CURVE SMOOTH",
"930.946 46.233 OFFCURVE",
"922.444 54 OFFCURVE",
"909 54 CURVE SMOOTH",
"507 54 LINE",
"561 310 LINE",
"913 309 LINE SMOOTH",
"928 309 OFFCURVE",
"943 321 OFFCURVE",
"946 337 CURVE SMOOTH",
"946.388 338.808 OFFCURVE",
"946.575 340.6 OFFCURVE",
"946.575 342.349 CURVE SMOOTH",
"946.575 354.142 OFFCURVE",
"938.062 364 OFFCURVE",
"925 364 CURVE SMOOTH",
"573 364 LINE",
"629 627 LINE",
"1031 627 LINE SMOOTH",
"1047 627 OFFCURVE",
"1061 640 OFFCURVE",
"1064 654 CURVE SMOOTH",
"1064.39 656.055 OFFCURVE",
"1064.57 658.027 OFFCURVE",
"1064.57 659.905 CURVE SMOOTH",
"1064.57 672.644 OFFCURVE",
"1055.95 681 OFFCURVE",
"1042 681 CURVE SMOOTH",
"610 681 LINE SMOOTH",
"601 681 OFFCURVE",
"593 675 OFFCURVE",
"589 670 CURVE SMOOTH",
"255 307 LINE",
"182 293 LINE SMOOTH",
"167 290 OFFCURVE",
"156 280 OFFCURVE",
"153 267 CURVE SMOOTH",
"152.641 265.083 OFFCURVE",
"152.468 263.181 OFFCURVE",
"152.468 261.322 CURVE SMOOTH",
"152.468 249.013 OFFCURVE",
"160.046 238.615 OFFCURVE",
"171.208 238.615 CURVE SMOOTH",
"172.431 238.615 OFFCURVE",
"173.697 238.739 OFFCURVE",
"175 239 CURVE SMOOTH",
"195 243 LINE",
"8 39 LINE SMOOTH",
"3 34 OFFCURVE",
"1 29 OFFCURVE",
"-1 23 CURVE",
"-3 10 OFFCURVE",
"7 -3 OFFCURVE",
"21 -3 CURVE SMOOTH"
);
},
{
closed = 1;
nodes = (
"562 569 LINE",
"518 359 LINE",
"336 323 LINE"
);
}
);
userData = {
com.fontlab.hintData = {
hhints = (
{
position = 0;
width = 54;
},
{
position = 310;
width = 54;
},
{
position = 627;
width = 54;
}
);
};
};
width = 1040;
}
);
unicode = 00C6;
},
{
glyphname = B;
lastChange = "2019-10-15 23:54:51 +0000";
layers = (
{
layerId = master01;
paths = (
{
closed = 1;
nodes = (
"352 -2 OFFCURVE",
"513 74 OFFCURVE",
"541 204 CURVE SMOOTH",
"543.871 217.85 OFFCURVE",
"545.288 230.93 OFFCURVE",
"545.288 243.244 CURVE SMOOTH",
"545.288 303.838 OFFCURVE",
"510.994 345.898 OFFCURVE",
"447 370 CURVE",
"487 395 OFFCURVE",
"532 439 OFFCURVE",
"548 513 CURVE SMOOTH",
"549.056 518.281 OFFCURVE",
"550.143 526.908 OFFCURVE",
"550.143 537.54 CURVE SMOOTH",
"550.143 587.308 OFFCURVE",
"526.323 681 OFFCURVE",
"364 681 CURVE SMOOTH",
"182 681 LINE SMOOTH",
"167 681 OFFCURVE",
"151 668 OFFCURVE",
"148 653 CURVE SMOOTH",
"16 32 LINE SMOOTH",
"15.101 27.805 OFFCURVE",
"14.674 24.105 OFFCURVE",
"14.674 20.844 CURVE SMOOTH",
"14.674 2.337 OFFCURVE",
"28.445 -2 OFFCURVE",
"48 -2 CURVE SMOOTH"
);
},
{
closed = 1;
nodes = (
"137 330 LINE",
"343 330 LINE SMOOTH",
"411.674 330 OFFCURVE",
"487.697 300.606 OFFCURVE",
"487.697 228.537 CURVE SMOOTH",
"487.697 220.849 OFFCURVE",
"486.831 212.675 OFFCURVE",
"485 204 CURVE SMOOTH",
"463 99 OFFCURVE",
"281 54 OFFCURVE",
"78 54 CURVE"
);
},
{
closed = 1;
nodes = (
"199 624 LINE",
"352 624 LINE SMOOTH",
"475.387 624 OFFCURVE",
"492.683 560.741 OFFCURVE",
"492.683 527.297 CURVE SMOOTH",
"492.683 519.541 OFFCURVE",
"491.753 513.388 OFFCURVE",
"491 510 CURVE SMOOTH",
"478 448 OFFCURVE",
"414 387 OFFCURVE",
"345 387 CURVE SMOOTH",
"149 387 LINE"
);
}
);
userData = {
com.fontlab.hintData = {
hhints = (
{
position = -2;
width = 56;
},
{
position = 330;
width = 57;
},
{
position = 624;
width = 57;
}
);
vhints = (
{
position = 488;
width = 58;
}
);
};
};
width = 603;
}
);
unicode = 0042;
},
{
glyphname = C;
lastChange = "2019-10-15 23:54:51 +0000";
layers = (
{
layerId = master01;
paths = (
{
closed = 1;
nodes = (
"378 -2 OFFCURVE",
"472 40 OFFCURVE",
"545 116 CURVE SMOOTH",
"550 121 OFFCURVE",
"552 127 OFFCURVE",
"554 133 CURVE SMOOTH",
"554.528 135.378 OFFCURVE",
"554.778 137.616 OFFCURVE",
"554.778 139.709 CURVE SMOOTH",
"554.778 153.467 OFFCURVE",
"544.019 161 OFFCURVE",
"531 161 CURVE SMOOTH",
"523 161 OFFCURVE",
"515 159 OFFCURVE",
"506 150 CURVE SMOOTH",
"439 81 OFFCURVE",
"366 55 OFFCURVE",
"294 55 CURVE SMOOTH",
"214.791 55 OFFCURVE",
"107.696 108.446 OFFCURVE",
"107.696 238.517 CURVE SMOOTH",
"107.696 256.236 OFFCURVE",
"109.684 275.378 OFFCURVE",
"114 296 CURVE SMOOTH",
"149 460 OFFCURVE",
"312 627 OFFCURVE",
"424 627 CURVE SMOOTH",
"509 627 OFFCURVE",
"539 593 OFFCURVE",
"554 572 CURVE",
"553 567 LINE SMOOTH",
"552.642 565.093 OFFCURVE",
"552.469 563.228 OFFCURVE",
"552.469 561.423 CURVE SMOOTH",
"552.469 548.085 OFFCURVE",
"561.907 538 OFFCURVE",
"576 538 CURVE SMOOTH",
"592 538 OFFCURVE",
"607 551 OFFCURVE",
"610 567 CURVE SMOOTH",
"624 631 LINE SMOOTH",
"624.385 633.055 OFFCURVE",
"624.573 635.044 OFFCURVE",
"624.573 636.95 CURVE SMOOTH",
"624.573 649.885 OFFCURVE",
"615.945 659 OFFCURVE",
"602 659 CURVE SMOOTH",
"591 659 OFFCURVE",
"579 653 OFFCURVE",
"573 644 CURVE",
"547 664 OFFCURVE",
"505 684 OFFCURVE",
"436 684 CURVE SMOOTH",
"298 684 OFFCURVE",
"101 500 OFFCURVE",
"57 296 CURVE SMOOTH",
"52.17 273.192 OFFCURVE",
"49.86 251.14 OFFCURVE",
"49.86 230.052 CURVE SMOOTH",
"49.86 93.958 OFFCURVE",
"146.064 -2 OFFCURVE",
"282 -2 CURVE SMOOTH"
);
}
);
userData = {
com.fontlab.hintData = {
hhints = (
{
position = -2;
width = 57;
},
{
position = 627;
width = 57;
}
);
vhints = (
{
position = 50;
width = 58;
}
);
};
};
width = 632;
}
);
unicode = 0043;
},
{
glyphname = Cacute;
lastChange = "2019-10-15 23:54:51 +0000";
layers = (
{
layerId = master01;
paths = (
{
closed = 1;
nodes = (
"378 -2 OFFCURVE",
"472 40 OFFCURVE",
"545 116 CURVE SMOOTH",
"550 121 OFFCURVE",
"552 127 OFFCURVE",
"554 133 CURVE SMOOTH",
"554.528 135.378 OFFCURVE",
"554.778 137.616 OFFCURVE",
"554.778 139.709 CURVE SMOOTH",
"554.778 153.467 OFFCURVE",
"544.019 161 OFFCURVE",
"531 161 CURVE SMOOTH",
"523 161 OFFCURVE",
"515 159 OFFCURVE",
"506 150 CURVE SMOOTH",
"439 81 OFFCURVE",
"366 55 OFFCURVE",
"294 55 CURVE SMOOTH",
"214.791 55 OFFCURVE",
"107.696 108.446 OFFCURVE",
"107.696 238.517 CURVE SMOOTH",
"107.696 256.236 OFFCURVE",
"109.684 275.378 OFFCURVE",
"114 296 CURVE SMOOTH",
"149 460 OFFCURVE",
"312 627 OFFCURVE",
"424 627 CURVE SMOOTH",
"509 627 OFFCURVE",
"539 593 OFFCURVE",
"554 572 CURVE",
"553 567 LINE SMOOTH",
"552.642 565.093 OFFCURVE",
"552.469 563.228 OFFCURVE",
"552.469 561.423 CURVE SMOOTH",
"552.469 548.085 OFFCURVE",
"561.907 538 OFFCURVE",
"576 538 CURVE SMOOTH",
"592 538 OFFCURVE",
"607 551 OFFCURVE",
"610 567 CURVE SMOOTH",
"624 631 LINE SMOOTH",
"624.385 633.055 OFFCURVE",
"624.573 635.044 OFFCURVE",
"624.573 636.95 CURVE SMOOTH",
"624.573 649.885 OFFCURVE",
"615.945 659 OFFCURVE",
"602 659 CURVE SMOOTH",
"591 659 OFFCURVE",
"579 653 OFFCURVE",
"573 644 CURVE",
"547 664 OFFCURVE",
"505 684 OFFCURVE",
"436 684 CURVE SMOOTH",
"298 684 OFFCURVE",
"101 500 OFFCURVE",
"57 296 CURVE SMOOTH",
"52.17 273.192 OFFCURVE",
"49.86 251.14 OFFCURVE",
"49.86 230.052 CURVE SMOOTH",
"49.86 93.958 OFFCURVE",
"146.064 -2 OFFCURVE",
"282 -2 CURVE SMOOTH"
);
},
{
closed = 1;
nodes = (
"386 750 OFFCURVE",
"395 754 OFFCURVE",
"403 759 CURVE SMOOTH",
"561 853 LINE SMOOTH",
"569 858 OFFCURVE",
"574 867 OFFCURVE",
"576 876 CURVE SMOOTH",
"576.519 878.595 OFFCURVE",
"576.769 881.122 OFFCURVE",
"576.769 883.556 CURVE SMOOTH",
"576.769 899.882 OFFCURVE",
"565.535 912 OFFCURVE",
"549 912 CURVE SMOOTH",
"538 912 OFFCURVE",
"527 904 OFFCURVE",
"517 897 CURVE SMOOTH",
"369 794 LINE SMOOTH",
"363 790 OFFCURVE",
"361 783 OFFCURVE",
"360 777 CURVE SMOOTH",
"359.396 774.735 OFFCURVE",
"359.111 772.538 OFFCURVE",
"359.111 770.441 CURVE SMOOTH",
"359.111 758.65 OFFCURVE",
"368.114 750 OFFCURVE",
"380 750 CURVE SMOOTH"
);
}
);
userData = {
com.fontlab.hintData = {
hhints = (
{
position = -2;
width = 57;
},
{
position = 627;
width = 57;
}
);
vhints = (
{
position = 50;
width = 58;
}
);
};
};
width = 632;
}
);
unicode = 0106;
},
{
glyphname = Ccaron;
lastChange = "2019-10-15 23:54:51 +0000";
layers = (
{
layerId = master01;
paths = (
{
closed = 1;
nodes = (
"378 -2 OFFCURVE",
"472 40 OFFCURVE",
"545 116 CURVE SMOOTH",
"550 121 OFFCURVE",
"552 127 OFFCURVE",
"554 133 CURVE SMOOTH",
"554.528 135.378 OFFCURVE",
"554.778 137.616 OFFCURVE",
"554.778 139.709 CURVE SMOOTH",
"554.778 153.467 OFFCURVE",
"544.019 161 OFFCURVE",
"531 161 CURVE SMOOTH",
"523 161 OFFCURVE",
"515 159 OFFCURVE",
"506 150 CURVE SMOOTH",
"439 81 OFFCURVE",
"366 55 OFFCURVE",
"294 55 CURVE SMOOTH",
"214.791 55 OFFCURVE",
"107.696 108.446 OFFCURVE",
"107.696 238.517 CURVE SMOOTH",
"107.696 256.236 OFFCURVE",
"109.684 275.378 OFFCURVE",
"114 296 CURVE SMOOTH",
"149 460 OFFCURVE",
"312 627 OFFCURVE",
"424 627 CURVE SMOOTH",
"509 627 OFFCURVE",
"539 593 OFFCURVE",
"554 572 CURVE",
"553 567 LINE SMOOTH",
"552.642 565.093 OFFCURVE",
"552.469 563.228 OFFCURVE",
"552.469 561.423 CURVE SMOOTH",
"552.469 548.085 OFFCURVE",
"561.907 538 OFFCURVE",
"576 538 CURVE SMOOTH",
"592 538 OFFCURVE",
"607 551 OFFCURVE",
"610 567 CURVE SMOOTH",
"624 631 LINE SMOOTH",
"624.385 633.055 OFFCURVE",
"624.573 635.044 OFFCURVE",
"624.573 636.95 CURVE SMOOTH",
"624.573 649.885 OFFCURVE",
"615.945 659 OFFCURVE",
"602 659 CURVE SMOOTH",
"591 659 OFFCURVE",
"579 653 OFFCURVE",
"573 644 CURVE",
"547 664 OFFCURVE",
"505 684 OFFCURVE",
"436 684 CURVE SMOOTH",
"298 684 OFFCURVE",
"101 500 OFFCURVE",
"57 296 CURVE SMOOTH",
"52.17 273.192 OFFCURVE",
"49.86 251.14 OFFCURVE",
"49.86 230.052 CURVE SMOOTH",
"49.86 93.958 OFFCURVE",
"146.064 -2 OFFCURVE",
"282 -2 CURVE SMOOTH"
);
},
{
closed = 1;
nodes = (
"455 722 OFFCURVE",
"462 724 OFFCURVE",
"469 729 CURVE SMOOTH",
"624 839 LINE SMOOTH",
"632 844 OFFCURVE",
"637 852 OFFCURVE",
"638 860 CURVE SMOOTH",
"638.39 861.949 OFFCURVE",
"638.577 863.83 OFFCURVE",
"638.577 865.629 CURVE SMOOTH",
"638.577 877.673 OFFCURVE",
"630.181 886 OFFCURVE",
"618 886 CURVE SMOOTH",
"612 886 OFFCURVE",
"606 885 OFFCURVE",
"600 881 CURVE SMOOTH",
"466 792 LINE",
"388 879 LINE SMOOTH",
"384 884 OFFCURVE",
"378 886 OFFCURVE",
"371 886 CURVE SMOOTH",
"357 886 OFFCURVE",
"342 874 OFFCURVE",
"339 860 CURVE SMOOTH",
"338 852 OFFCURVE",
"339 845 OFFCURVE",
"344 840 CURVE",
"431 730 LINE",
"436 725 OFFCURVE",
"442 722 OFFCURVE",
"449 722 CURVE SMOOTH"
);
}
);
userData = {
com.fontlab.hintData = {
hhints = (
{
position = -2;
width = 57;
},
{
position = 627;
width = 57;
}
);
vhints = (
{
position = 50;
width = 58;
}
);
};
};
width = 632;
}
);
unicode = 010C;
},
{
glyphname = Ccedilla;
lastChange = "2019-10-15 23:54:51 +0000";
layers = (
{
layerId = master01;
paths = (
{
closed = 1;
nodes = (
"274 -201 OFFCURVE",
"323 -160 OFFCURVE",
"334 -110 CURVE SMOOTH",
"335.406 -103.251 OFFCURVE",
"336.12 -96.601 OFFCURVE",
"336.12 -90.156 CURVE SMOOTH",
"336.12 -50.759 OFFCURVE",
"309.439 -19 OFFCURVE",
"251 -19 CURVE",
"256 -1 LINE",
"264 -2 OFFCURVE",
"273 -2 OFFCURVE",
"282 -2 CURVE SMOOTH",
"378 -2 OFFCURVE",
"472 40 OFFCURVE",
"545 116 CURVE SMOOTH",
"550 121 OFFCURVE",
"552 127 OFFCURVE",
"554 133 CURVE SMOOTH",
"554.528 135.378 OFFCURVE",
"554.778 137.616 OFFCURVE",
"554.778 139.709 CURVE SMOOTH",
"554.778 153.467 OFFCURVE",
"544.019 161 OFFCURVE",
"531 161 CURVE SMOOTH",
"523 161 OFFCURVE",
"515 159 OFFCURVE",
"506 150 CURVE SMOOTH",
"439 81 OFFCURVE",
"366 55 OFFCURVE",
"294 55 CURVE SMOOTH",
"214.791 55 OFFCURVE",
"107.696 108.446 OFFCURVE",
"107.696 238.517 CURVE SMOOTH",
"107.696 256.236 OFFCURVE",
"109.684 275.378 OFFCURVE",
"114 296 CURVE SMOOTH",
"149 460 OFFCURVE",
"312 627 OFFCURVE",
"424 627 CURVE SMOOTH",
"509 627 OFFCURVE",
"539 593 OFFCURVE",
"554 572 CURVE",
"553 567 LINE SMOOTH",
"552.642 565.093 OFFCURVE",
"552.469 563.228 OFFCURVE",
"552.469 561.423 CURVE SMOOTH",
"552.469 548.085 OFFCURVE",
"561.907 538 OFFCURVE",
"576 538 CURVE SMOOTH",
"592 538 OFFCURVE",
"607 551 OFFCURVE",
"610 567 CURVE SMOOTH",
"624 631 LINE SMOOTH",
"624.385 633.055 OFFCURVE",
"624.573 635.044 OFFCURVE",
"624.573 636.95 CURVE SMOOTH",
"624.573 649.885 OFFCURVE",
"615.945 659 OFFCURVE",
"602 659 CURVE SMOOTH",
"591 659 OFFCURVE",
"579 653 OFFCURVE",
"573 644 CURVE",
"547 664 OFFCURVE",
"505 684 OFFCURVE",
"436 684 CURVE SMOOTH",
"298 684 OFFCURVE",
"101 500 OFFCURVE",
"57 296 CURVE SMOOTH",
"52.186 273.016 OFFCURVE",
"49.88 250.803 OFFCURVE",
"49.88 229.572 CURVE SMOOTH",
"49.88 114.093 OFFCURVE",
"118.102 27.652 OFFCURVE",
"222 4 CURVE",
"217 -5 OFFCURVE",
"210 -17 OFFCURVE",
"201 -33 CURVE SMOOTH",
"195 -43 OFFCURVE",
"192 -50 OFFCURVE",
"191 -56 CURVE SMOOTH",
"188 -68 OFFCURVE",
"196 -76 OFFCURVE",
"207 -76 CURVE SMOOTH",
"211 -76 OFFCURVE",
"216 -74 OFFCURVE",
"220 -71 CURVE SMOOTH",
"228 -67 OFFCURVE",
"239 -61 OFFCURVE",
"254 -61 CURVE SMOOTH",
"277.338 -61 OFFCURVE",
"293.204 -77.437 OFFCURVE",
"293.204 -99.332 CURVE SMOOTH",
"293.204 -102.768 OFFCURVE",
"292.814 -106.338 OFFCURVE",
"292 -110 CURVE SMOOTH",
"286 -137 OFFCURVE",
"260 -159 OFFCURVE",
"233 -159 CURVE SMOOTH",
"210 -159 OFFCURVE",
"203 -148 OFFCURVE",
"197 -139 CURVE SMOOTH",
"193 -133 OFFCURVE",
"189 -128 OFFCURVE",
"181 -128 CURVE SMOOTH",
"169 -128 OFFCURVE",
"158 -138 OFFCURVE",
"156 -146 CURVE SMOOTH",
"155.487 -148.418 OFFCURVE",
"155.243 -150.777 OFFCURVE",
"155.243 -153.073 CURVE SMOOTH",
"155.243 -182.106 OFFCURVE",
"194.345 -201 OFFCURVE",
"224 -201 CURVE SMOOTH"
);
}
);
userData = {
com.fontlab.hintData = {
hhints = (
{
position = -201;
width = 42;
},
{
position = -61;
width = 42;
},
{
position = -2;
width = 57;
},
{
position = 627;
width = 57;
}
);
vhints = (
{
position = 50;
width = 58;
},
{
position = 293;
width = 43;
}
);
};
};
width = 632;
}
);
unicode = 00C7;
},
{
glyphname = Ccircumflex;
lastChange = "2019-10-15 23:54:51 +0000";
layers = (
{
layerId = master01;
paths = (
{
closed = 1;
nodes = (
"378 -2 OFFCURVE",
"472 40 OFFCURVE",
"545 116 CURVE SMOOTH",
"550 121 OFFCURVE",
"552 127 OFFCURVE",
"554 133 CURVE SMOOTH",
"554.528 135.378 OFFCURVE",
"554.778 137.616 OFFCURVE",
"554.778 139.709 CURVE SMOOTH",
"554.778 153.467 OFFCURVE",
"544.019 161 OFFCURVE",
"531 161 CURVE SMOOTH",
"523 161 OFFCURVE",
"515 159 OFFCURVE",
"506 150 CURVE SMOOTH",
"439 81 OFFCURVE",
"366 55 OFFCURVE",
"294 55 CURVE SMOOTH",
"214.791 55 OFFCURVE",
"107.696 108.446 OFFCURVE",
"107.696 238.517 CURVE SMOOTH",
"107.696 256.236 OFFCURVE",
"109.684 275.378 OFFCURVE",
"114 296 CURVE SMOOTH",
"149 460 OFFCURVE",
"312 627 OFFCURVE",
"424 627 CURVE SMOOTH",
"509 627 OFFCURVE",
"539 593 OFFCURVE",
"554 572 CURVE",
"553 567 LINE SMOOTH",
"552.642 565.093 OFFCURVE",
"552.469 563.228 OFFCURVE",
"552.469 561.423 CURVE SMOOTH",
"552.469 548.085 OFFCURVE",
"561.907 538 OFFCURVE",
"576 538 CURVE SMOOTH",
"592 538 OFFCURVE",
"607 551 OFFCURVE",
"610 567 CURVE SMOOTH",
"624 631 LINE SMOOTH",
"624.385 633.055 OFFCURVE",
"624.573 635.044 OFFCURVE",
"624.573 636.95 CURVE SMOOTH",
"624.573 649.885 OFFCURVE",
"615.945 659 OFFCURVE",
"602 659 CURVE SMOOTH",
"591 659 OFFCURVE",
"579 653 OFFCURVE",
"573 644 CURVE",
"547 664 OFFCURVE",
"505 684 OFFCURVE",
"436 684 CURVE SMOOTH",
"298 684 OFFCURVE",
"101 500 OFFCURVE",
"57 296 CURVE SMOOTH",
"52.17 273.192 OFFCURVE",
"49.86 251.14 OFFCURVE",
"49.86 230.052 CURVE SMOOTH",
"49.86 93.958 OFFCURVE",
"146.064 -2 OFFCURVE",
"282 -2 CURVE SMOOTH"
);
},
{
closed = 1;
nodes = (
"318 731 OFFCURVE",
"324 732 OFFCURVE",
"330 736 CURVE SMOOTH",
"464 825 LINE",
"541 738 LINE SMOOTH",
"545 733 OFFCURVE",
"552 731 OFFCURVE",
"559 731 CURVE SMOOTH",
"573 731 OFFCURVE",
"587 743 OFFCURVE",
"590 757 CURVE SMOOTH",
"592 765 OFFCURVE",
"591 772 OFFCURVE",
"586 777 CURVE SMOOTH",
"499 887 LINE SMOOTH",
"494 892 OFFCURVE",
"488 895 OFFCURVE",
"481 895 CURVE SMOOTH",
"475 895 OFFCURVE",
"467 893 OFFCURVE",
"460 888 CURVE SMOOTH",
"306 778 LINE SMOOTH",
"298 773 OFFCURVE",
"293 765 OFFCURVE",
"291 757 CURVE SMOOTH",
"290.639 755.194 OFFCURVE",
"290.466 753.446 OFFCURVE",
"290.466 751.768 CURVE SMOOTH",
"290.466 739.511 OFFCURVE",
"299.686 731 OFFCURVE",
"312 731 CURVE SMOOTH"
);
}
);
userData = {
com.fontlab.hintData = {
hhints = (
{
position = -2;
width = 57;
},
{
position = 627;
width = 57;
}
);
vhints = (
{
position = 50;
width = 58;
}
);
};
};
width = 632;
}
);
unicode = 0108;
},
{
glyphname = D;
lastChange = "2019-10-15 23:54:51 +0000";
layers = (
{
layerId = master01;
paths = (
{
closed = 1;
nodes = (
"343 -20 OFFCURVE",
"521 77 OFFCURVE",
"568 300 CURVE SMOOTH",
"575.282 333.912 OFFCURVE",
"578.646 364.891 OFFCURVE",
"578.646 393.181 CURVE SMOOTH",
"578.646 636.847 OFFCURVE",
"329.044 681 OFFCURVE",
"183 681 CURVE SMOOTH",
"167 681 OFFCURVE",
"152 669 OFFCURVE",
"148 653 CURVE SMOOTH",
"15 25 LINE SMOOTH",
"14.532 22.971 OFFCURVE",
"14.307 20.966 OFFCURVE",
"14.307 19.016 CURVE SMOOTH",
"14.307 8.473 OFFCURVE",
"20.873 -0.468 OFFCURVE",
"31 -3 CURVE SMOOTH",
"38 -5 OFFCURVE",
"91 -20 OFFCURVE",
"150 -20 CURVE SMOOTH"
);
},
{
closed = 1;
nodes = (
"130 37 OFFCURVE",
"98 43 OFFCURVE",
"77 48 CURVE",
"199 624 LINE",
"374.916 616.123 OFFCURVE",
"520.193 551.563 OFFCURVE",
"520.193 380.041 CURVE SMOOTH",
"520.193 355.584 OFFCURVE",
"517.24 328.952 OFFCURVE",
"511 300 CURVE",
"474 123 OFFCURVE",
"340 37 OFFCURVE",
"162 37 CURVE SMOOTH"
);
}
);
userData = {
com.fontlab.hintData = {
hhints = (
{
position = -20;
width = 57;
},
{
position = 624;
width = 57;
}
);
vhints = (
{
position = 520;
width = 58;
}
);
};
};
width = 620;
}
);
unicode = 0044;
},
{
glyphname = Eth;
lastChange = "2019-10-15 23:54:51 +0000";
layers = (
{
layerId = master01;
paths = (
{
closed = 1;
nodes = (
"404 -20 OFFCURVE",
"565 77 OFFCURVE",
"612 300 CURVE SMOOTH",
"619.656 335.655 OFFCURVE",
"623.185 368.069 OFFCURVE",
"623.185 397.523 CURVE SMOOTH",
"623.185 637.373 OFFCURVE",
"389.172 681 OFFCURVE",
"244 681 CURVE SMOOTH",
"228 681 OFFCURVE",
"213 669 OFFCURVE",
"209 653 CURVE SMOOTH",
"142 338 LINE",
"79 338 LINE SMOOTH",
"64 338 OFFCURVE",
"49 325 OFFCURVE",
"45 309 CURVE SMOOTH",
"44.641 307.203 OFFCURVE",
"44.468 305.435 OFFCURVE",
"44.468 303.714 CURVE SMOOTH",
"44.468 291.072 OFFCURVE",
"53.797 281 OFFCURVE",
"67 281 CURVE SMOOTH",
"130 281 LINE",
"76 25 LINE SMOOTH",
"75.532 22.971 OFFCURVE",
"75.307 20.966 OFFCURVE",
"75.307 19.016 CURVE SMOOTH",
"75.307 8.473 OFFCURVE",
"81.873 -0.468 OFFCURVE",
"92 -3 CURVE SMOOTH",
"99 -5 OFFCURVE",
"152 -20 OFFCURVE",
"211 -20 CURVE SMOOTH"
);
},
{
closed = 1;
nodes = (
"191 37 OFFCURVE",
"156 43 OFFCURVE",
"135 48 CURVE",
"184 281 LINE",
"288 281 LINE SMOOTH",
"303 281 OFFCURVE",
"319 294 OFFCURVE",
"322 309 CURVE SMOOTH",
"322.562 311.249 OFFCURVE",
"322.828 313.439 OFFCURVE",
"322.828 315.542 CURVE SMOOTH",
"322.828 328.398 OFFCURVE",
"312.891 338 OFFCURVE",
"300 338 CURVE SMOOTH",
"196 338 LINE",
"257 624 LINE",
"431.454 616.189 OFFCURVE",
"566.736 552.633 OFFCURVE",
"566.736 384.297 CURVE SMOOTH",
"566.736 358.682 OFFCURVE",
"563.604 330.64 OFFCURVE",
"557 300 CURVE",
"520 123 OFFCURVE",
"401 37 OFFCURVE",
"223 37 CURVE SMOOTH"
);
}
);
userData = {
com.fontlab.hintData = {
hhints = (
{
position = -20;
width = 57;
},
{
position = 281;
width = 57;
},
{
position = 624;
width = 57;
}
);
vhints = (
{
position = 567;
width = 56;
}
);
};
};
width = 655;
}
);
unicode = 00D0;
},
{
glyphname = Dcaron;
lastChange = "2019-10-15 23:54:51 +0000";
layers = (
{
layerId = master01;
paths = (
{
closed = 1;
nodes = (
"343 -20 OFFCURVE",
"521 77 OFFCURVE",
"568 300 CURVE SMOOTH",
"575.282 333.912 OFFCURVE",
"578.646 364.891 OFFCURVE",
"578.646 393.181 CURVE SMOOTH",
"578.646 636.847 OFFCURVE",
"329.044 681 OFFCURVE",
"183 681 CURVE SMOOTH",
"167 681 OFFCURVE",
"152 669 OFFCURVE",
"148 653 CURVE SMOOTH",
"15 25 LINE SMOOTH",
"14.532 22.971 OFFCURVE",
"14.307 20.966 OFFCURVE",
"14.307 19.016 CURVE SMOOTH",
"14.307 8.473 OFFCURVE",
"20.873 -0.468 OFFCURVE",
"31 -3 CURVE SMOOTH",
"38 -5 OFFCURVE",
"91 -20 OFFCURVE",
"150 -20 CURVE SMOOTH"
);
},
{
closed = 1;
nodes = (
"130 37 OFFCURVE",
"98 43 OFFCURVE",
"77 48 CURVE",
"199 624 LINE",
"374.916 616.123 OFFCURVE",
"520.193 551.563 OFFCURVE",
"520.193 380.041 CURVE SMOOTH",
"520.193 355.584 OFFCURVE",
"517.24 328.952 OFFCURVE",
"511 300 CURVE",
"474 123 OFFCURVE",
"340 37 OFFCURVE",
"162 37 CURVE SMOOTH"
);
},
{
closed = 1;
nodes = (
"369 722 OFFCURVE",
"376 724 OFFCURVE",
"383 729 CURVE SMOOTH",
"538 839 LINE SMOOTH",
"546 844 OFFCURVE",
"551 852 OFFCURVE",
"552 860 CURVE SMOOTH",
"552.39 861.949 OFFCURVE",
"552.577 863.83 OFFCURVE",
"552.577 865.629 CURVE SMOOTH",
"552.577 877.673 OFFCURVE",
"544.181 886 OFFCURVE",
"532 886 CURVE SMOOTH",
"526 886 OFFCURVE",
"520 885 OFFCURVE",
"514 881 CURVE SMOOTH",
"380 792 LINE",
"302 879 LINE SMOOTH",
"298 884 OFFCURVE",
"292 886 OFFCURVE",
"285 886 CURVE SMOOTH",
"271 886 OFFCURVE",
"256 874 OFFCURVE",
"253 860 CURVE SMOOTH",
"252 852 OFFCURVE",
"253 845 OFFCURVE",
"258 840 CURVE",
"345 730 LINE",
"350 725 OFFCURVE",
"356 722 OFFCURVE",
"363 722 CURVE SMOOTH"
);
}
);
userData = {
com.fontlab.hintData = {
hhints = (
{
position = -20;
width = 57;
},
{
position = 624;
width = 57;
}
);
vhints = (
{
position = 520;
width = 58;
}
);
};
};
width = 620;
}
);
unicode = 010E;
},
{
glyphname = Dcroat;
lastChange = "2019-10-15 23:54:51 +0000";
layers = (
{
layerId = master01;
paths = (
{
closed = 1;
nodes = (
"404 -20 OFFCURVE",
"565 77 OFFCURVE",
"612 300 CURVE SMOOTH",
"619.656 335.655 OFFCURVE",
"623.185 368.069 OFFCURVE",
"623.185 397.523 CURVE SMOOTH",
"623.185 637.373 OFFCURVE",
"389.172 681 OFFCURVE",
"244 681 CURVE SMOOTH",
"228 681 OFFCURVE",
"213 669 OFFCURVE",
"209 653 CURVE SMOOTH",
"142 338 LINE",
"79 338 LINE SMOOTH",
"64 338 OFFCURVE",
"49 325 OFFCURVE",
"45 309 CURVE SMOOTH",
"44.641 307.203 OFFCURVE",
"44.468 305.435 OFFCURVE",
"44.468 303.714 CURVE SMOOTH",
"44.468 291.072 OFFCURVE",
"53.797 281 OFFCURVE",
"67 281 CURVE SMOOTH",
"130 281 LINE",
"76 25 LINE SMOOTH",
"75.532 22.971 OFFCURVE",
"75.307 20.966 OFFCURVE",
"75.307 19.016 CURVE SMOOTH",
"75.307 8.473 OFFCURVE",
"81.873 -0.468 OFFCURVE",
"92 -3 CURVE SMOOTH",
"99 -5 OFFCURVE",
"152 -20 OFFCURVE",
"211 -20 CURVE SMOOTH"
);
},
{
closed = 1;
nodes = (
"191 37 OFFCURVE",
"156 43 OFFCURVE",
"135 48 CURVE",
"184 281 LINE",
"288 281 LINE SMOOTH",
"303 281 OFFCURVE",
"319 294 OFFCURVE",
"322 309 CURVE SMOOTH",
"322.562 311.249 OFFCURVE",
"322.828 313.439 OFFCURVE",
"322.828 315.542 CURVE SMOOTH",
"322.828 328.398 OFFCURVE",
"312.891 338 OFFCURVE",
"300 338 CURVE SMOOTH",
"196 338 LINE",
"257 624 LINE",
"431.454 616.189 OFFCURVE",
"566.736 552.633 OFFCURVE",
"566.736 384.297 CURVE SMOOTH",
"566.736 358.682 OFFCURVE",
"563.604 330.64 OFFCURVE",
"557 300 CURVE",
"520 123 OFFCURVE",
"401 37 OFFCURVE",
"223 37 CURVE SMOOTH"
);
}
);
userData = {
com.fontlab.hintData = {
hhints = (
{
position = -20;
width = 57;
},
{
position = 281;
width = 57;
},
{
position = 624;
width = 57;
}
);
vhints = (
{
position = 567;
width = 56;
}
);
};
};
width = 655;
}
);
unicode = 0110;
},
{
glyphname = E;
lastChange = "2019-10-15 23:54:51 +0000";
layers = (
{
layerId = master01;
paths = (
{
closed = 1;
nodes = (
"465 0 LINE SMOOTH",
"481 0 OFFCURVE",
"495 13 OFFCURVE",
"499 29 CURVE SMOOTH",
"499.385 31.055 OFFCURVE",
"499.573 33.044 OFFCURVE",
"499.573 34.95 CURVE SMOOTH",
"499.573 47.885 OFFCURVE",
"490.945 57 OFFCURVE",
"477 57 CURVE SMOOTH",
"79 57 LINE",
"135 324 LINE",
"486 324 LINE SMOOTH",
"502 324 OFFCURVE",
"517 337 OFFCURVE",
"521 353 CURVE SMOOTH",
"521.358 354.907 OFFCURVE",
"521.531 356.758 OFFCURVE",
"521.531 358.538 CURVE SMOOTH",
"521.531 371.691 OFFCURVE",
"512.093 381 OFFCURVE",
"498 381 CURVE SMOOTH",
"147 381 LINE",
"199 625 LINE",
"599 625 LINE SMOOTH",
"615 625 OFFCURVE",
"630 638 OFFCURVE",
"634 654 CURVE SMOOTH",
"634.358 655.907 OFFCURVE",
"634.531 657.758 OFFCURVE",
"634.531 659.538 CURVE SMOOTH",
"634.531 672.691 OFFCURVE",
"625.093 682 OFFCURVE",
"611 682 CURVE SMOOTH",
"183 682 LINE SMOOTH",
"167 682 OFFCURVE",
"152 670 OFFCURVE",
"149 654 CURVE SMOOTH",
"16 29 LINE SMOOTH",
"15.441 26.762 OFFCURVE",
"15.175 24.583 OFFCURVE",
"15.175 22.49 CURVE SMOOTH",
"15.175 9.618 OFFCURVE",
"25.238 0 OFFCURVE",
"39 0 CURVE SMOOTH"
);
}
);
userData = {
com.fontlab.hintData = {
hhints = (
{
position = 0;
width = 57;
},
{
position = 324;
width = 57;
},
{
position = 625;
width = 57;
}
);
};
};
width = 610;
}
);
unicode = 0045;
},
{
glyphname = Eacute;
lastChange = "2019-10-15 23:54:51 +0000";
layers = (
{
layerId = master01;
paths = (
{
closed = 1;
nodes = (
"465 0 LINE SMOOTH",
"481 0 OFFCURVE",
"495 13 OFFCURVE",
"499 29 CURVE SMOOTH",
"499.385 31.055 OFFCURVE",
"499.573 33.044 OFFCURVE",
"499.573 34.95 CURVE SMOOTH",
"499.573 47.885 OFFCURVE",
"490.945 57 OFFCURVE",
"477 57 CURVE SMOOTH",
"79 57 LINE",
"135 324 LINE",
"486 324 LINE SMOOTH",
"502 324 OFFCURVE",
"517 337 OFFCURVE",
"521 353 CURVE SMOOTH",
"521.358 354.907 OFFCURVE",
"521.531 356.758 OFFCURVE",
"521.531 358.538 CURVE SMOOTH",
"521.531 371.691 OFFCURVE",
"512.093 381 OFFCURVE",
"498 381 CURVE SMOOTH",
"147 381 LINE",
"199 625 LINE",
"599 625 LINE SMOOTH",
"615 625 OFFCURVE",
"630 638 OFFCURVE",
"634 654 CURVE SMOOTH",
"634.358 655.907 OFFCURVE",
"634.531 657.758 OFFCURVE",
"634.531 659.538 CURVE SMOOTH",
"634.531 672.691 OFFCURVE",
"625.093 682 OFFCURVE",
"611 682 CURVE SMOOTH",
"183 682 LINE SMOOTH",
"167 682 OFFCURVE",
"152 670 OFFCURVE",
"149 654 CURVE SMOOTH",
"16 29 LINE SMOOTH",
"15.441 26.762 OFFCURVE",
"15.175 24.583 OFFCURVE",
"15.175 22.49 CURVE SMOOTH",
"15.175 9.618 OFFCURVE",
"25.238 0 OFFCURVE",
"39 0 CURVE SMOOTH"
);
},
{
closed = 1;
nodes = (
"347 732 OFFCURVE",
"356 736 OFFCURVE",
"364 741 CURVE SMOOTH",
"522 835 LINE SMOOTH",
"530 840 OFFCURVE",
"535 849 OFFCURVE",
"537 858 CURVE SMOOTH",
"537.551 860.755 OFFCURVE",
"537.817 863.435 OFFCURVE",
"537.817 866.007 CURVE SMOOTH",
"537.817 882.105 OFFCURVE",
"527.383 894 OFFCURVE",
"511 894 CURVE SMOOTH",
"500 894 OFFCURVE",
"488 886 OFFCURVE",
"478 879 CURVE SMOOTH",
"330 776 LINE SMOOTH",
"325 772 OFFCURVE",
"322 765 OFFCURVE",
"321 759 CURVE SMOOTH",
"320.61 757.051 OFFCURVE",
"320.423 755.153 OFFCURVE",
"320.423 753.325 CURVE SMOOTH",
"320.423 741.084 OFFCURVE",
"328.819 732 OFFCURVE",
"341 732 CURVE SMOOTH"
);
}
);
userData = {
com.fontlab.hintData = {
hhints = (
{
position = 0;
width = 57;
},
{
position = 324;
width = 57;
},
{
position = 625;
width = 57;
}
);
};
};
width = 610;
}
);
unicode = 00C9;
},
{
glyphname = Ecaron;
lastChange = "2019-10-15 23:54:51 +0000";
layers = (
{
layerId = master01;
paths = (
{
closed = 1;
nodes = (
"465 0 LINE SMOOTH",
"481 0 OFFCURVE",
"495 13 OFFCURVE",
"499 29 CURVE SMOOTH",
"499.385 31.055 OFFCURVE",
"499.573 33.044 OFFCURVE",
"499.573 34.95 CURVE SMOOTH",
"499.573 47.885 OFFCURVE",
"490.945 57 OFFCURVE",
"477 57 CURVE SMOOTH",
"79 57 LINE",
"135 324 LINE",
"486 324 LINE SMOOTH",
"502 324 OFFCURVE",
"517 337 OFFCURVE",
"521 353 CURVE SMOOTH",
"521.358 354.907 OFFCURVE",
"521.531 356.758 OFFCURVE",
"521.531 358.538 CURVE SMOOTH",
"521.531 371.691 OFFCURVE",
"512.093 381 OFFCURVE",
"498 381 CURVE SMOOTH",
"147 381 LINE",
"199 625 LINE",
"599 625 LINE SMOOTH",
"615 625 OFFCURVE",
"630 638 OFFCURVE",
"634 654 CURVE SMOOTH",
"634.358 655.907 OFFCURVE",
"634.531 657.758 OFFCURVE",
"634.531 659.538 CURVE SMOOTH",
"634.531 672.691 OFFCURVE",
"625.093 682 OFFCURVE",
"611 682 CURVE SMOOTH",
"183 682 LINE SMOOTH",
"167 682 OFFCURVE",
"152 670 OFFCURVE",
"149 654 CURVE SMOOTH",
"16 29 LINE SMOOTH",
"15.441 26.762 OFFCURVE",
"15.175 24.583 OFFCURVE",
"15.175 22.49 CURVE SMOOTH",
"15.175 9.618 OFFCURVE",
"25.238 0 OFFCURVE",
"39 0 CURVE SMOOTH"
);
},
{
closed = 1;
nodes = (
"405 722 OFFCURVE",
"412 724 OFFCURVE",
"419 729 CURVE SMOOTH",
"574 839 LINE SMOOTH",
"582 844 OFFCURVE",
"587 852 OFFCURVE",
"588 860 CURVE SMOOTH",
"588.39 861.949 OFFCURVE",
"588.577 863.83 OFFCURVE",
"588.577 865.629 CURVE SMOOTH",
"588.577 877.673 OFFCURVE",
"580.181 886 OFFCURVE",
"568 886 CURVE SMOOTH",
"562 886 OFFCURVE",
"556 885 OFFCURVE",
"550 881 CURVE SMOOTH",
"416 792 LINE",
"338 879 LINE SMOOTH",
"334 884 OFFCURVE",
"328 886 OFFCURVE",
"321 886 CURVE SMOOTH",
"307 886 OFFCURVE",
"292 874 OFFCURVE",
"289 860 CURVE SMOOTH",
"288 852 OFFCURVE",
"289 845 OFFCURVE",
"294 840 CURVE",
"381 730 LINE",
"386 725 OFFCURVE",
"392 722 OFFCURVE",
"399 722 CURVE SMOOTH"
);
}
);
userData = {
com.fontlab.hintData = {
hhints = (
{
position = 0;
width = 57;
},
{
position = 324;
width = 57;
},
{
position = 625;
width = 57;
}
);
};
};
width = 610;
}
);
unicode = 011A;
},
{
glyphname = Ecircumflex;
lastChange = "2019-10-15 23:54:51 +0000";
layers = (
{
layerId = master01;
paths = (
{
closed = 1;
nodes = (
"465 0 LINE SMOOTH",
"481 0 OFFCURVE",
"495 13 OFFCURVE",
"499 29 CURVE SMOOTH",
"499.385 31.055 OFFCURVE",
"499.573 33.044 OFFCURVE",
"499.573 34.95 CURVE SMOOTH",
"499.573 47.885 OFFCURVE",
"490.945 57 OFFCURVE",
"477 57 CURVE SMOOTH",
"79 57 LINE",
"135 324 LINE",
"486 324 LINE SMOOTH",
"502 324 OFFCURVE",
"517 337 OFFCURVE",
"521 353 CURVE SMOOTH",
"521.358 354.907 OFFCURVE",
"521.531 356.758 OFFCURVE",
"521.531 358.538 CURVE SMOOTH",
"521.531 371.691 OFFCURVE",
"512.093 381 OFFCURVE",
"498 381 CURVE SMOOTH",
"147 381 LINE",
"199 625 LINE",
"599 625 LINE SMOOTH",
"615 625 OFFCURVE",
"630 638 OFFCURVE",
"634 654 CURVE SMOOTH",
"634.358 655.907 OFFCURVE",
"634.531 657.758 OFFCURVE",
"634.531 659.538 CURVE SMOOTH",
"634.531 672.691 OFFCURVE",
"625.093 682 OFFCURVE",
"611 682 CURVE SMOOTH",
"183 682 LINE SMOOTH",
"167 682 OFFCURVE",
"152 670 OFFCURVE",
"149 654 CURVE SMOOTH",
"16 29 LINE SMOOTH",
"15.441 26.762 OFFCURVE",
"15.175 24.583 OFFCURVE",
"15.175 22.49 CURVE SMOOTH",
"15.175 9.618 OFFCURVE",
"25.238 0 OFFCURVE",
"39 0 CURVE SMOOTH"
);
},
{
closed = 1;
nodes = (
"300 731 OFFCURVE",
"306 732 OFFCURVE",
"312 736 CURVE SMOOTH",
"446 825 LINE",
"523 738 LINE SMOOTH",
"527 733 OFFCURVE",
"534 731 OFFCURVE",
"541 731 CURVE SMOOTH",
"555 731 OFFCURVE",
"569 743 OFFCURVE",
"572 757 CURVE SMOOTH",
"574 765 OFFCURVE",
"573 772 OFFCURVE",
"568 777 CURVE",
"481 887 LINE",
"476 892 OFFCURVE",
"470 895 OFFCURVE",
"463 895 CURVE SMOOTH",
"457 895 OFFCURVE",
"449 893 OFFCURVE",
"442 888 CURVE SMOOTH",
"288 778 LINE SMOOTH",
"280 773 OFFCURVE",
"275 765 OFFCURVE",
"273 757 CURVE SMOOTH",
"272.639 755.194 OFFCURVE",
"272.466 753.446 OFFCURVE",
"272.466 751.768 CURVE SMOOTH",
"272.466 739.511 OFFCURVE",
"281.686 731 OFFCURVE",
"294 731 CURVE SMOOTH"
);
}
);
userData = {
com.fontlab.hintData = {
hhints = (
{
position = 0;
width = 57;
},
{
position = 324;
width = 57;
},
{
position = 625;
width = 57;
}
);
};
};
width = 610;
}
);
unicode = 00CA;
},
{
glyphname = Edieresis;
lastChange = "2019-10-15 23:54:51 +0000";
layers = (
{
layerId = master01;
paths = (
{
closed = 1;
nodes = (
"465 0 LINE SMOOTH",
"481 0 OFFCURVE",
"495 13 OFFCURVE",
"499 29 CURVE SMOOTH",
"499.385 31.055 OFFCURVE",
"499.573 33.044 OFFCURVE",
"499.573 34.95 CURVE SMOOTH",
"499.573 47.885 OFFCURVE",
"490.945 57 OFFCURVE",
"477 57 CURVE SMOOTH",
"79 57 LINE",
"135 324 LINE",
"486 324 LINE SMOOTH",
"502 324 OFFCURVE",
"517 337 OFFCURVE",
"521 353 CURVE SMOOTH",
"521.358 354.907 OFFCURVE",
"521.531 356.758 OFFCURVE",
"521.531 358.538 CURVE SMOOTH",
"521.531 371.691 OFFCURVE",
"512.093 381 OFFCURVE",
"498 381 CURVE SMOOTH",
"147 381 LINE",
"199 625 LINE",
"599 625 LINE SMOOTH",
"615 625 OFFCURVE",
"630 638 OFFCURVE",
"634 654 CURVE SMOOTH",
"634.358 655.907 OFFCURVE",
"634.531 657.758 OFFCURVE",
"634.531 659.538 CURVE SMOOTH",
"634.531 672.691 OFFCURVE",
"625.093 682 OFFCURVE",
"611 682 CURVE SMOOTH",
"183 682 LINE SMOOTH",
"167 682 OFFCURVE",
"152 670 OFFCURVE",
"149 654 CURVE SMOOTH",
"16 29 LINE SMOOTH",
"15.441 26.762 OFFCURVE",
"15.175 24.583 OFFCURVE",
"15.175 22.49 CURVE SMOOTH",
"15.175 9.618 OFFCURVE",
"25.238 0 OFFCURVE",
"39 0 CURVE SMOOTH"
);
},
{
closed = 1;
nodes = (
"359 733 OFFCURVE",
"386 753 OFFCURVE",
"391 777 CURVE SMOOTH",
"391.377 779.076 OFFCURVE",
"391.559 781.107 OFFCURVE",
"391.559 783.083 CURVE SMOOTH",
"391.559 802.057 OFFCURVE",
"374.83 816 OFFCURVE",
"354 816 CURVE SMOOTH",
"326 816 OFFCURVE",
"298 795 OFFCURVE",
"294 772 CURVE SMOOTH",
"293.383 769.162 OFFCURVE",
"293.086 766.43 OFFCURVE",
"293.086 763.822 CURVE SMOOTH",
"293.086 745.295 OFFCURVE",
"308.085 733 OFFCURVE",
"330 733 CURVE SMOOTH"
);
},
{
closed = 1;
nodes = (
"518 733 OFFCURVE",
"545 753 OFFCURVE",
"550 777 CURVE SMOOTH",
"550.377 779.076 OFFCURVE",
"550.559 781.107 OFFCURVE",
"550.559 783.083 CURVE SMOOTH",
"550.559 802.057 OFFCURVE",
"533.83 816 OFFCURVE",
"513 816 CURVE SMOOTH",
"485 816 OFFCURVE",
"457 795 OFFCURVE",
"453 772 CURVE SMOOTH",
"452.383 769.162 OFFCURVE",
"452.086 766.43 OFFCURVE",
"452.086 763.822 CURVE SMOOTH",
"452.086 745.295 OFFCURVE",
"467.085 733 OFFCURVE",
"489 733 CURVE SMOOTH"
);
}
);
userData = {
com.fontlab.hintData = {
hhints = (
{
position = 0;
width = 57;
},
{
position = 324;
width = 57;
},
{
position = 625;
width = 57;
},
{
position = 733;
width = 83;
}
);
vhints = (
{
position = 293;
width = 98;
},
{
position = 452;
width = 98;
}
);
};
};
width = 610;
}
);
unicode = 00CB;
},
{
glyphname = Egrave;
lastChange = "2019-10-15 23:54:51 +0000";
layers = (
{
layerId = master01;
paths = (
{
closed = 1;
nodes = (
"465 0 LINE SMOOTH",
"481 0 OFFCURVE",
"495 13 OFFCURVE",
"499 29 CURVE SMOOTH",
"499.385 31.055 OFFCURVE",
"499.573 33.044 OFFCURVE",
"499.573 34.95 CURVE SMOOTH",
"499.573 47.885 OFFCURVE",
"490.945 57 OFFCURVE",
"477 57 CURVE SMOOTH",
"79 57 LINE",
"135 324 LINE",
"486 324 LINE SMOOTH",
"502 324 OFFCURVE",
"517 337 OFFCURVE",
"521 353 CURVE SMOOTH",
"521.358 354.907 OFFCURVE",
"521.531 356.758 OFFCURVE",
"521.531 358.538 CURVE SMOOTH",
"521.531 371.691 OFFCURVE",
"512.093 381 OFFCURVE",
"498 381 CURVE SMOOTH",
"147 381 LINE",
"199 625 LINE",
"599 625 LINE SMOOTH",
"615 625 OFFCURVE",
"630 638 OFFCURVE",
"634 654 CURVE SMOOTH",
"634.358 655.907 OFFCURVE",
"634.531 657.758 OFFCURVE",
"634.531 659.538 CURVE SMOOTH",
"634.531 672.691 OFFCURVE",
"625.093 682 OFFCURVE",
"611 682 CURVE SMOOTH",
"183 682 LINE SMOOTH",
"167 682 OFFCURVE",
"152 670 OFFCURVE",
"149 654 CURVE SMOOTH",
"16 29 LINE SMOOTH",
"15.441 26.762 OFFCURVE",
"15.175 24.583 OFFCURVE",
"15.175 22.49 CURVE SMOOTH",
"15.175 9.618 OFFCURVE",
"25.238 0 OFFCURVE",
"39 0 CURVE SMOOTH"
);
},
{
closed = 1;
nodes = (
"450 716 OFFCURVE",
"466 727 OFFCURVE",
"469 742 CURVE SMOOTH",
"470 748 OFFCURVE",
"470 753 OFFCURVE",
"466 760 CURVE SMOOTH",
"389 890 LINE",
"383 898 OFFCURVE",
"374 905 OFFCURVE",
"363 905 CURVE SMOOTH",
"345 905 OFFCURVE",
"324 889 OFFCURVE",
"321 871 CURVE SMOOTH",
"319 861 OFFCURVE",
"321 853 OFFCURVE",
"326 846 CURVE SMOOTH",
"419 725 LINE SMOOTH",
"423 720 OFFCURVE",
"428 716 OFFCURVE",
"436 716 CURVE SMOOTH"
);
}
);
userData = {
com.fontlab.hintData = {
hhints = (
{
position = 0;
width = 57;
},
{
position = 324;
width = 57;
},
{
position = 625;
width = 57;
}
);
};
};
width = 610;
}
);
unicode = 00C8;
},
{
glyphname = Eogonek;
lastChange = "2019-10-15 23:54:51 +0000";
layers = (
{
layerId = master01;
paths = (
{
closed = 1;
nodes = (
"394 -201 OFFCURVE",
"466 -181 OFFCURVE",
"472 -152 CURVE SMOOTH",
"475 -141 OFFCURVE",
"466 -131 OFFCURVE",
"456 -131 CURVE SMOOTH",
"451 -131 OFFCURVE",
"446 -132 OFFCURVE",
"442 -135 CURVE SMOOTH",
"418 -151 OFFCURVE",
"395 -158 OFFCURVE",
"375 -158 CURVE SMOOTH",
"345.26 -158 OFFCURVE",
"324.701 -140.402 OFFCURVE",
"324.701 -113.238 CURVE SMOOTH",
"324.701 -109.347 OFFCURVE",
"325.123 -105.26 OFFCURVE",
"326 -101 CURVE SMOOTH",
"335 -57 OFFCURVE",
"378 -30 OFFCURVE",
"408 -11 CURVE SMOOTH",
"425 0 LINE",
"465 0 LINE SMOOTH",
"481 0 OFFCURVE",
"495 13 OFFCURVE",
"499 29 CURVE SMOOTH",
"499.385 31.055 OFFCURVE",
"499.573 33.044 OFFCURVE",
"499.573 34.95 CURVE SMOOTH",
"499.573 47.885 OFFCURVE",
"490.945 57 OFFCURVE",
"477 57 CURVE SMOOTH",
"79 57 LINE",
"135 324 LINE",
"486 324 LINE SMOOTH",
"502 324 OFFCURVE",
"517 337 OFFCURVE",
"521 353 CURVE SMOOTH",
"521.358 354.907 OFFCURVE",
"521.531 356.758 OFFCURVE",
"521.531 358.538 CURVE SMOOTH",
"521.531 371.691 OFFCURVE",
"512.093 381 OFFCURVE",
"498 381 CURVE SMOOTH",
"147 381 LINE",
"199 625 LINE",
"599 625 LINE SMOOTH",
"615 625 OFFCURVE",
"630 638 OFFCURVE",
"634 654 CURVE SMOOTH",
"634.358 655.907 OFFCURVE",
"634.531 657.758 OFFCURVE",
"634.531 659.538 CURVE SMOOTH",
"634.531 672.691 OFFCURVE",
"625.093 682 OFFCURVE",
"611 682 CURVE SMOOTH",
"183 682 LINE SMOOTH",
"167 682 OFFCURVE",
"152 670 OFFCURVE",
"149 654 CURVE SMOOTH",
"16 29 LINE SMOOTH",
"15.441 26.762 OFFCURVE",
"15.175 24.583 OFFCURVE",
"15.175 22.49 CURVE SMOOTH",
"15.175 9.618 OFFCURVE",
"25.238 0 OFFCURVE",
"39 0 CURVE SMOOTH",
"357 0 LINE",
"322 -26 OFFCURVE",
"293 -60 OFFCURVE",
"284 -100 CURVE SMOOTH",
"282.417 -107.651 OFFCURVE",
"281.652 -115.024 OFFCURVE",
"281.652 -122.061 CURVE SMOOTH",
"281.652 -168.368 OFFCURVE",
"314.783 -200.132 OFFCURVE",
"366 -201 CURVE SMOOTH"
);
}
);
userData = {
com.fontlab.hintData = {
hhints = (
{
position = -201;
width = 43;
},
{
position = 0;
width = 57;
},
{
position = 324;
width = 57;
},
{
position = 625;
width = 57;
}
);
vhints = (
{
position = 282;
width = 43;
}
);
};
};
width = 610;
}
);
unicode = 0118;
},
{
glyphname = F;
lastChange = "2019-10-15 23:54:51 +0000";
layers = (
{
layerId = master01;
paths = (
{
closed = 1;
nodes = (
"49 -1 OFFCURVE",
"64 12 OFFCURVE",
"67 28 CURVE SMOOTH",
"130 323 LINE",
"441 323 LINE SMOOTH",
"457 323 OFFCURVE",
"472 336 OFFCURVE",
"475 351 CURVE SMOOTH",
"475.597 353.388 OFFCURVE",
"475.882 355.708 OFFCURVE",
"475.882 357.929 CURVE SMOOTH",
"475.882 370.59 OFFCURVE",
"466.612 380 OFFCURVE",
"453 380 CURVE SMOOTH",
"142 380 LINE",
"194 624 LINE",
"594 624 LINE SMOOTH",
"610 624 OFFCURVE",
"625 637 OFFCURVE",
"628 652 CURVE SMOOTH",
"628.385 654.055 OFFCURVE",
"628.573 656.06 OFFCURVE",
"628.573 657.995 CURVE SMOOTH",
"628.573 671.125 OFFCURVE",
"619.945 681 OFFCURVE",
"606 681 CURVE SMOOTH",
"178 681 LINE SMOOTH",
"162 681 OFFCURVE",
"146 668 OFFCURVE",
"143 652 CURVE SMOOTH",
"10 28 LINE SMOOTH",
"9.642 26.093 OFFCURVE",
"9.469 24.228 OFFCURVE",
"9.469 22.423 CURVE SMOOTH",
"9.469 9.085 OFFCURVE",
"18.907 -1 OFFCURVE",
"33 -1 CURVE SMOOTH"
);
}
);
userData = {
com.fontlab.hintData = {
hhints = (
{
position = 323;
width = 57;
},
{
position = 624;
width = 57;
}
);
};
};
width = 545;
}
);
unicode = 0046;
},
{
glyphname = G;
lastChange = "2019-10-15 23:54:51 +0000";
layers = (
{
layerId = master01;
paths = (
{
closed = 1;
nodes = (
"460 -1 OFFCURVE",
"583 101 OFFCURVE",
"640 228 CURVE",
"645 226 OFFCURVE",
"651 224 OFFCURVE",
"654 224 CURVE SMOOTH",
"668 224 OFFCURVE",
"684 235 OFFCURVE",
"688 252 CURVE SMOOTH",
"688.643 254.571 OFFCURVE",
"688.964 257.097 OFFCURVE",
"688.964 259.517 CURVE SMOOTH",
"688.964 268.393 OFFCURVE",
"684.643 275.857 OFFCURVE",
"676 279 CURVE SMOOTH",
"668 282 OFFCURVE",
"632 296 OFFCURVE",
"569 296 CURVE SMOOTH",
"495 296 OFFCURVE",
"431 278 OFFCURVE",
"427 277 CURVE SMOOTH",
"414 273 OFFCURVE",
"404 262 OFFCURVE",
"402 250 CURVE SMOOTH",
"401.435 247.456 OFFCURVE",
"401.169 245.052 OFFCURVE",
"401.169 242.799 CURVE SMOOTH",
"401.169 229.111 OFFCURVE",
"410.979 221 OFFCURVE",
"423 221 CURVE SMOOTH",
"440 221 OFFCURVE",
"478 239 OFFCURVE",
"558 239 CURVE SMOOTH",
"568 239 OFFCURVE",
"577 239 OFFCURVE",
"586 238 CURVE",
"534 126 OFFCURVE",
"432 56 OFFCURVE",
"317 56 CURVE SMOOTH",
"179.229 56 OFFCURVE",
"125.493 163.455 OFFCURVE",
"125.493 268.03 CURVE SMOOTH",
"125.493 289.457 OFFCURVE",
"127.749 310.764 OFFCURVE",
"132 331 CURVE SMOOTH",
"151 422 OFFCURVE",
"262 626 OFFCURVE",
"455 626 CURVE SMOOTH",
"581 626 OFFCURVE",
"623 554 OFFCURVE",
"634 489 CURVE",
"637 476 OFFCURVE",
"647 470 OFFCURVE",
"658 470 CURVE SMOOTH",
"674 470 OFFCURVE",
"688 480 OFFCURVE",
"691 495 CURVE SMOOTH",
"691.587 498.01 OFFCURVE",
"691.9 501.591 OFFCURVE",
"691.9 505.643 CURVE SMOOTH",
"691.9 556.791 OFFCURVE",
"642.125 683 OFFCURVE",
"467 683 CURVE SMOOTH",
"272 683 OFFCURVE",
"110 498 OFFCURVE",
"75 331 CURVE SMOOTH",
"69.376 304.598 OFFCURVE",
"66.583 278.343 OFFCURVE",
"66.583 252.832 CURVE SMOOTH",
"66.583 115.049 OFFCURVE",
"148.058 -1 OFFCURVE",
"305 -1 CURVE SMOOTH"
);
}
);
userData = {
com.fontlab.hintData = {
hhints = (
{
position = -1;
width = 57;
},
{
position = 224;
width = 55;
},
{
position = 239;
width = 57;
},
{
position = 626;
width = 57;
}
);
vhints = (
{
position = 67;
width = 59;
},
{
position = 634;
width = 57;
}
);
};
};
width = 751;
}
);
unicode = 0047;
},
{
glyphname = Gcircumflex;
lastChange = "2019-10-15 23:54:51 +0000";
layers = (
{
layerId = master01;
paths = (
{
closed = 1;
nodes = (
"460 -1 OFFCURVE",
"583 101 OFFCURVE",
"640 228 CURVE",
"645 226 OFFCURVE",
"651 224 OFFCURVE",
"654 224 CURVE SMOOTH",
"668 224 OFFCURVE",
"684 235 OFFCURVE",
"688 252 CURVE SMOOTH",
"688.643 254.571 OFFCURVE",
"688.964 257.097 OFFCURVE",
"688.964 259.517 CURVE SMOOTH",
"688.964 268.393 OFFCURVE",
"684.643 275.857 OFFCURVE",
"676 279 CURVE SMOOTH",
"668 282 OFFCURVE",
"632 296 OFFCURVE",
"569 296 CURVE SMOOTH",
"495 296 OFFCURVE",
"431 278 OFFCURVE",
"427 277 CURVE SMOOTH",
"414 273 OFFCURVE",
"404 262 OFFCURVE",
"402 250 CURVE SMOOTH",
"401.435 247.456 OFFCURVE",
"401.169 245.052 OFFCURVE",
"401.169 242.799 CURVE SMOOTH",
"401.169 229.111 OFFCURVE",
"410.979 221 OFFCURVE",
"423 221 CURVE SMOOTH",
"440 221 OFFCURVE",
"478 239 OFFCURVE",
"558 239 CURVE SMOOTH",
"568 239 OFFCURVE",
"577 239 OFFCURVE",
"586 238 CURVE",
"534 126 OFFCURVE",
"432 56 OFFCURVE",
"317 56 CURVE SMOOTH",
"179.229 56 OFFCURVE",
"125.493 163.455 OFFCURVE",
"125.493 268.03 CURVE SMOOTH",
"125.493 289.457 OFFCURVE",
"127.749 310.764 OFFCURVE",
"132 331 CURVE SMOOTH",
"151 422 OFFCURVE",
"262 626 OFFCURVE",
"455 626 CURVE SMOOTH",
"581 626 OFFCURVE",
"623 554 OFFCURVE",
"634 489 CURVE SMOOTH",
"637 476 OFFCURVE",
"647 470 OFFCURVE",
"658 470 CURVE SMOOTH",
"674 470 OFFCURVE",
"688 480 OFFCURVE",
"691 495 CURVE SMOOTH",
"691.587 498.01 OFFCURVE",
"691.9 501.591 OFFCURVE",
"691.9 505.643 CURVE SMOOTH",
"691.9 556.791 OFFCURVE",
"642.125 683 OFFCURVE",
"467 683 CURVE SMOOTH",
"272 683 OFFCURVE",
"110 498 OFFCURVE",
"75 331 CURVE SMOOTH",
"69.376 304.598 OFFCURVE",
"66.583 278.343 OFFCURVE",
"66.583 252.832 CURVE SMOOTH",
"66.583 115.049 OFFCURVE",
"148.058 -1 OFFCURVE",
"305 -1 CURVE SMOOTH"
);
},
{
closed = 1;
nodes = (
"348 731 OFFCURVE",
"354 732 OFFCURVE",
"360 736 CURVE SMOOTH",
"494 825 LINE",
"571 738 LINE SMOOTH",
"575 733 OFFCURVE",
"582 731 OFFCURVE",
"589 731 CURVE SMOOTH",
"603 731 OFFCURVE",
"617 743 OFFCURVE",
"620 757 CURVE SMOOTH",
"622 765 OFFCURVE",
"621 772 OFFCURVE",
"616 777 CURVE SMOOTH",
"529 887 LINE SMOOTH",
"524 892 OFFCURVE",
"518 895 OFFCURVE",
"511 895 CURVE SMOOTH",
"505 895 OFFCURVE",
"497 893 OFFCURVE",
"490 888 CURVE SMOOTH",
"336 778 LINE SMOOTH",
"328 773 OFFCURVE",
"323 765 OFFCURVE",
"321 757 CURVE SMOOTH",
"320.639 755.194 OFFCURVE",
"320.466 753.446 OFFCURVE",
"320.466 751.768 CURVE SMOOTH",
"320.466 739.511 OFFCURVE",
"329.686 731 OFFCURVE",
"342 731 CURVE SMOOTH"
);
}
);
userData = {
com.fontlab.hintData = {
hhints = (
{
position = -1;
width = 57;
},
{
position = 224;
width = 55;
},
{
position = 239;
width = 57;
},
{
position = 626;
width = 57;
}
);
vhints = (
{
position = 67;
width = 59;
},
{
position = 634;
width = 57;
}
);
};
};
width = 751;
}
);
unicode = 011C;
},
{
glyphname = H;
lastChange = "2019-10-15 23:54:12 +0000";
layers = (
{
background = {
paths = (
{
closed = 1;
nodes = (
"693.891 681 OFFCURVE",
"703.828 672.137 OFFCURVE",
"703.828 659.488 CURVE SMOOTH",
"703.828 657.419 OFFCURVE",
"703.562 655.249 OFFCURVE",
"703 653 CURVE SMOOTH",
"570 28 LINE SMOOTH",
"567 13 OFFCURVE",
"552 0 OFFCURVE",
"537 0 CURVE SMOOTH",
"521 0 OFFCURVE",
"510 13 OFFCURVE",
"513 28 CURVE SMOOTH",
"582 349 LINE",
"128 288 LINE",
"72 28 LINE SMOOTH",
"69 13 OFFCURVE",
"54 0 OFFCURVE",
"38 0 CURVE SMOOTH",
"23.907 0 OFFCURVE",
"14 10 OFFCURVE",
"14 23 CURVE SMOOTH",
"14 24 OFFCURVE",
"14.642 26.212 OFFCURVE",
"15 28 CURVE SMOOTH",
"148 653 LINE SMOOTH",
"152 669 OFFCURVE",
"166 681 OFFCURVE",
"182 681 CURVE SMOOTH",
"195.762 681 OFFCURVE",
"205.825 672.122 OFFCURVE",
"205.825 659.456 CURVE SMOOTH",
"205.825 657.397 OFFCURVE",
"205.559 655.238 OFFCURVE",
"205 653 CURVE SMOOTH",
"140 346 LINE",
"594 407 LINE",
"646 653 LINE SMOOTH",
"650 669 OFFCURVE",
"665 681 OFFCURVE",
"681 681 CURVE SMOOTH"
);
}
);
};
layerId = master01;
paths = (
{
closed = 1;
nodes = (
"54 0 OFFCURVE",
"69 13 OFFCURVE",
"72 28 CURVE SMOOTH",
"128 288 LINE",
"582 349 LINE",
"513 28 LINE SMOOTH",
"510 13 OFFCURVE",
"521 0 OFFCURVE",
"537 0 CURVE SMOOTH",
"552 0 OFFCURVE",
"567 13 OFFCURVE",
"570 28 CURVE SMOOTH",
"702 647 LINE SMOOTH",
"703 653 OFFCURVE",
"704 657 OFFCURVE",
"704 661 CURVE SMOOTH",
"703 672 OFFCURVE",
"693.891 681 OFFCURVE",
"681 681 CURVE SMOOTH",
"665 681 OFFCURVE",
"650 669 OFFCURVE",
"646 653 CURVE SMOOTH",
"594 407 LINE",
"140 346 LINE",
"203 643 LINE SMOOTH",
"205 651 OFFCURVE",
"206 656 OFFCURVE",
"206 659 CURVE SMOOTH",
"206 672 OFFCURVE",
"195.762 681 OFFCURVE",
"182 681 CURVE SMOOTH",
"166 681 OFFCURVE",
"152 669 OFFCURVE",
"148 653 CURVE SMOOTH",
"123 532 OFFCURVE",
"31 103 OFFCURVE",
"18 42 CURVE SMOOTH",
"16 33 OFFCURVE",
"14 26 OFFCURVE",
"14 22 CURVE SMOOTH",
"14 11 OFFCURVE",
"23 0 OFFCURVE",
"38 0 CURVE SMOOTH"
);
}
);
userData = {
com.fontlab.hintData = {
hhints = (
{
position = 0;
width = 21;
},
{
position = 661;
width = 20;
}
);
};
};
width = 685;
}
);
unicode = 0048;
},
{
glyphname = Hcircumflex;
lastChange = "2019-10-15 23:54:51 +0000";
layers = (
{
layerId = master01;
paths = (
{
closed = 1;
nodes = (
"54 0 OFFCURVE",
"69 13 OFFCURVE",
"72 28 CURVE SMOOTH",
"128 288 LINE",
"582 349 LINE",
"513 28 LINE SMOOTH",
"510 13 OFFCURVE",
"521 0 OFFCURVE",
"537 0 CURVE SMOOTH",
"552 0 OFFCURVE",
"567 13 OFFCURVE",
"570 28 CURVE SMOOTH",
"703 653 LINE SMOOTH",
"703.562 655.249 OFFCURVE",
"703.828 657.419 OFFCURVE",
"703.828 659.488 CURVE SMOOTH",
"703.828 672.137 OFFCURVE",
"693.891 681 OFFCURVE",
"681 681 CURVE SMOOTH",
"665 681 OFFCURVE",
"650 669 OFFCURVE",
"646 653 CURVE SMOOTH",
"594 407 LINE",
"140 346 LINE",
"205 653 LINE SMOOTH",
"205.559 655.238 OFFCURVE",
"205.825 657.397 OFFCURVE",
"205.825 659.456 CURVE SMOOTH",
"205.825 672.122 OFFCURVE",
"195.762 681 OFFCURVE",
"182 681 CURVE SMOOTH",
"166 681 OFFCURVE",
"152 669 OFFCURVE",
"148 653 CURVE SMOOTH",
"15 28 LINE SMOOTH",
"14.642 26.212 OFFCURVE",
"14.47 24.452 OFFCURVE",
"14.47 22.739 CURVE SMOOTH",
"14.47 10.085 OFFCURVE",
"23.907 0 OFFCURVE",
"38 0 CURVE SMOOTH"
);
},
{
closed = 1;
nodes = (
"318 731 OFFCURVE",
"324 732 OFFCURVE",
"330 736 CURVE SMOOTH",
"464 825 LINE",
"541 738 LINE SMOOTH",
"545 733 OFFCURVE",
"552 731 OFFCURVE",
"559 731 CURVE SMOOTH",
"573 731 OFFCURVE",
"587 743 OFFCURVE",
"590 757 CURVE SMOOTH",
"592 765 OFFCURVE",
"591 772 OFFCURVE",
"586 777 CURVE SMOOTH",
"499 887 LINE SMOOTH",
"494 892 OFFCURVE",
"488 895 OFFCURVE",
"481 895 CURVE SMOOTH",
"475 895 OFFCURVE",
"467 893 OFFCURVE",
"460 888 CURVE SMOOTH",
"306 778 LINE SMOOTH",
"298 773 OFFCURVE",
"293 765 OFFCURVE",
"291 757 CURVE SMOOTH",
"290.639 755.194 OFFCURVE",
"290.466 753.446 OFFCURVE",
"290.466 751.768 CURVE SMOOTH",
"290.466 739.511 OFFCURVE",
"299.686 731 OFFCURVE",
"312 731 CURVE SMOOTH"
);
}
);
userData = {
com.fontlab.hintData = {
hhints = (
{
position = 0;
width = 21;
},
{
position = 661;
width = 20;
}
);
};
};
width = 685;
}
);
unicode = 0124;
},
{
glyphname = I;
lastChange = "2019-10-15 23:54:51 +0000";
layers = (
{
layerId = master01;
paths = (
{
closed = 1;
nodes = (
"289 -1 LINE SMOOTH",
"305 -1 OFFCURVE",
"320 12 OFFCURVE",
"323 28 CURVE SMOOTH",
"323.635 30.539 OFFCURVE",
"323.942 32.977 OFFCURVE",
"323.942 35.283 CURVE SMOOTH",
"323.942 47.506 OFFCURVE",
"315.302 56 OFFCURVE",
"301 56 CURVE SMOOTH",
"202 56 LINE",
"323 624 LINE",
"422 624 LINE SMOOTH",
"438 624 OFFCURVE",
"453 637 OFFCURVE",
"456 653 CURVE SMOOTH",
"456.597 655.388 OFFCURVE",
"456.882 657.686 OFFCURVE",
"456.882 659.869 CURVE SMOOTH",
"456.882 672.314 OFFCURVE",
"447.612 681 OFFCURVE",
"434 681 CURVE SMOOTH",
"178 681 LINE SMOOTH",
"162 681 OFFCURVE",
"147 669 OFFCURVE",
"143 653 CURVE SMOOTH",
"142.642 651.093 OFFCURVE",
"142.469 649.228 OFFCURVE",
"142.469 647.423 CURVE SMOOTH",
"142.469 634.085 OFFCURVE",
"151.907 624 OFFCURVE",
"166 624 CURVE SMOOTH",
"266 624 LINE",
"145 56 LINE",
"45 56 LINE SMOOTH",
"29 56 OFFCURVE",
"14 44 OFFCURVE",
"10 28 CURVE SMOOTH",
"9.642 26.093 OFFCURVE",
"9.469 24.228 OFFCURVE",
"9.469 22.423 CURVE SMOOTH",
"9.469 9.085 OFFCURVE",
"18.907 -1 OFFCURVE",
"33 -1 CURVE SMOOTH"
);
}
);
userData = {
com.fontlab.hintData = {
hhints = (
{
position = -1;
width = 57;
},
{
position = 624;
width = 57;
}
);
};
};
width = 433;
}
);
unicode = 0049;
},
{
glyphname = Iacute;
lastChange = "2019-10-15 23:54:51 +0000";
layers = (
{
layerId = master01;
paths = (
{
closed = 1;
nodes = (
"289 -1 LINE SMOOTH",
"305 -1 OFFCURVE",
"320 12 OFFCURVE",
"323 28 CURVE SMOOTH",
"323.635 30.539 OFFCURVE",
"323.942 32.977 OFFCURVE",
"323.942 35.283 CURVE SMOOTH",
"323.942 47.506 OFFCURVE",
"315.302 56 OFFCURVE",
"301 56 CURVE SMOOTH",
"202 56 LINE",
"323 624 LINE",
"422 624 LINE SMOOTH",
"438 624 OFFCURVE",
"453 637 OFFCURVE",
"456 653 CURVE SMOOTH",
"456.597 655.388 OFFCURVE",
"456.882 657.686 OFFCURVE",
"456.882 659.869 CURVE SMOOTH",
"456.882 672.314 OFFCURVE",
"447.612 681 OFFCURVE",
"434 681 CURVE SMOOTH",
"178 681 LINE SMOOTH",
"162 681 OFFCURVE",
"147 669 OFFCURVE",
"143 653 CURVE SMOOTH",
"142.642 651.093 OFFCURVE",
"142.469 649.228 OFFCURVE",
"142.469 647.423 CURVE SMOOTH",
"142.469 634.085 OFFCURVE",
"151.907 624 OFFCURVE",
"166 624 CURVE SMOOTH",
"266 624 LINE",
"145 56 LINE",
"45 56 LINE SMOOTH",
"29 56 OFFCURVE",
"14 44 OFFCURVE",
"10 28 CURVE SMOOTH",
"9.642 26.093 OFFCURVE",
"9.469 24.228 OFFCURVE",
"9.469 22.423 CURVE SMOOTH",
"9.469 9.085 OFFCURVE",
"18.907 -1 OFFCURVE",
"33 -1 CURVE SMOOTH"
);
},
{
closed = 1;
nodes = (
"271 732 OFFCURVE",
"280 736 OFFCURVE",
"288 741 CURVE SMOOTH",
"446 835 LINE SMOOTH",
"454 840 OFFCURVE",
"459 849 OFFCURVE",
"461 858 CURVE SMOOTH",
"461.551 860.755 OFFCURVE",
"461.817 863.435 OFFCURVE",
"461.817 866.007 CURVE SMOOTH",
"461.817 882.105 OFFCURVE",
"451.383 894 OFFCURVE",
"435 894 CURVE SMOOTH",
"424 894 OFFCURVE",
"412 886 OFFCURVE",
"402 879 CURVE SMOOTH",
"254 776 LINE SMOOTH",
"249 772 OFFCURVE",
"246 765 OFFCURVE",
"245 759 CURVE SMOOTH",
"244.61 757.051 OFFCURVE",
"244.423 755.153 OFFCURVE",
"244.423 753.325 CURVE SMOOTH",
"244.423 741.084 OFFCURVE",
"252.819 732 OFFCURVE",
"265 732 CURVE SMOOTH"
);
}
);
userData = {
com.fontlab.hintData = {
hhints = (
{
position = -1;
width = 57;
},
{
position = 624;
width = 57;
}
);
};
};
width = 433;
}
);
unicode = 00CD;
},
{
glyphname = Icircumflex;
lastChange = "2019-10-15 23:54:51 +0000";
layers = (
{
layerId = master01;
paths = (
{
closed = 1;
nodes = (
"289 -1 LINE SMOOTH",
"305 -1 OFFCURVE",
"320 12 OFFCURVE",
"323 28 CURVE SMOOTH",
"323.635 30.539 OFFCURVE",
"323.942 32.977 OFFCURVE",
"323.942 35.283 CURVE SMOOTH",
"323.942 47.506 OFFCURVE",
"315.302 56 OFFCURVE",
"301 56 CURVE SMOOTH",
"202 56 LINE",
"323 624 LINE",
"422 624 LINE SMOOTH",
"438 624 OFFCURVE",
"453 637 OFFCURVE",
"456 653 CURVE SMOOTH",
"456.597 655.388 OFFCURVE",
"456.882 657.686 OFFCURVE",
"456.882 659.869 CURVE SMOOTH",
"456.882 672.314 OFFCURVE",
"447.612 681 OFFCURVE",
"434 681 CURVE SMOOTH",
"178 681 LINE SMOOTH",
"162 681 OFFCURVE",
"147 669 OFFCURVE",
"143 653 CURVE SMOOTH",
"142.642 651.093 OFFCURVE",
"142.469 649.228 OFFCURVE",
"142.469 647.423 CURVE SMOOTH",
"142.469 634.085 OFFCURVE",
"151.907 624 OFFCURVE",
"166 624 CURVE SMOOTH",
"266 624 LINE",
"145 56 LINE",
"45 56 LINE SMOOTH",
"29 56 OFFCURVE",
"14 44 OFFCURVE",
"10 28 CURVE SMOOTH",
"9.642 26.093 OFFCURVE",
"9.469 24.228 OFFCURVE",
"9.469 22.423 CURVE SMOOTH",
"9.469 9.085 OFFCURVE",
"18.907 -1 OFFCURVE",
"33 -1 CURVE SMOOTH"
);
},
{
closed = 1;
nodes = (
"205 731 OFFCURVE",
"211 732 OFFCURVE",
"217 736 CURVE SMOOTH",
"351 825 LINE",
"428 738 LINE SMOOTH",
"432 733 OFFCURVE",
"439 731 OFFCURVE",
"446 731 CURVE SMOOTH",
"460 731 OFFCURVE",
"474 743 OFFCURVE",
"477 757 CURVE SMOOTH",
"479 765 OFFCURVE",
"478 772 OFFCURVE",
"473 777 CURVE",
"386 887 LINE",
"381 892 OFFCURVE",
"375 895 OFFCURVE",
"368 895 CURVE SMOOTH",
"362 895 OFFCURVE",
"354 893 OFFCURVE",
"347 888 CURVE SMOOTH",
"193 778 LINE SMOOTH",
"185 773 OFFCURVE",
"180 765 OFFCURVE",
"178 757 CURVE SMOOTH",
"177.639 755.194 OFFCURVE",
"177.466 753.446 OFFCURVE",
"177.466 751.768 CURVE SMOOTH",
"177.466 739.511 OFFCURVE",
"186.686 731 OFFCURVE",
"199 731 CURVE SMOOTH"
);
}
);
userData = {
com.fontlab.hintData = {
hhints = (
{
position = -1;
width = 57;
},
{
position = 624;
width = 57;
}
);
};
};
width = 433;
}
);
unicode = 00CE;
},
{
glyphname = Idieresis;
lastChange = "2019-10-15 23:54:51 +0000";
layers = (
{
layerId = master01;
paths = (
{
closed = 1;
nodes = (
"289 -1 LINE SMOOTH",
"305 -1 OFFCURVE",
"320 12 OFFCURVE",
"323 28 CURVE SMOOTH",
"323.635 30.539 OFFCURVE",
"323.942 32.977 OFFCURVE",
"323.942 35.283 CURVE SMOOTH",
"323.942 47.506 OFFCURVE",
"315.302 56 OFFCURVE",
"301 56 CURVE SMOOTH",
"202 56 LINE",
"323 624 LINE",
"422 624 LINE SMOOTH",
"438 624 OFFCURVE",
"453 637 OFFCURVE",
"456 653 CURVE SMOOTH",
"456.597 655.388 OFFCURVE",
"456.882 657.686 OFFCURVE",
"456.882 659.869 CURVE SMOOTH",
"456.882 672.314 OFFCURVE",
"447.612 681 OFFCURVE",
"434 681 CURVE SMOOTH",
"178 681 LINE SMOOTH",
"162 681 OFFCURVE",
"147 669 OFFCURVE",
"143 653 CURVE SMOOTH",
"142.642 651.093 OFFCURVE",
"142.469 649.228 OFFCURVE",
"142.469 647.423 CURVE SMOOTH",
"142.469 634.085 OFFCURVE",
"151.907 624 OFFCURVE",
"166 624 CURVE SMOOTH",
"266 624 LINE",
"145 56 LINE",
"45 56 LINE SMOOTH",
"29 56 OFFCURVE",
"14 44 OFFCURVE",
"10 28 CURVE SMOOTH",
"9.642 26.093 OFFCURVE",
"9.469 24.228 OFFCURVE",
"9.469 22.423 CURVE SMOOTH",
"9.469 9.085 OFFCURVE",
"18.907 -1 OFFCURVE",
"33 -1 CURVE SMOOTH"
);
},
{
closed = 1;
nodes = (
"268 733 OFFCURVE",
"295 753 OFFCURVE",
"300 777 CURVE SMOOTH",
"300.377 779.076 OFFCURVE",
"300.559 781.107 OFFCURVE",
"300.559 783.083 CURVE SMOOTH",
"300.559 802.057 OFFCURVE",
"283.83 816 OFFCURVE",
"263 816 CURVE SMOOTH",
"235 816 OFFCURVE",
"207 795 OFFCURVE",
"203 772 CURVE SMOOTH",
"202.383 769.162 OFFCURVE",
"202.086 766.43 OFFCURVE",
"202.086 763.822 CURVE SMOOTH",
"202.086 745.295 OFFCURVE",
"217.085 733 OFFCURVE",
"239 733 CURVE SMOOTH"
);
},
{
closed = 1;
nodes = (
"427 733 OFFCURVE",
"454 753 OFFCURVE",
"459 777 CURVE SMOOTH",
"459.377 779.076 OFFCURVE",
"459.559 781.107 OFFCURVE",
"459.559 783.083 CURVE SMOOTH",
"459.559 802.057 OFFCURVE",
"442.83 816 OFFCURVE",
"422 816 CURVE SMOOTH",
"394 816 OFFCURVE",
"366 795 OFFCURVE",
"362 772 CURVE SMOOTH",
"361.383 769.162 OFFCURVE",
"361.086 766.43 OFFCURVE",
"361.086 763.822 CURVE SMOOTH",
"361.086 745.295 OFFCURVE",
"376.085 733 OFFCURVE",
"398 733 CURVE SMOOTH"
);
}
);
userData = {
com.fontlab.hintData = {
hhints = (
{
position = -1;
width = 57;
},
{
position = 624;
width = 57;
},
{
position = 733;
width = 83;
}
);
vhints = (
{
position = 202;
width = 98;
},
{
position = 361;
width = 98;
}
);
};
};
width = 433;
}
);
unicode = 00CF;
},
{
glyphname = Igrave;
lastChange = "2019-10-15 23:54:51 +0000";
layers = (
{
layerId = master01;
paths = (
{
closed = 1;
nodes = (
"289 -1 LINE SMOOTH",
"305 -1 OFFCURVE",
"320 12 OFFCURVE",
"323 28 CURVE SMOOTH",
"323.635 30.539 OFFCURVE",
"323.942 32.977 OFFCURVE",
"323.942 35.283 CURVE SMOOTH",
"323.942 47.506 OFFCURVE",
"315.302 56 OFFCURVE",
"301 56 CURVE SMOOTH",
"202 56 LINE",
"323 624 LINE",
"422 624 LINE SMOOTH",
"438 624 OFFCURVE",
"453 637 OFFCURVE",
"456 653 CURVE SMOOTH",
"456.597 655.388 OFFCURVE",
"456.882 657.686 OFFCURVE",
"456.882 659.869 CURVE SMOOTH",
"456.882 672.314 OFFCURVE",
"447.612 681 OFFCURVE",
"434 681 CURVE SMOOTH",
"178 681 LINE SMOOTH",
"162 681 OFFCURVE",
"147 669 OFFCURVE",
"143 653 CURVE SMOOTH",
"142.642 651.093 OFFCURVE",
"142.469 649.228 OFFCURVE",
"142.469 647.423 CURVE SMOOTH",
"142.469 634.085 OFFCURVE",
"151.907 624 OFFCURVE",
"166 624 CURVE SMOOTH",
"266 624 LINE",
"145 56 LINE",
"45 56 LINE SMOOTH",
"29 56 OFFCURVE",
"14 44 OFFCURVE",
"10 28 CURVE SMOOTH",
"9.642 26.093 OFFCURVE",
"9.469 24.228 OFFCURVE",
"9.469 22.423 CURVE SMOOTH",
"9.469 9.085 OFFCURVE",
"18.907 -1 OFFCURVE",
"33 -1 CURVE SMOOTH"
);
},
{
closed = 1;
nodes = (
"381 716 OFFCURVE",
"397 727 OFFCURVE",
"400 742 CURVE SMOOTH",
"401 748 OFFCURVE",
"401 753 OFFCURVE",
"397 760 CURVE SMOOTH",
"320 890 LINE",
"314 898 OFFCURVE",
"305 905 OFFCURVE",
"294 905 CURVE SMOOTH",
"276 905 OFFCURVE",
"255 889 OFFCURVE",
"252 871 CURVE SMOOTH",
"250 861 OFFCURVE",
"252 853 OFFCURVE",
"257 846 CURVE SMOOTH",
"350 725 LINE SMOOTH",
"354 720 OFFCURVE",
"359 716 OFFCURVE",
"367 716 CURVE SMOOTH"
);
}
);
userData = {
com.fontlab.hintData = {
hhints = (
{
position = -1;
width = 57;
},
{
position = 624;
width = 57;
}
);
};
};
width = 433;
}
);
unicode = 00CC;
},
{
glyphname = J;
lastChange = "2019-10-15 23:54:51 +0000";
layers = (
{
layerId = master01;
paths = (
{
closed = 1;
nodes = (
"299 0 OFFCURVE",
"362 86 OFFCURVE",
"377 159 CURVE SMOOTH",
"475 620 LINE",
"500 620 LINE SMOOTH",
"515 620 OFFCURVE",
"531 633 OFFCURVE",
"534 649 CURVE",
"534.562 651.109 OFFCURVE",
"534.828 653.178 OFFCURVE",
"534.828 655.177 CURVE SMOOTH",
"534.828 667.398 OFFCURVE",
"524.891 677 OFFCURVE",
"512 677 CURVE SMOOTH",
"307 677 LINE SMOOTH",
"291 677 OFFCURVE",
"276 664 OFFCURVE",
"272 649 CURVE",
"271.642 647.093 OFFCURVE",
"271.469 645.228 OFFCURVE",
"271.469 643.423 CURVE SMOOTH",
"271.469 630.085 OFFCURVE",
"280.907 620 OFFCURVE",
"295 620 CURVE SMOOTH",
"418 620 LINE",
"320 159 LINE SMOOTH",
"314 128 OFFCURVE",
"288 57 OFFCURVE",
"185 57 CURVE SMOOTH",
"99.758 57 OFFCURVE",
"84.716 107.22 OFFCURVE",
"84.716 142.185 CURVE SMOOTH",
"84.716 154.801 OFFCURVE",
"86.674 165.432 OFFCURVE",
"88 171 CURVE SMOOTH",
"88.385 173.055 OFFCURVE",
"88.573 175.06 OFFCURVE",
"88.573 176.995 CURVE SMOOTH",
"88.573 190.125 OFFCURVE",
"79.945 200 OFFCURVE",
"66 200 CURVE SMOOTH",
"48 200 OFFCURVE",
"34 186 OFFCURVE",
"30 169 CURVE SMOOTH",
"28.313 160.356 OFFCURVE",
"26.715 147.844 OFFCURVE",
"26.715 133.48 CURVE SMOOTH",
"26.715 79.716 OFFCURVE",
"49.101 0 OFFCURVE",
"173 0 CURVE SMOOTH"
);
}
);
userData = {
com.fontlab.hintData = {
hhints = (
{
position = 0;
width = 57;
},
{
position = 620;
width = 57;
}
);
vhints = (
{
position = 27;
width = 58;
}
);
};
};
width = 472;
}
);
unicode = 004A;
},
{
glyphname = Jcircumflex;
lastChange = "2019-10-15 23:54:51 +0000";
layers = (
{
layerId = master01;
paths = (
{
closed = 1;
nodes = (
"299 0 OFFCURVE",
"362 86 OFFCURVE",
"377 159 CURVE SMOOTH",
"475 620 LINE",
"500 620 LINE SMOOTH",
"515 620 OFFCURVE",
"531 633 OFFCURVE",
"534 649 CURVE SMOOTH",
"534.562 651.109 OFFCURVE",
"534.828 653.178 OFFCURVE",
"534.828 655.177 CURVE SMOOTH",
"534.828 667.398 OFFCURVE",
"524.891 677 OFFCURVE",
"512 677 CURVE SMOOTH",
"307 677 LINE SMOOTH",
"291 677 OFFCURVE",
"276 664 OFFCURVE",
"272 649 CURVE SMOOTH",
"271.642 647.093 OFFCURVE",
"271.469 645.228 OFFCURVE",
"271.469 643.423 CURVE SMOOTH",
"271.469 630.085 OFFCURVE",
"280.907 620 OFFCURVE",
"295 620 CURVE SMOOTH",
"418 620 LINE",
"320 159 LINE SMOOTH",
"314 128 OFFCURVE",
"288 57 OFFCURVE",
"185 57 CURVE SMOOTH",
"99.758 57 OFFCURVE",
"84.716 107.22 OFFCURVE",
"84.716 142.185 CURVE SMOOTH",
"84.716 154.801 OFFCURVE",
"86.674 165.432 OFFCURVE",
"88 171 CURVE SMOOTH",
"88.385 173.055 OFFCURVE",
"88.573 175.06 OFFCURVE",
"88.573 176.995 CURVE SMOOTH",
"88.573 190.125 OFFCURVE",
"79.945 200 OFFCURVE",
"66 200 CURVE SMOOTH",
"48 200 OFFCURVE",
"34 186 OFFCURVE",
"30 169 CURVE SMOOTH",
"28.313 160.356 OFFCURVE",
"26.715 147.844 OFFCURVE",
"26.715 133.48 CURVE SMOOTH",
"26.715 79.716 OFFCURVE",
"49.101 0 OFFCURVE",
"173 0 CURVE SMOOTH"
);
},
{
closed = 1;
nodes = (
"318 731 OFFCURVE",
"324 732 OFFCURVE",
"330 736 CURVE SMOOTH",
"464 825 LINE",
"541 738 LINE SMOOTH",
"545 733 OFFCURVE",
"552 731 OFFCURVE",
"559 731 CURVE SMOOTH",
"573 731 OFFCURVE",
"587 743 OFFCURVE",
"590 757 CURVE SMOOTH",
"592 765 OFFCURVE",
"591 772 OFFCURVE",
"586 777 CURVE SMOOTH",
"499 887 LINE SMOOTH",
"494 892 OFFCURVE",
"488 895 OFFCURVE",
"481 895 CURVE SMOOTH",
"475 895 OFFCURVE",
"467 893 OFFCURVE",
"460 888 CURVE SMOOTH",
"306 778 LINE SMOOTH",
"298 773 OFFCURVE",
"293 765 OFFCURVE",
"291 757 CURVE SMOOTH",
"290.639 755.194 OFFCURVE",
"290.466 753.446 OFFCURVE",
"290.466 751.768 CURVE SMOOTH",
"290.466 739.511 OFFCURVE",
"299.686 731 OFFCURVE",
"312 731 CURVE SMOOTH"
);
}
);
userData = {
com.fontlab.hintData = {
hhints = (
{
position = 0;
width = 57;
},
{
position = 620;
width = 57;
}
);
vhints = (
{
position = 27;
width = 58;
}
);
};
};
width = 472;
}
);
unicode = 0134;
},
{
glyphname = K;
lastChange = "2019-10-15 23:54:51 +0000";
layers = (
{
layerId = master01;
paths = (
{
closed = 1;
nodes = (
"451 -1 OFFCURVE",
"466 11 OFFCURVE",
"469 27 CURVE SMOOTH",
"471 35 OFFCURVE",
"470 42 OFFCURVE",
"464 49 CURVE",
"157 335 LINE",
"569 633 LINE SMOOTH",
"576.263 638.188 OFFCURVE",
"583.255 647.333 OFFCURVE",
"583.255 657.594 CURVE SMOOTH",
"583.255 670.299 OFFCURVE",
"573.799 682 OFFCURVE",
"561 682 CURVE SMOOTH",
"554 682 OFFCURVE",
"548 679 OFFCURVE",
"542 675 CURVE SMOOTH",
"147 389 LINE",
"204 654 LINE SMOOTH",
"207 669 OFFCURVE",
"196 681 OFFCURVE",
"181 681 CURVE SMOOTH",
"166 681 OFFCURVE",
"152 669 OFFCURVE",
"149 654 CURVE SMOOTH",
"15 28 LINE SMOOTH",
"14.641 26.203 OFFCURVE",
"14.468 24.435 OFFCURVE",
"14.468 22.714 CURVE SMOOTH",
"14.468 10.072 OFFCURVE",
"23.797 0 OFFCURVE",
"37 0 CURVE SMOOTH",
"52 0 OFFCURVE",
"67 13 OFFCURVE",
"70 28 CURVE SMOOTH",
"124 282 LINE",
"421 5 LINE SMOOTH",
"425 1 OFFCURVE",
"430 -1 OFFCURVE",
"436 -1 CURVE SMOOTH"
);
}
);
userData = {
com.fontlab.hintData = {
hhints = (
{
position = 0;
width = 20;
},
{
position = 661;
width = 20;
}
);
};
};
width = 570;
}
);
unicode = 004B;
},
{
glyphname = L;
lastChange = "2019-10-15 23:54:51 +0000";
layers = (
{
layerId = master01;
paths = (
{
closed = 1;
nodes = (
"37.922 -0.051 OFFCURVE",
"38.458 -0.034 OFFCURVE",
"39 0 CURVE SMOOTH",
"390 24 LINE SMOOTH",
"405 25 OFFCURVE",
"419 38 OFFCURVE",
"422 52 CURVE SMOOTH",
"422.356 54.135 OFFCURVE",
"422.529 56.172 OFFCURVE",
"422.529 58.102 CURVE SMOOTH",
"422.529 71.757 OFFCURVE",
"413.872 80.063 OFFCURVE",
"400.106 80.063 CURVE SMOOTH",
"399.417 80.063 OFFCURVE",
"398.715 80.042 OFFCURVE",
"398 80 CURVE SMOOTH",
"78 58 LINE",
"204 653 LINE SMOOTH",
"204.359 654.797 OFFCURVE",
"204.532 656.565 OFFCURVE",
"204.532 658.286 CURVE SMOOTH",
"204.532 670.928 OFFCURVE",
"195.203 681 OFFCURVE",
"182 681 CURVE SMOOTH",
"166 681 OFFCURVE",
"151 668 OFFCURVE",
"148 653 CURVE SMOOTH",
"15 28 LINE SMOOTH",
"12.102 13.508 OFFCURVE",
"22.271 -0.051 OFFCURVE",
"37.392 -0.051 CURVE SMOOTH"
);
}
);
userData = {
com.fontlab.hintData = {
hhints = (
{
position = 0;
width = 21;
},
{
position = 661;
width = 20;
}
);
};
};
width = 477;
}
);
unicode = 004C;
},
{
glyphname = Lacute;
lastChange = "2019-10-15 23:54:51 +0000";
layers = (
{
layerId = master01;
paths = (
{
closed = 1;
nodes = (
"37.922 -0.051 OFFCURVE",
"38.458 -0.034 OFFCURVE",
"39 0 CURVE SMOOTH",
"390 24 LINE SMOOTH",
"405 25 OFFCURVE",
"419 38 OFFCURVE",
"422 52 CURVE SMOOTH",
"422.356 54.135 OFFCURVE",
"422.529 56.172 OFFCURVE",
"422.529 58.102 CURVE SMOOTH",
"422.529 71.757 OFFCURVE",
"413.872 80.063 OFFCURVE",
"400.106 80.063 CURVE SMOOTH",
"399.417 80.063 OFFCURVE",
"398.715 80.042 OFFCURVE",
"398 80 CURVE SMOOTH",
"78 58 LINE",
"204 653 LINE SMOOTH",
"204.359 654.797 OFFCURVE",
"204.532 656.565 OFFCURVE",
"204.532 658.286 CURVE SMOOTH",
"204.532 670.928 OFFCURVE",
"195.203 681 OFFCURVE",
"182 681 CURVE SMOOTH",
"166 681 OFFCURVE",
"151 668 OFFCURVE",
"148 653 CURVE SMOOTH",
"15 28 LINE SMOOTH",
"12.102 13.508 OFFCURVE",
"22.271 -0.051 OFFCURVE",
"37.392 -0.051 CURVE SMOOTH"
);
},
{
closed = 1;
nodes = (
"284 750 OFFCURVE",
"293 754 OFFCURVE",
"301 759 CURVE SMOOTH",
"459 853 LINE SMOOTH",
"467 858 OFFCURVE",
"472 867 OFFCURVE",
"474 876 CURVE SMOOTH",
"474.519 878.595 OFFCURVE",
"474.769 881.122 OFFCURVE",
"474.769 883.556 CURVE SMOOTH",
"474.769 899.882 OFFCURVE",
"463.535 912 OFFCURVE",
"447 912 CURVE SMOOTH",
"436 912 OFFCURVE",
"425 904 OFFCURVE",
"415 897 CURVE SMOOTH",
"267 794 LINE SMOOTH",
"261 790 OFFCURVE",
"259 783 OFFCURVE",
"258 777 CURVE SMOOTH",
"257.396 774.735 OFFCURVE",
"257.111 772.538 OFFCURVE",
"257.111 770.441 CURVE SMOOTH",
"257.111 758.65 OFFCURVE",
"266.114 750 OFFCURVE",
"278 750 CURVE SMOOTH"
);
}
);
userData = {
com.fontlab.hintData = {
hhints = (
{
position = 0;
width = 21;
},
{
position = 661;
width = 20;
}
);
};
};
width = 477;
}
);
unicode = 0139;
},
{
glyphname = Lcaron;
lastChange = "2019-10-15 23:54:51 +0000";
layers = (
{
layerId = master01;
paths = (
{
closed = 1;
nodes = (
"37.922 -0.051 OFFCURVE",
"38.458 -0.034 OFFCURVE",
"39 0 CURVE SMOOTH",
"390 24 LINE SMOOTH",
"405 25 OFFCURVE",
"419 38 OFFCURVE",
"422 52 CURVE SMOOTH",
"422.356 54.135 OFFCURVE",
"422.529 56.172 OFFCURVE",
"422.529 58.102 CURVE SMOOTH",
"422.529 71.757 OFFCURVE",
"413.872 80.063 OFFCURVE",
"400.106 80.063 CURVE SMOOTH",
"399.417 80.063 OFFCURVE",
"398.715 80.042 OFFCURVE",
"398 80 CURVE SMOOTH",
"78 58 LINE",
"204 653 LINE SMOOTH",
"204.359 654.797 OFFCURVE",
"204.532 656.565 OFFCURVE",
"204.532 658.286 CURVE SMOOTH",
"204.532 670.928 OFFCURVE",
"195.203 681 OFFCURVE",
"182 681 CURVE SMOOTH",
"166 681 OFFCURVE",
"151 668 OFFCURVE",
"148 653 CURVE SMOOTH",
"15 28 LINE SMOOTH",
"12.102 13.508 OFFCURVE",
"22.271 -0.051 OFFCURVE",
"37.392 -0.051 CURVE SMOOTH"
);
},
{
closed = 1;
nodes = (
"253 722 OFFCURVE",
"260 724 OFFCURVE",
"267 729 CURVE SMOOTH",
"422 839 LINE SMOOTH",
"430 844 OFFCURVE",
"435 852 OFFCURVE",
"436 860 CURVE SMOOTH",
"436.39 861.949 OFFCURVE",
"436.577 863.83 OFFCURVE",
"436.577 865.629 CURVE SMOOTH",
"436.577 877.673 OFFCURVE",
"428.181 886 OFFCURVE",
"416 886 CURVE SMOOTH",
"410 886 OFFCURVE",
"404 885 OFFCURVE",
"398 881 CURVE SMOOTH",
"264 792 LINE",
"186 879 LINE SMOOTH",
"182 884 OFFCURVE",
"176 886 OFFCURVE",
"169 886 CURVE SMOOTH",
"155 886 OFFCURVE",
"140 874 OFFCURVE",
"137 860 CURVE SMOOTH",
"136 852 OFFCURVE",
"137 845 OFFCURVE",
"142 840 CURVE",
"229 730 LINE",
"234 725 OFFCURVE",
"240 722 OFFCURVE",
"247 722 CURVE SMOOTH"
);
}
);
userData = {
com.fontlab.hintData = {
hhints = (
{
position = 0;
width = 21;
},
{
position = 661;
width = 20;
}
);
};
};
width = 477;
}
);
unicode = 013D;
},
{
glyphname = Lslash;
lastChange = "2019-10-15 23:54:51 +0000";
layers = (
{
layerId = master01;
paths = (
{
closed = 1;
nodes = (
"87.923 -0.051 OFFCURVE",
"88.458 -0.034 OFFCURVE",
"89 0 CURVE SMOOTH",
"441 24 LINE SMOOTH",
"458 25 OFFCURVE",
"470 39 OFFCURVE",
"473 54 CURVE SMOOTH",
"473.333 55.889 OFFCURVE",
"473.494 57.691 OFFCURVE",
"473.494 59.402 CURVE SMOOTH",
"473.494 72.381 OFFCURVE",
"464.254 80.069 OFFCURVE",
"451.168 80.069 CURVE SMOOTH",
"450.456 80.069 OFFCURVE",
"449.733 80.046 OFFCURVE",
"449 80 CURVE SMOOTH",
"129 58 LINE",
"187 330 LINE",
"285 385 LINE SMOOTH",
"294 390 OFFCURVE",
"301 399 OFFCURVE",
"303 408 CURVE SMOOTH",
"303.528 410.245 OFFCURVE",
"303.778 412.404 OFFCURVE",
"303.778 414.459 CURVE SMOOTH",
"303.778 427.961 OFFCURVE",
"293.019 437 OFFCURVE",
"280 437 CURVE SMOOTH",
"275 437 OFFCURVE",
"269 436 OFFCURVE",
"265 433 CURVE SMOOTH",
"201 397 LINE",
"255 653 LINE SMOOTH",
"255.359 654.797 OFFCURVE",
"255.532 656.565 OFFCURVE",
"255.532 658.286 CURVE SMOOTH",
"255.532 670.928 OFFCURVE",
"246.203 681 OFFCURVE",
"233 681 CURVE SMOOTH",
"217 681 OFFCURVE",
"202 668 OFFCURVE",
"199 653 CURVE SMOOTH",
"137 362 LINE",
"40 307 LINE SMOOTH",
"29 301 OFFCURVE",
"24 292 OFFCURVE",
"21 282 CURVE",
"20.704 280.225 OFFCURVE",
"20.564 278.537 OFFCURVE",
"20.564 276.938 CURVE SMOOTH",
"20.564 262.312 OFFCURVE",
"32.282 255 OFFCURVE",
"44 255 CURVE SMOOTH",
"50 255 OFFCURVE",
"55 256 OFFCURVE",
"61 259 CURVE SMOOTH",
"123 295 LINE",
"66 28 LINE SMOOTH",
"65.642 26.212 OFFCURVE",
"65.469 24.438 OFFCURVE",
"65.469 22.702 CURVE SMOOTH",
"65.469 10.368 OFFCURVE",
"74.195 -0.051 OFFCURVE",
"87.395 -0.051 CURVE SMOOTH"
);
}
);
userData = {
com.fontlab.hintData = {
hhints = (
{
position = 0;
width = 21;
},
{
position = 661;
width = 20;
}
);
};
};
width = 528;
}
);
unicode = 0141;
},
{
glyphname = M;
lastChange = "2019-10-15 23:54:51 +0000";
layers = (
{
layerId = master01;
paths = (
{
closed = 1;
nodes = (
"35 0 OFFCURVE",
"48 8 OFFCURVE",
"54 22 CURVE SMOOTH",
"280 545 LINE",
"336 19 LINE",
"336 8 OFFCURVE",
"346 0 OFFCURVE",
"358 0 CURVE SMOOTH",
"370 0 OFFCURVE",
"382 7 OFFCURVE",
"388 18 CURVE SMOOTH",
"695 553 LINE",
"700 22 LINE SMOOTH",
"700 9 OFFCURVE",
"709 0 OFFCURVE",
"724 0 CURVE SMOOTH",
"740 0 OFFCURVE",
"753 12 OFFCURVE",
"756 24 CURVE SMOOTH",
"757 31 OFFCURVE",
"758 40 OFFCURVE",
"758 52 CURVE SMOOTH",
"751 659 LINE",
"750 672 OFFCURVE",
"743 680 OFFCURVE",
"730 681 CURVE SMOOTH",
"717 681 OFFCURVE",
"705 675 OFFCURVE",
"698 663 CURVE SMOOTH",
"384 115 LINE",
"327 662 LINE SMOOTH",
"326 673 OFFCURVE",
"317 681 OFFCURVE",
"305 681 CURVE SMOOTH",
"291 681 OFFCURVE",
"279 673 OFFCURVE",
"273 659 CURVE SMOOTH",
"9 49 LINE SMOOTH",
"4.226 39.451 OFFCURVE",
"-0.368 29.226 OFFCURVE",
"-0.368 21.175 CURVE SMOOTH",
"-0.368 11.581 OFFCURVE",
"6.184 0 OFFCURVE",
"22 0 CURVE SMOOTH"
);
}
);
userData = {
com.fontlab.hintData = {
hhints = (
{
position = 0;
width = 21;
},
{
position = 661;
width = 20;
}
);
vhints = (
{
position = 695;
width = 56;
},
{
position = 700;
width = 56;
}
);
};
};
width = 857;
}
);
unicode = 004D;
},
{
glyphname = N;
lastChange = "2019-10-15 23:54:51 +0000";
layers = (
{
layerId = master01;
paths = (
{
closed = 1;
nodes = (
"54 0 OFFCURVE",
"68 12 OFFCURVE",
"71 28 CURVE SMOOTH",
"186 563 LINE",
"450 12 LINE",
"453 4 OFFCURVE",
"462 0 OFFCURVE",
"471 0 CURVE SMOOTH",
"487 0 OFFCURVE",
"501 13 OFFCURVE",
"504 28 CURVE SMOOTH",
"638 654 LINE SMOOTH",
"641 669 OFFCURVE",
"630 682 OFFCURVE",
"615 682 CURVE SMOOTH",
"599 682 OFFCURVE",
"585 669 OFFCURVE",
"582 654 CURVE SMOOTH",
"467 117 LINE",
"204 669 LINE",
"199 677 OFFCURVE",
"191 681 OFFCURVE",
"182 681 CURVE SMOOTH",
"166 681 OFFCURVE",
"152 667 OFFCURVE",
"149 653 CURVE SMOOTH",
"15 28 LINE SMOOTH",
"12 13 OFFCURVE",
"23 0 OFFCURVE",
"38 0 CURVE SMOOTH"
);
}
);
userData = {
com.fontlab.hintData = {
hhints = (
{
position = 0;
width = 21;
},
{
position = 661;
width = 20;
}
);
};
};
width = 619;
}
);
unicode = 004E;
},
{
glyphname = Nacute;
lastChange = "2019-10-15 23:54:51 +0000";
layers = (
{
layerId = master01;
paths = (
{
closed = 1;
nodes = (
"54 0 OFFCURVE",
"68 12 OFFCURVE",
"71 28 CURVE SMOOTH",
"186 563 LINE",
"450 12 LINE",
"453 4 OFFCURVE",
"462 0 OFFCURVE",
"471 0 CURVE SMOOTH",
"487 0 OFFCURVE",
"501 13 OFFCURVE",
"504 28 CURVE SMOOTH",
"638 654 LINE SMOOTH",
"641 669 OFFCURVE",
"630 682 OFFCURVE",
"615 682 CURVE SMOOTH",
"599 682 OFFCURVE",
"585 669 OFFCURVE",
"582 654 CURVE SMOOTH",
"467 117 LINE",
"204 669 LINE",
"199 677 OFFCURVE",
"191 681 OFFCURVE",
"182 681 CURVE SMOOTH",
"166 681 OFFCURVE",
"152 667 OFFCURVE",
"149 653 CURVE SMOOTH",
"15 28 LINE SMOOTH",
"12 13 OFFCURVE",
"23 0 OFFCURVE",
"38 0 CURVE SMOOTH"
);
},
{
closed = 1;
nodes = (
"372 766 OFFCURVE",
"381 770 OFFCURVE",
"389 775 CURVE SMOOTH",
"547 869 LINE SMOOTH",
"555 874 OFFCURVE",
"560 883 OFFCURVE",
"562 892 CURVE SMOOTH",
"562.551 894.755 OFFCURVE",
"562.817 897.435 OFFCURVE",
"562.817 900.007 CURVE SMOOTH",
"562.817 916.105 OFFCURVE",
"552.383 928 OFFCURVE",
"536 928 CURVE SMOOTH",
"525 928 OFFCURVE",
"513 920 OFFCURVE",
"504 913 CURVE SMOOTH",
"356 810 LINE SMOOTH",
"350 806 OFFCURVE",
"347 799 OFFCURVE",
"346 793 CURVE SMOOTH",
"345.61 791.051 OFFCURVE",
"345.423 789.153 OFFCURVE",
"345.423 787.325 CURVE SMOOTH",
"345.423 775.084 OFFCURVE",
"353.819 766 OFFCURVE",
"366 766 CURVE SMOOTH"
);
}
);
userData = {
com.fontlab.hintData = {
hhints = (
{
position = 0;
width = 21;
},
{
position = 661;
width = 20;
}
);
};
};
width = 619;
}
);
unicode = 0143;
},
{
glyphname = Ncaron;
lastChange = "2019-10-15 23:54:51 +0000";
layers = (
{
layerId = master01;
paths = (
{
closed = 1;
nodes = (
"54 0 OFFCURVE",
"68 12 OFFCURVE",
"71 28 CURVE SMOOTH",
"186 563 LINE",
"450 12 LINE",
"453 4 OFFCURVE",
"462 0 OFFCURVE",
"471 0 CURVE SMOOTH",
"487 0 OFFCURVE",
"501 13 OFFCURVE",
"504 28 CURVE SMOOTH",
"638 654 LINE SMOOTH",
"641 669 OFFCURVE",
"630 682 OFFCURVE",
"615 682 CURVE SMOOTH",
"599 682 OFFCURVE",
"585 669 OFFCURVE",
"582 654 CURVE SMOOTH",
"467 117 LINE",
"204 669 LINE",
"199 677 OFFCURVE",
"191 681 OFFCURVE",
"182 681 CURVE SMOOTH",
"166 681 OFFCURVE",
"152 667 OFFCURVE",
"149 653 CURVE SMOOTH",
"15 28 LINE SMOOTH",
"12 13 OFFCURVE",
"23 0 OFFCURVE",
"38 0 CURVE SMOOTH"
);
},
{
closed = 1;
nodes = (
"412 722 OFFCURVE",
"419 724 OFFCURVE",
"426 729 CURVE SMOOTH",
"581 839 LINE SMOOTH",
"589 844 OFFCURVE",
"594 852 OFFCURVE",
"595 860 CURVE SMOOTH",
"595.39 861.949 OFFCURVE",
"595.577 863.83 OFFCURVE",
"595.577 865.629 CURVE SMOOTH",
"595.577 877.673 OFFCURVE",
"587.181 886 OFFCURVE",
"575 886 CURVE SMOOTH",
"569 886 OFFCURVE",
"563 885 OFFCURVE",
"557 881 CURVE SMOOTH",
"423 792 LINE",
"345 879 LINE SMOOTH",
"341 884 OFFCURVE",
"335 886 OFFCURVE",
"328 886 CURVE SMOOTH",
"314 886 OFFCURVE",
"299 874 OFFCURVE",
"296 860 CURVE SMOOTH",
"295 852 OFFCURVE",
"296 845 OFFCURVE",
"301 840 CURVE",
"388 730 LINE",
"393 725 OFFCURVE",
"399 722 OFFCURVE",
"406 722 CURVE SMOOTH"
);
}
);
userData = {
com.fontlab.hintData = {
hhints = (
{
position = 0;
width = 21;
},
{
position = 661;
width = 20;
}
);
};
};
width = 619;
}
);
unicode = 0147;
},
{
glyphname = Ntilde;
lastChange = "2019-10-15 23:54:51 +0000";
layers = (
{
layerId = master01;
paths = (
{
closed = 1;
nodes = (
"54 0 OFFCURVE",
"68 12 OFFCURVE",
"71 28 CURVE SMOOTH",
"186 563 LINE",
"450 12 LINE",
"453 4 OFFCURVE",
"462 0 OFFCURVE",
"471 0 CURVE SMOOTH",
"487 0 OFFCURVE",
"501 13 OFFCURVE",
"504 28 CURVE SMOOTH",
"638 654 LINE SMOOTH",
"641 669 OFFCURVE",
"630 682 OFFCURVE",
"615 682 CURVE SMOOTH",
"599 682 OFFCURVE",
"585 669 OFFCURVE",
"582 654 CURVE SMOOTH",
"467 117 LINE",
"204 669 LINE",
"199 677 OFFCURVE",
"191 681 OFFCURVE",
"182 681 CURVE SMOOTH",
"166 681 OFFCURVE",
"152 667 OFFCURVE",
"149 653 CURVE SMOOTH",
"15 28 LINE SMOOTH",
"12 13 OFFCURVE",
"23 0 OFFCURVE",
"38 0 CURVE SMOOTH"
);
},
{
closed = 1;
nodes = (
"547 713 OFFCURVE",
"593 781 OFFCURVE",
"610 812 CURVE SMOOTH",
"613 818 OFFCURVE",
"615 821 OFFCURVE",
"616 826 CURVE SMOOTH",
"616.361 827.565 OFFCURVE",
"616.534 829.101 OFFCURVE",
"616.534 830.593 CURVE SMOOTH",
"616.534 841.489 OFFCURVE",
"607.314 850 OFFCURVE",
"595 850 CURVE SMOOTH",
"585 850 OFFCURVE",
"574 843 OFFCURVE",
"568 833 CURVE SMOOTH",
"550 804 OFFCURVE",
"521 755 OFFCURVE",
"491 755 CURVE SMOOTH",
"474 755 OFFCURVE",
"468 777 OFFCURVE",
"454 803 CURVE SMOOTH",
"440 830 OFFCURVE",
"423 863 OFFCURVE",
"378 863 CURVE SMOOTH",
"341 863 OFFCURVE",
"305 842 OFFCURVE",
"275 804 CURVE SMOOTH",
"267 793 OFFCURVE",
"253 776 OFFCURVE",
"250 761 CURVE SMOOTH",
"249.639 759.314 OFFCURVE",
"249.466 757.672 OFFCURVE",
"249.466 756.088 CURVE SMOOTH",
"249.466 744.511 OFFCURVE",
"258.686 736 OFFCURVE",
"271 736 CURVE SMOOTH",
"283 736 OFFCURVE",
"293 742 OFFCURVE",
"300 755 CURVE SMOOTH",
"326 804 OFFCURVE",
"356 821 OFFCURVE",
"369 821 CURVE SMOOTH",
"386 821 OFFCURVE",
"392 799 OFFCURVE",
"406 773 CURVE SMOOTH",
"420 745 OFFCURVE",
"437 713 OFFCURVE",
"482 713 CURVE SMOOTH"
);
}
);
userData = {
com.fontlab.hintData = {
hhints = (
{
position = 0;
width = 21;
},
{
position = 661;
width = 20;
},
{
position = 713;
width = 42;
},
{
position = 821;
width = 42;
}
);
};
};
width = 619;
}
);
unicode = 00D1;
},
{
glyphname = O;
lastChange = "2019-10-15 23:49:58 +0000";
layers = (
{
layerId = master01;
paths = (
{
closed = 1;
nodes = (
"409 -2 OFFCURVE",
"580 167 OFFCURVE",
"623 367 CURVE SMOOTH",
"629.029 395.805 OFFCURVE",
"631.945 423.796 OFFCURVE",
"631.945 450.438 CURVE SMOOTH",
"631.945 582.885 OFFCURVE",
"559.885 682 OFFCURVE",
"440 682 CURVE SMOOTH",
"284 682 OFFCURVE",
"114 513 OFFCURVE",
"71 313 CURVE SMOOTH",
"64.878 284.092 OFFCURVE",
"61.908 255.907 OFFCURVE",
"61.908 229.036 CURVE SMOOTH",
"61.908 97.88 OFFCURVE",
"132.657 -2 OFFCURVE",
"253 -2 CURVE SMOOTH"
);
},
{
closed = 1;
nodes = (
"170.744 50 OFFCURVE",
"115.632 129.632 OFFCURVE",
"115.632 237.439 CURVE SMOOTH",
"115.632 261.421 OFFCURVE",
"118.359 286.797 OFFCURVE",
"124 313 CURVE SMOOTH",
"161 489 OFFCURVE",
"299 630 OFFCURVE",
"422 630 CURVE SMOOTH",
"520.735 630 OFFCURVE",
"576.1 539.129 OFFCURVE",
"576.1 431.07 CURVE SMOOTH",
"576.1 408.892 OFFCURVE",
"573.768 385.989 OFFCURVE",
"569 363 CURVE SMOOTH",
"533 193 OFFCURVE",
"387 50 OFFCURVE",
"264 50 CURVE SMOOTH"
);
}
);
userData = {
com.fontlab.hintData = {
hhints = (
{
position = -2;
width = 52;
},
{
position = 630;
width = 52;
}
);
vhints = (
{
position = 62;
width = 54;
},
{
position = 576;
width = 56;
}
);
};
};
width = 660;
}
);
unicode = 004F;
},
{
glyphname = Oacute;
lastChange = "2019-10-15 23:54:51 +0000";
layers = (
{
layerId = master01;
paths = (
{
closed = 1;
nodes = (
"409 -2 OFFCURVE",
"580 167 OFFCURVE",
"623 367 CURVE SMOOTH",
"629.029 395.805 OFFCURVE",
"631.945 423.796 OFFCURVE",
"631.945 450.438 CURVE SMOOTH",
"631.945 582.885 OFFCURVE",
"559.885 682 OFFCURVE",
"440 682 CURVE SMOOTH",
"284 682 OFFCURVE",
"114 513 OFFCURVE",
"71 313 CURVE SMOOTH",
"64.878 284.092 OFFCURVE",
"61.908 255.907 OFFCURVE",
"61.908 229.036 CURVE SMOOTH",
"61.908 97.88 OFFCURVE",
"132.657 -2 OFFCURVE",
"253 -2 CURVE SMOOTH"
);
},
{
closed = 1;
nodes = (
"170.744 50 OFFCURVE",
"115.632 129.632 OFFCURVE",
"115.632 237.439 CURVE SMOOTH",
"115.632 261.421 OFFCURVE",
"118.359 286.797 OFFCURVE",
"124 313 CURVE SMOOTH",
"161 489 OFFCURVE",
"299 630 OFFCURVE",
"422 630 CURVE SMOOTH",
"520.735 630 OFFCURVE",
"576.1 539.129 OFFCURVE",
"576.1 431.07 CURVE SMOOTH",
"576.1 408.892 OFFCURVE",
"573.768 385.989 OFFCURVE",
"569 363 CURVE SMOOTH",
"533 193 OFFCURVE",
"387 50 OFFCURVE",
"264 50 CURVE SMOOTH"
);
},
{
closed = 1;
nodes = (
"402 732 OFFCURVE",
"411 736 OFFCURVE",
"419 741 CURVE SMOOTH",
"577 835 LINE SMOOTH",
"585 840 OFFCURVE",
"590 849 OFFCURVE",
"592 858 CURVE SMOOTH",
"592.551 860.755 OFFCURVE",
"592.817 863.435 OFFCURVE",
"592.817 866.007 CURVE SMOOTH",
"592.817 882.105 OFFCURVE",
"582.383 894 OFFCURVE",
"566 894 CURVE SMOOTH",
"555 894 OFFCURVE",
"543 886 OFFCURVE",
"533 879 CURVE SMOOTH",
"385 776 LINE SMOOTH",
"380 772 OFFCURVE",
"377 765 OFFCURVE",
"376 759 CURVE SMOOTH",
"375.61 757.051 OFFCURVE",
"375.423 755.153 OFFCURVE",
"375.423 753.325 CURVE SMOOTH",
"375.423 741.084 OFFCURVE",
"383.819 732 OFFCURVE",
"396 732 CURVE SMOOTH"
);
}
);
userData = {
com.fontlab.hintData = {
hhints = (
{
position = -2;
width = 52;
},
{
position = 630;
width = 52;
}
);
vhints = (
{
position = 62;
width = 54;
},
{
position = 576;
width = 56;
}
);
};
};
width = 660;
}
);
unicode = 00D3;
},
{
glyphname = Ocircumflex;
lastChange = "2019-10-15 23:54:51 +0000";
layers = (
{
layerId = master01;
paths = (
{
closed = 1;
nodes = (
"409 -2 OFFCURVE",
"580 167 OFFCURVE",
"623 367 CURVE SMOOTH",
"629.029 395.805 OFFCURVE",
"631.945 423.796 OFFCURVE",
"631.945 450.438 CURVE SMOOTH",
"631.945 582.885 OFFCURVE",
"559.885 682 OFFCURVE",
"440 682 CURVE SMOOTH",
"284 682 OFFCURVE",
"114 513 OFFCURVE",
"71 313 CURVE SMOOTH",
"64.878 284.092 OFFCURVE",
"61.908 255.907 OFFCURVE",
"61.908 229.036 CURVE SMOOTH",
"61.908 97.88 OFFCURVE",
"132.657 -2 OFFCURVE",
"253 -2 CURVE SMOOTH"
);
},
{
closed = 1;
nodes = (
"170.744 50 OFFCURVE",
"115.632 129.632 OFFCURVE",
"115.632 237.439 CURVE SMOOTH",
"115.632 261.421 OFFCURVE",
"118.359 286.797 OFFCURVE",
"124 313 CURVE SMOOTH",
"161 489 OFFCURVE",
"299 630 OFFCURVE",
"422 630 CURVE SMOOTH",
"520.735 630 OFFCURVE",
"576.1 539.129 OFFCURVE",
"576.1 431.07 CURVE SMOOTH",
"576.1 408.892 OFFCURVE",
"573.768 385.989 OFFCURVE",
"569 363 CURVE SMOOTH",
"533 193 OFFCURVE",
"387 50 OFFCURVE",
"264 50 CURVE SMOOTH"
);
},
{
closed = 1;
nodes = (
"341 731 OFFCURVE",
"347 732 OFFCURVE",
"353 736 CURVE SMOOTH",
"487 825 LINE",
"564 738 LINE SMOOTH",
"568 733 OFFCURVE",
"575 731 OFFCURVE",
"582 731 CURVE SMOOTH",
"596 731 OFFCURVE",
"610 743 OFFCURVE",
"613 757 CURVE SMOOTH",
"615 765 OFFCURVE",
"614 772 OFFCURVE",
"609 777 CURVE",
"522 887 LINE",
"517 892 OFFCURVE",
"511 895 OFFCURVE",
"504 895 CURVE SMOOTH",
"498 895 OFFCURVE",
"490 893 OFFCURVE",
"483 888 CURVE SMOOTH",
"329 778 LINE SMOOTH",
"321 773 OFFCURVE",
"316 765 OFFCURVE",
"314 757 CURVE SMOOTH",
"313.639 755.194 OFFCURVE",
"313.466 753.446 OFFCURVE",
"313.466 751.768 CURVE SMOOTH",
"313.466 739.511 OFFCURVE",
"322.686 731 OFFCURVE",
"335 731 CURVE SMOOTH"
);
}
);
userData = {
com.fontlab.hintData = {
hhints = (
{
position = -2;
width = 52;
},
{
position = 630;
width = 52;
}
);
vhints = (
{
position = 62;
width = 54;
},
{
position = 576;
width = 56;
}
);
};
};
width = 660;
}
);
unicode = 00D4;
},
{
glyphname = Odieresis;
lastChange = "2019-10-15 23:54:51 +0000";
layers = (
{
layerId = master01;
paths = (
{
closed = 1;
nodes = (
"409 -2 OFFCURVE",
"580 167 OFFCURVE",
"623 367 CURVE SMOOTH",
"629.029 395.805 OFFCURVE",
"631.945 423.796 OFFCURVE",
"631.945 450.438 CURVE SMOOTH",
"631.945 582.885 OFFCURVE",
"559.885 682 OFFCURVE",
"440 682 CURVE SMOOTH",
"284 682 OFFCURVE",
"114 513 OFFCURVE",
"71 313 CURVE SMOOTH",
"64.878 284.092 OFFCURVE",
"61.908 255.907 OFFCURVE",
"61.908 229.036 CURVE SMOOTH",
"61.908 97.88 OFFCURVE",
"132.657 -2 OFFCURVE",
"253 -2 CURVE SMOOTH"
);
},
{
closed = 1;
nodes = (
"170.744 50 OFFCURVE",
"115.632 129.632 OFFCURVE",
"115.632 237.439 CURVE SMOOTH",
"115.632 261.421 OFFCURVE",
"118.359 286.797 OFFCURVE",
"124 313 CURVE SMOOTH",
"161 489 OFFCURVE",
"299 630 OFFCURVE",
"422 630 CURVE SMOOTH",
"520.735 630 OFFCURVE",
"576.1 539.129 OFFCURVE",
"576.1 431.07 CURVE SMOOTH",
"576.1 408.892 OFFCURVE",
"573.768 385.989 OFFCURVE",
"569 363 CURVE SMOOTH",
"533 193 OFFCURVE",
"387 50 OFFCURVE",
"264 50 CURVE SMOOTH"
);
},
{
closed = 1;
nodes = (
"409 733 OFFCURVE",
"436 753 OFFCURVE",
"441 777 CURVE SMOOTH",
"441.377 779.076 OFFCURVE",
"441.559 781.107 OFFCURVE",
"441.559 783.083 CURVE SMOOTH",
"441.559 802.057 OFFCURVE",
"424.83 816 OFFCURVE",
"404 816 CURVE SMOOTH",
"376 816 OFFCURVE",
"348 795 OFFCURVE",
"344 772 CURVE SMOOTH",
"343.383 769.162 OFFCURVE",
"343.086 766.43 OFFCURVE",
"343.086 763.822 CURVE SMOOTH",
"343.086 745.295 OFFCURVE",
"358.085 733 OFFCURVE",
"380 733 CURVE SMOOTH"
);
},
{
closed = 1;
nodes = (
"568 733 OFFCURVE",
"595 753 OFFCURVE",
"600 777 CURVE SMOOTH",
"600.377 779.076 OFFCURVE",
"600.559 781.107 OFFCURVE",
"600.559 783.083 CURVE SMOOTH",
"600.559 802.057 OFFCURVE",
"583.83 816 OFFCURVE",
"563 816 CURVE SMOOTH",
"535 816 OFFCURVE",
"507 795 OFFCURVE",
"503 772 CURVE SMOOTH",
"502.383 769.162 OFFCURVE",
"502.086 766.43 OFFCURVE",
"502.086 763.822 CURVE SMOOTH",
"502.086 745.295 OFFCURVE",
"517.085 733 OFFCURVE",
"539 733 CURVE SMOOTH"
);
}
);
userData = {
com.fontlab.hintData = {
hhints = (
{
position = -2;
width = 52;
},
{
position = 630;
width = 52;
},
{
position = 733;
width = 83;
}
);
vhints = (
{
position = 62;
width = 54;
},
{
position = 343;
width = 98;
},
{
position = 502;
width = 98;
},
{
position = 576;
width = 56;
}
);
};
};
width = 660;
}
);
unicode = 00D6;
},
{
glyphname = Ograve;
lastChange = "2019-10-15 23:54:51 +0000";
layers = (
{
layerId = master01;
paths = (
{
closed = 1;
nodes = (
"409 -2 OFFCURVE",
"580 167 OFFCURVE",
"623 367 CURVE SMOOTH",
"629.029 395.805 OFFCURVE",
"631.945 423.796 OFFCURVE",
"631.945 450.438 CURVE SMOOTH",
"631.945 582.885 OFFCURVE",
"559.885 682 OFFCURVE",
"440 682 CURVE SMOOTH",
"284 682 OFFCURVE",
"114 513 OFFCURVE",
"71 313 CURVE SMOOTH",
"64.878 284.092 OFFCURVE",
"61.908 255.907 OFFCURVE",
"61.908 229.036 CURVE SMOOTH",
"61.908 97.88 OFFCURVE",
"132.657 -2 OFFCURVE",
"253 -2 CURVE SMOOTH"
);
},
{
closed = 1;
nodes = (
"170.744 50 OFFCURVE",
"115.632 129.632 OFFCURVE",
"115.632 237.439 CURVE SMOOTH",
"115.632 261.421 OFFCURVE",
"118.359 286.797 OFFCURVE",
"124 313 CURVE SMOOTH",
"161 489 OFFCURVE",
"299 630 OFFCURVE",
"422 630 CURVE SMOOTH",
"520.735 630 OFFCURVE",
"576.1 539.129 OFFCURVE",
"576.1 431.07 CURVE SMOOTH",
"576.1 408.892 OFFCURVE",
"573.768 385.989 OFFCURVE",
"569 363 CURVE SMOOTH",
"533 193 OFFCURVE",
"387 50 OFFCURVE",
"264 50 CURVE SMOOTH"
);
},
{
closed = 1;
nodes = (
"518 716 OFFCURVE",
"534 727 OFFCURVE",
"537 742 CURVE SMOOTH",
"538 748 OFFCURVE",
"538 753 OFFCURVE",
"534 760 CURVE SMOOTH",
"457 890 LINE",
"451 898 OFFCURVE",
"442 905 OFFCURVE",
"431 905 CURVE SMOOTH",
"413 905 OFFCURVE",
"392 889 OFFCURVE",
"389 871 CURVE SMOOTH",
"387 861 OFFCURVE",
"389 853 OFFCURVE",
"394 846 CURVE SMOOTH",
"487 725 LINE SMOOTH",
"491 720 OFFCURVE",
"496 716 OFFCURVE",
"504 716 CURVE SMOOTH"
);
}
);
userData = {
com.fontlab.hintData = {
hhints = (
{
position = -2;
width = 52;
},
{
position = 630;
width = 52;
}
);
vhints = (
{
position = 62;
width = 54;
},
{
position = 576;
width = 56;
}
);
};
};
width = 660;
}
);
unicode = 00D2;
},
{
glyphname = Ohungarumlaut;
lastChange = "2019-10-15 23:54:51 +0000";
layers = (
{
layerId = master01;
paths = (
{
closed = 1;
nodes = (
"409 -2 OFFCURVE",
"580 167 OFFCURVE",
"623 367 CURVE SMOOTH",
"629.029 395.805 OFFCURVE",
"631.945 423.796 OFFCURVE",
"631.945 450.438 CURVE SMOOTH",
"631.945 582.885 OFFCURVE",
"559.885 682 OFFCURVE",
"440 682 CURVE SMOOTH",
"284 682 OFFCURVE",
"114 513 OFFCURVE",
"71 313 CURVE SMOOTH",
"64.878 284.092 OFFCURVE",
"61.908 255.907 OFFCURVE",
"61.908 229.036 CURVE SMOOTH",
"61.908 97.88 OFFCURVE",
"132.657 -2 OFFCURVE",
"253 -2 CURVE SMOOTH"
);
},
{
closed = 1;
nodes = (
"170.744 50 OFFCURVE",
"115.632 129.632 OFFCURVE",
"115.632 237.439 CURVE SMOOTH",
"115.632 261.421 OFFCURVE",
"118.359 286.797 OFFCURVE",
"124 313 CURVE SMOOTH",
"161 489 OFFCURVE",
"299 630 OFFCURVE",
"422 630 CURVE SMOOTH",
"520.735 630 OFFCURVE",
"576.1 539.129 OFFCURVE",
"576.1 431.07 CURVE SMOOTH",
"576.1 408.892 OFFCURVE",
"573.768 385.989 OFFCURVE",
"569 363 CURVE SMOOTH",
"533 193 OFFCURVE",
"387 50 OFFCURVE",
"264 50 CURVE SMOOTH"
);
},
{
closed = 1;
nodes = (
"378 721 OFFCURVE",
"387 725 OFFCURVE",
"395 730 CURVE SMOOTH",
"553 824 LINE SMOOTH",
"561 829 OFFCURVE",
"566 838 OFFCURVE",
"568 847 CURVE SMOOTH",
"568.519 849.595 OFFCURVE",
"568.769 852.122 OFFCURVE",
"568.769 854.556 CURVE SMOOTH",
"568.769 870.882 OFFCURVE",
"557.535 883 OFFCURVE",
"541 883 CURVE SMOOTH",
"530 883 OFFCURVE",
"518 875 OFFCURVE",
"509 868 CURVE SMOOTH",
"361 765 LINE SMOOTH",
"355 761 OFFCURVE",
"353 754 OFFCURVE",
"351 748 CURVE SMOOTH",
"350.639 746.194 OFFCURVE",
"350.466 744.431 OFFCURVE",
"350.466 742.728 CURVE SMOOTH",
"350.466 730.284 OFFCURVE",
"359.686 721 OFFCURVE",
"372 721 CURVE SMOOTH"
);
},
{
closed = 1;
nodes = (
"538 721 OFFCURVE",
"547 725 OFFCURVE",
"555 730 CURVE SMOOTH",
"713 824 LINE SMOOTH",
"721 829 OFFCURVE",
"726 838 OFFCURVE",
"728 847 CURVE SMOOTH",
"728.519 849.595 OFFCURVE",
"728.769 852.122 OFFCURVE",
"728.769 854.556 CURVE SMOOTH",
"728.769 870.882 OFFCURVE",
"717.535 883 OFFCURVE",
"701 883 CURVE SMOOTH",
"690 883 OFFCURVE",
"678 875 OFFCURVE",
"669 868 CURVE SMOOTH",
"521 765 LINE SMOOTH",
"515 761 OFFCURVE",
"513 754 OFFCURVE",
"511 748 CURVE SMOOTH",
"510.639 746.194 OFFCURVE",
"510.466 744.431 OFFCURVE",
"510.466 742.728 CURVE SMOOTH",
"510.466 730.284 OFFCURVE",
"519.686 721 OFFCURVE",
"532 721 CURVE SMOOTH"
);
}
);
userData = {
com.fontlab.hintData = {
hhints = (
{
position = -2;
width = 52;
},
{
position = 630;
width = 52;
}
);
vhints = (
{
position = 62;
width = 54;
},
{
position = 576;
width = 56;
}
);
};
};
width = 660;
}
);
unicode = 0150;
},
{
glyphname = Oslash;
lastChange = "2019-10-15 23:54:51 +0000";
layers = (
{
layerId = master01;
paths = (
{
closed = 1;
nodes = (
"64 -32 OFFCURVE",
"72 -28 OFFCURVE",
"78 -19 CURVE SMOOTH",
"128 46 LINE",
"160 15 OFFCURVE",
"202 -2 OFFCURVE",
"253 -2 CURVE SMOOTH",
"409 -2 OFFCURVE",
"580 167 OFFCURVE",
"623 367 CURVE SMOOTH",
"628.954 395.686 OFFCURVE",
"631.831 423.493 OFFCURVE",
"631.831 449.946 CURVE SMOOTH",
"631.831 521.241 OFFCURVE",
"610.928 582.696 OFFCURVE",
"573 625 CURVE",
"634 704 LINE SMOOTH",
"637.892 709.19 OFFCURVE",
"640.466 714.743 OFFCURVE",
"640.466 721.862 CURVE SMOOTH",
"640.466 735 OFFCURVE",
"629.733 743 OFFCURVE",
"619 743 CURVE SMOOTH",
"609 743 OFFCURVE",
"599 738 OFFCURVE",
"594 730 CURVE",
"537 655 LINE",
"509 672 OFFCURVE",
"477 682 OFFCURVE",
"440 682 CURVE SMOOTH",
"284 682 OFFCURVE",
"114 513 OFFCURVE",
"71 313 CURVE SMOOTH",
"64.78 283.863 OFFCURVE",
"61.775 255.583 OFFCURVE",
"61.775 228.687 CURVE SMOOTH",
"61.775 173.429 OFFCURVE",
"74.459 124.012 OFFCURVE",
"98 85 CURVE",
"38 7 LINE SMOOTH",
"35 3 OFFCURVE",
"33 -1 OFFCURVE",
"32 -5 CURVE SMOOTH",
"31.553 -7.233 OFFCURVE",
"31.328 -9.4 OFFCURVE",
"31.328 -11.471 CURVE SMOOTH",
"31.328 -23.307 OFFCURVE",
"38.68 -32 OFFCURVE",
"54 -32 CURVE SMOOTH"
);
},
{
closed = 1;
nodes = (
"222 50 OFFCURVE",
"188 65 OFFCURVE",
"164 92 CURVE",
"535 574 LINE",
"561.966 537.808 OFFCURVE",
"576.343 487.013 OFFCURVE",
"576.343 431.976 CURVE SMOOTH",
"576.343 409.457 OFFCURVE",
"573.936 386.229 OFFCURVE",
"569 363 CURVE SMOOTH",
"533 193 OFFCURVE",
"387 50 OFFCURVE",
"264 50 CURVE SMOOTH"
);
},
{
closed = 1;
nodes = (
"122.496 163.849 OFFCURVE",
"115.397 198.35 OFFCURVE",
"115.397 236.652 CURVE SMOOTH",
"115.397 260.75 OFFCURVE",
"118.207 286.353 OFFCURVE",
"124 313 CURVE SMOOTH",
"161 489 OFFCURVE",
"299 630 OFFCURVE",
"422 630 CURVE SMOOTH",
"451 630 OFFCURVE",
"478 622 OFFCURVE",
"500 607 CURVE",
"136 135 LINE"
);
}
);
userData = {
com.fontlab.hintData = {
hhints = (
{
position = -2;
width = 52;
},
{
position = 630;
width = 52;
}
);
vhints = (
{
position = 62;
width = 54;
},
{
position = 576;
width = 55;
}
);
};
};
width = 660;
}
);
unicode = 00D8;
},
{
glyphname = Otilde;
lastChange = "2019-10-15 23:54:51 +0000";
layers = (
{
layerId = master01;
paths = (
{
closed = 1;
nodes = (
"409 -2 OFFCURVE",
"580 167 OFFCURVE",
"623 367 CURVE SMOOTH",
"629.029 395.805 OFFCURVE",
"631.945 423.796 OFFCURVE",
"631.945 450.438 CURVE SMOOTH",
"631.945 582.885 OFFCURVE",
"559.885 682 OFFCURVE",
"440 682 CURVE SMOOTH",
"284 682 OFFCURVE",
"114 513 OFFCURVE",
"71 313 CURVE SMOOTH",
"64.878 284.092 OFFCURVE",
"61.908 255.907 OFFCURVE",
"61.908 229.036 CURVE SMOOTH",
"61.908 97.88 OFFCURVE",
"132.657 -2 OFFCURVE",
"253 -2 CURVE SMOOTH"
);
},
{
closed = 1;
nodes = (
"170.744 50 OFFCURVE",
"115.632 129.632 OFFCURVE",
"115.632 237.439 CURVE SMOOTH",
"115.632 261.421 OFFCURVE",
"118.359 286.797 OFFCURVE",
"124 313 CURVE SMOOTH",
"161 489 OFFCURVE",
"299 630 OFFCURVE",
"422 630 CURVE SMOOTH",
"520.735 630 OFFCURVE",
"576.1 539.129 OFFCURVE",
"576.1 431.07 CURVE SMOOTH",
"576.1 408.892 OFFCURVE",
"573.768 385.989 OFFCURVE",
"569 363 CURVE SMOOTH",
"533 193 OFFCURVE",
"387 50 OFFCURVE",
"264 50 CURVE SMOOTH"
);
},
{
closed = 1;
nodes = (
"595 713 OFFCURVE",
"641 781 OFFCURVE",
"658 812 CURVE SMOOTH",
"661 818 OFFCURVE",
"663 821 OFFCURVE",
"664 826 CURVE SMOOTH",
"664.361 827.565 OFFCURVE",
"664.534 829.101 OFFCURVE",
"664.534 830.593 CURVE SMOOTH",
"664.534 841.489 OFFCURVE",
"655.314 850 OFFCURVE",
"643 850 CURVE SMOOTH",
"633 850 OFFCURVE",
"622 843 OFFCURVE",
"616 833 CURVE SMOOTH",
"598 804 OFFCURVE",
"569 755 OFFCURVE",
"539 755 CURVE SMOOTH",
"522 755 OFFCURVE",
"516 777 OFFCURVE",
"502 803 CURVE SMOOTH",
"488 830 OFFCURVE",
"471 863 OFFCURVE",
"426 863 CURVE SMOOTH",
"389 863 OFFCURVE",
"353 842 OFFCURVE",
"323 804 CURVE SMOOTH",
"315 793 OFFCURVE",
"301 776 OFFCURVE",
"298 761 CURVE SMOOTH",
"297.639 759.314 OFFCURVE",
"297.466 757.672 OFFCURVE",
"297.466 756.088 CURVE SMOOTH",
"297.466 744.511 OFFCURVE",
"306.686 736 OFFCURVE",
"319 736 CURVE SMOOTH",
"331 736 OFFCURVE",
"341 742 OFFCURVE",
"348 755 CURVE SMOOTH",
"374 804 OFFCURVE",
"404 821 OFFCURVE",
"417 821 CURVE SMOOTH",
"434 821 OFFCURVE",
"440 799 OFFCURVE",
"454 773 CURVE SMOOTH",
"468 745 OFFCURVE",
"485 713 OFFCURVE",
"530 713 CURVE SMOOTH"
);
}
);
userData = {
com.fontlab.hintData = {
hhints = (
{
position = -2;
width = 52;
},
{
position = 630;
width = 52;
},
{
position = 713;
width = 42;
},
{
position = 821;
width = 42;
}
);
vhints = (
{
position = 62;
width = 54;
},
{
position = 576;
width = 56;
}
);
};
};
width = 660;
}
);
unicode = 00D5;
},
{
glyphname = OE;
lastChange = "2019-10-15 23:54:51 +0000";
layers = (
{
layerId = master01;
paths = (
{
closed = 1;
nodes = (
"354 0 OFFCURVE",
"459 69 OFFCURVE",
"534 172 CURVE",
"504 29 LINE SMOOTH",
"503.441 26.762 OFFCURVE",
"503.175 24.583 OFFCURVE",
"503.175 22.49 CURVE SMOOTH",
"503.175 9.618 OFFCURVE",
"513.238 0 OFFCURVE",
"527 0 CURVE SMOOTH",
"953 0 LINE SMOOTH",
"969 0 OFFCURVE",
"983 13 OFFCURVE",
"987 29 CURVE SMOOTH",
"987.385 31.055 OFFCURVE",
"987.573 33.044 OFFCURVE",
"987.573 34.95 CURVE SMOOTH",
"987.573 47.885 OFFCURVE",
"978.945 57 OFFCURVE",
"965 57 CURVE SMOOTH",
"567 57 LINE",
"623 324 LINE",
"974 324 LINE SMOOTH",
"990 324 OFFCURVE",
"1005 337 OFFCURVE",
"1009 353 CURVE SMOOTH",
"1009.36 354.907 OFFCURVE",
"1009.53 356.758 OFFCURVE",
"1009.53 358.538 CURVE SMOOTH",
"1009.53 371.691 OFFCURVE",
"1000.09 381 OFFCURVE",
"986 381 CURVE SMOOTH",
"635 381 LINE",
"687 625 LINE",
"1087 625 LINE SMOOTH",
"1103 625 OFFCURVE",
"1118 638 OFFCURVE",
"1122 654 CURVE SMOOTH",
"1122.36 655.907 OFFCURVE",
"1122.53 657.758 OFFCURVE",
"1122.53 659.538 CURVE SMOOTH",
"1122.53 672.691 OFFCURVE",
"1113.09 682 OFFCURVE",
"1099 682 CURVE SMOOTH",
"671 682 LINE SMOOTH",
"655 682 OFFCURVE",
"640 670 OFFCURVE",
"637 654 CURVE SMOOTH",
"616 557 LINE",
"588 638 OFFCURVE",
"520 684 OFFCURVE",
"441 684 CURVE SMOOTH",
"285 684 OFFCURVE",
"114 515 OFFCURVE",
"71 315 CURVE SMOOTH",
"64.927 286.324 OFFCURVE",
"61.985 258.36 OFFCURVE",
"61.985 231.683 CURVE SMOOTH",
"61.985 100.208 OFFCURVE",
"133.459 0 OFFCURVE",
"254 0 CURVE SMOOTH"
);
},
{
closed = 1;
nodes = (
"171.277 52 OFFCURVE",
"116.08 132.432 OFFCURVE",
"116.08 241.063 CURVE SMOOTH",
"116.08 264.565 OFFCURVE",
"118.664 289.387 OFFCURVE",
"124 315 CURVE SMOOTH",
"162 491 OFFCURVE",
"300 632 OFFCURVE",
"423 632 CURVE SMOOTH",
"521.231 632 OFFCURVE",
"576.534 542.055 OFFCURVE",
"576.534 434.725 CURVE SMOOTH",
"576.534 412.032 OFFCURVE",
"574.061 388.562 OFFCURVE",
"569 365 CURVE SMOOTH",
"541 232 OFFCURVE",
"416 52 OFFCURVE",
"265 52 CURVE SMOOTH"
);
}
);
userData = {
com.fontlab.hintData = {
hhints = (
{
position = 0;
width = 52;
},
{
position = 324;
width = 57;
},
{
position = 625;
width = 57;
},
{
position = 632;
width = 52;
}
);
vhints = (
{
position = 62;
width = 54;
},
{
position = 577;
width = 433;
}
);
};
};
width = 1098;
}
);
unicode = 0152;
},
{
glyphname = P;
lastChange = "2019-10-15 23:54:51 +0000";
layers = (
{
layerId = master01;
paths = (
{
closed = 1;
nodes = (
"54 0 OFFCURVE",
"68 12 OFFCURVE",
"71 28 CURVE SMOOTH",
"116 239 LINE",
"256 239 OFFCURVE",
"523 291 OFFCURVE",
"563 477 CURVE SMOOTH",
"565.912 490.623 OFFCURVE",
"567.374 503.63 OFFCURVE",
"567.374 516.001 CURVE SMOOTH",
"567.374 622.591 OFFCURVE",
"458.794 682 OFFCURVE",
"233 682 CURVE SMOOTH",
"156 682 OFFCURVE",
"152 671 OFFCURVE",
"146 641 CURVE SMOOTH",
"15 28 LINE SMOOTH",
"14.665 26.215 OFFCURVE",
"14.505 24.479 OFFCURVE",
"14.505 22.804 CURVE SMOOTH",
"14.505 9.471 OFFCURVE",
"24.674 0 OFFCURVE",
"38 0 CURVE SMOOTH"
);
},
{
closed = 1;
nodes = (
"198 625 LINE",
"208 626 OFFCURVE",
"226 626 OFFCURVE",
"239 626 CURVE SMOOTH",
"414.323 626 OFFCURVE",
"509.599 581.807 OFFCURVE",
"509.599 501.035 CURVE SMOOTH",
"509.599 493.352 OFFCURVE",
"508.737 485.338 OFFCURVE",
"507 477 CURVE SMOOTH",
"474 322 OFFCURVE",
"214 295 OFFCURVE",
"128 295 CURVE"
);
}
);
userData = {
com.fontlab.hintData = {
hhints = (
{
position = 0;
width = 21;
},
{
position = 239;
width = 56;
},
{
position = 626;
width = 56;
}
);
vhints = (
{
position = 510;
width = 58;
}
);
};
};
width = 547;
}
);
unicode = 0050;
},
{
glyphname = Thorn;
lastChange = "2019-10-15 23:54:51 +0000";
layers = (
{
layerId = master01;
paths = (
{
closed = 1;
nodes = (
"50 0 OFFCURVE",
"63 11 OFFCURVE",
"66 25 CURVE SMOOTH",
"91 143 LINE",
"234 146 OFFCURVE",
"461 198 OFFCURVE",
"498 375 CURVE SMOOTH",
"501.144 389.725 OFFCURVE",
"502.631 403.362 OFFCURVE",
"502.631 415.991 CURVE SMOOTH",
"502.631 556.014 OFFCURVE",
"319.757 572 OFFCURVE",
"184 572 CURVE",
"202 654 LINE SMOOTH",
"202.361 655.806 OFFCURVE",
"202.534 657.554 OFFCURVE",
"202.534 659.232 CURVE SMOOTH",
"202.534 671.489 OFFCURVE",
"193.314 680 OFFCURVE",
"181 680 CURVE SMOOTH",
"167 680 OFFCURVE",
"154 669 OFFCURVE",
"151 655 CURVE SMOOTH",
"15 26 LINE SMOOTH",
"14.61 24.051 OFFCURVE",
"14.423 22.17 OFFCURVE",
"14.423 20.371 CURVE SMOOTH",
"14.423 8.327 OFFCURVE",
"22.819 0 OFFCURVE",
"35 0 CURVE SMOOTH"
);
},
{
closed = 1;
nodes = (
"173 518 LINE",
"183 519 OFFCURVE",
"195 519 OFFCURVE",
"209 519 CURVE SMOOTH",
"363.08 519 OFFCURVE",
"449.799 475.462 OFFCURVE",
"449.799 399.554 CURVE SMOOTH",
"449.799 391.711 OFFCURVE",
"448.873 383.522 OFFCURVE",
"447 375 CURVE",
"418 236 OFFCURVE",
"206 199 OFFCURVE",
"104 198 CURVE"
);
}
);
userData = {
com.fontlab.hintData = {
hhints = (
{
position = 0;
width = 21;
},
{
position = 143;
width = 55;
},
{
position = 519;
width = 53;
}
);
vhints = (
{
position = 450;
width = 53;
}
);
};
};
width = 547;
}
);
unicode = 00DE;
},
{
glyphname = Q;
lastChange = "2019-10-15 23:54:51 +0000";
layers = (
{
layerId = master01;
paths = (
{
closed = 1;
nodes = (
"588 -24 OFFCURVE",
"605 -14 OFFCURVE",
"608 3 CURVE SMOOTH",
"610 12 OFFCURVE",
"609 21 OFFCURVE",
"601 27 CURVE SMOOTH",
"514 93 LINE",
"597 161 OFFCURVE",
"662 260 OFFCURVE",
"684 366 CURVE SMOOTH",
"689.385 391.429 OFFCURVE",
"691.995 416.276 OFFCURVE",
"691.995 440.147 CURVE SMOOTH",
"691.995 575.858 OFFCURVE",
"607.618 680 OFFCURVE",
"469 680 CURVE SMOOTH",
"293 680 OFFCURVE",
"104 512 OFFCURVE",
"62 311 CURVE SMOOTH",
"56.579 285.552 OFFCURVE",
"53.947 260.67 OFFCURVE",
"53.947 236.762 CURVE SMOOTH",
"53.947 101.898 OFFCURVE",
"137.695 -2 OFFCURVE",
"277 -2 CURVE SMOOTH",
"339 -2 OFFCURVE",
"404 19 OFFCURVE",
"462 56 CURVE",
"560 -20 LINE SMOOTH",
"565 -23 OFFCURVE",
"569 -24 OFFCURVE",
"574 -24 CURVE SMOOTH"
);
},
{
closed = 1;
nodes = (
"180.657 52 OFFCURVE",
"114.636 133.825 OFFCURVE",
"114.636 247.117 CURVE SMOOTH",
"114.636 268.717 OFFCURVE",
"117.036 291.461 OFFCURVE",
"122 315 CURVE SMOOTH",
"159 487 OFFCURVE",
"313 626 OFFCURVE",
"450 626 CURVE SMOOTH",
"563.125 626 OFFCURVE",
"629.225 532.674 OFFCURVE",
"629.225 422.326 CURVE SMOOTH",
"629.225 402.938 OFFCURVE",
"627.184 383.025 OFFCURVE",
"623 363 CURVE SMOOTH",
"603 269 OFFCURVE",
"543 182 OFFCURVE",
"473 125 CURVE",
"391 188 LINE SMOOTH",
"387 191 OFFCURVE",
"382 192 OFFCURVE",
"376 192 CURVE SMOOTH",
"362 192 OFFCURVE",
"347 180 OFFCURVE",
"343 164 CURVE SMOOTH",
"341 155 OFFCURVE",
"345 146 OFFCURVE",
"351 141 CURVE SMOOTH",
"419 89 LINE",
"376 65 OFFCURVE",
"332 52 OFFCURVE",
"289 52 CURVE SMOOTH"
);
}
);
userData = {
com.fontlab.hintData = {
hhints = (
{
position = -2;
width = 54;
},
{
position = 626;
width = 54;
}
);
vhints = (
{
position = 54;
width = 61;
},
{
position = 629;
width = 63;
}
);
};
};
width = 714;
}
);
unicode = 0051;
},
{
glyphname = R;
lastChange = "2019-10-15 23:54:51 +0000";
layers = (
{
layerId = master01;
paths = (
{
closed = 1;
nodes = (
"53 0 OFFCURVE",
"68 12 OFFCURVE",
"71 28 CURVE SMOOTH",
"117 241 LINE",
"152 246 OFFCURVE",
"196 250 OFFCURVE",
"215 250 CURVE SMOOTH",
"258 250 OFFCURVE",
"358 242 OFFCURVE",
"441 16 CURVE SMOOTH",
"445 6 OFFCURVE",
"453 0 OFFCURVE",
"463 0 CURVE SMOOTH",
"480 0 OFFCURVE",
"493 14 OFFCURVE",
"496 28 CURVE SMOOTH",
"497 32 OFFCURVE",
"497 37 OFFCURVE",
"496 41 CURVE SMOOTH",
"457 173 OFFCURVE",
"375 250 OFFCURVE",
"336 276 CURVE",
"437 308 OFFCURVE",
"543 366 OFFCURVE",
"567 478 CURVE SMOOTH",
"569.884 491.699 OFFCURVE",
"571.315 504.805 OFFCURVE",
"571.315 517.293 CURVE SMOOTH",
"571.315 626.046 OFFCURVE",
"462.824 688 OFFCURVE",
"261 688 CURVE SMOOTH",
"256.86 688 OFFCURVE",
"252.879 688.002 OFFCURVE",
"249.049 688.002 CURVE SMOOTH",
"170.527 688.002 OFFCURVE",
"155.581 687.093 OFFCURVE",
"147 648 CURVE SMOOTH",
"15 28 LINE SMOOTH",
"14.642 26.093 OFFCURVE",
"14.47 24.242 OFFCURVE",
"14.47 22.462 CURVE SMOOTH",
"14.47 9.309 OFFCURVE",
"23.907 0 OFFCURVE",
"38 0 CURVE SMOOTH"
);
},
{
closed = 1;
nodes = (
"200 631 LINE",
"215 632 OFFCURVE",
"236 632 OFFCURVE",
"246 632 CURVE SMOOTH",
"416.699 632 OFFCURVE",
"514.024 589.131 OFFCURVE",
"514.024 504.889 CURVE SMOOTH",
"514.024 496.35 OFFCURVE",
"513.025 487.387 OFFCURVE",
"511 478 CURVE SMOOTH",
"484 349 OFFCURVE",
"273 300 OFFCURVE",
"129 297 CURVE"
);
}
);
userData = {
com.fontlab.hintData = {
hhints = (
{
position = 0;
width = 21;
},
{
position = 250;
width = 47;
},
{
position = 632;
width = 56;
}
);
vhints = (
{
position = 514;
width = 57;
}
);
};
};
width = 597;
}
);
unicode = 0052;
},
{
glyphname = Racute;
lastChange = "2019-10-15 23:54:51 +0000";
layers = (
{
layerId = master01;
paths = (
{
closed = 1;
nodes = (
"53 0 OFFCURVE",
"68 12 OFFCURVE",
"71 28 CURVE SMOOTH",
"117 241 LINE",
"152 246 OFFCURVE",
"196 250 OFFCURVE",
"215 250 CURVE SMOOTH",
"258 250 OFFCURVE",
"358 242 OFFCURVE",
"441 16 CURVE SMOOTH",
"445 6 OFFCURVE",
"453 0 OFFCURVE",
"463 0 CURVE SMOOTH",
"480 0 OFFCURVE",
"493 14 OFFCURVE",
"496 28 CURVE SMOOTH",
"497 32 OFFCURVE",
"497 37 OFFCURVE",
"496 41 CURVE SMOOTH",
"457 173 OFFCURVE",
"375 250 OFFCURVE",
"336 276 CURVE",
"437 308 OFFCURVE",
"543 366 OFFCURVE",
"567 478 CURVE SMOOTH",
"569.884 491.699 OFFCURVE",
"571.315 504.805 OFFCURVE",
"571.315 517.293 CURVE SMOOTH",
"571.315 626.046 OFFCURVE",
"462.824 688 OFFCURVE",
"261 688 CURVE SMOOTH",
"256.86 688 OFFCURVE",
"252.879 688.002 OFFCURVE",
"249.049 688.002 CURVE SMOOTH",
"170.527 688.002 OFFCURVE",
"155.581 687.093 OFFCURVE",
"147 648 CURVE SMOOTH",
"15 28 LINE SMOOTH",
"14.642 26.093 OFFCURVE",
"14.47 24.242 OFFCURVE",
"14.47 22.462 CURVE SMOOTH",
"14.47 9.309 OFFCURVE",
"23.907 0 OFFCURVE",
"38 0 CURVE SMOOTH"
);
},
{
closed = 1;
nodes = (
"200 631 LINE",
"215 632 OFFCURVE",
"236 632 OFFCURVE",
"246 632 CURVE SMOOTH",
"416.699 632 OFFCURVE",
"514.024 589.131 OFFCURVE",
"514.024 504.889 CURVE SMOOTH",
"514.024 496.35 OFFCURVE",
"513.025 487.387 OFFCURVE",
"511 478 CURVE SMOOTH",
"484 349 OFFCURVE",
"273 300 OFFCURVE",
"129 297 CURVE"
);
},
{
closed = 1;
nodes = (
"354 750 OFFCURVE",
"363 754 OFFCURVE",
"371 759 CURVE SMOOTH",
"529 853 LINE SMOOTH",
"537 858 OFFCURVE",
"542 867 OFFCURVE",
"544 876 CURVE SMOOTH",
"544.519 878.595 OFFCURVE",
"544.769 881.122 OFFCURVE",
"544.769 883.556 CURVE SMOOTH",
"544.769 899.882 OFFCURVE",
"533.535 912 OFFCURVE",
"517 912 CURVE SMOOTH",
"506 912 OFFCURVE",
"495 904 OFFCURVE",
"485 897 CURVE SMOOTH",
"337 794 LINE SMOOTH",
"331 790 OFFCURVE",
"329 783 OFFCURVE",
"328 777 CURVE SMOOTH",
"327.396 774.735 OFFCURVE",
"327.111 772.538 OFFCURVE",
"327.111 770.441 CURVE SMOOTH",
"327.111 758.65 OFFCURVE",
"336.114 750 OFFCURVE",
"348 750 CURVE SMOOTH"
);
}
);
userData = {
com.fontlab.hintData = {
hhints = (
{
position = 0;
width = 21;
},
{
position = 250;
width = 47;
},
{
position = 632;
width = 56;
}
);
vhints = (
{
position = 514;
width = 57;
}
);
};
};
width = 597;
}
);
unicode = 0154;
},
{
glyphname = Rcaron;
lastChange = "2019-10-15 23:54:51 +0000";
layers = (
{
layerId = master01;
paths = (
{
closed = 1;
nodes = (
"53 0 OFFCURVE",
"68 12 OFFCURVE",
"71 28 CURVE SMOOTH",
"117 241 LINE",
"152 246 OFFCURVE",
"196 250 OFFCURVE",
"215 250 CURVE SMOOTH",
"258 250 OFFCURVE",
"358 242 OFFCURVE",
"441 16 CURVE SMOOTH",
"445 6 OFFCURVE",
"453 0 OFFCURVE",
"463 0 CURVE SMOOTH",
"480 0 OFFCURVE",
"493 14 OFFCURVE",
"496 28 CURVE SMOOTH",
"497 32 OFFCURVE",
"497 37 OFFCURVE",
"496 41 CURVE SMOOTH",
"457 173 OFFCURVE",
"375 250 OFFCURVE",
"336 276 CURVE",
"437 308 OFFCURVE",
"543 366 OFFCURVE",
"567 478 CURVE SMOOTH",
"569.884 491.699 OFFCURVE",
"571.315 504.805 OFFCURVE",
"571.315 517.293 CURVE SMOOTH",
"571.315 626.046 OFFCURVE",
"462.824 688 OFFCURVE",
"261 688 CURVE SMOOTH",
"256.86 688 OFFCURVE",
"252.879 688.002 OFFCURVE",
"249.049 688.002 CURVE SMOOTH",
"170.527 688.002 OFFCURVE",
"155.581 687.093 OFFCURVE",
"147 648 CURVE SMOOTH",
"15 28 LINE SMOOTH",
"14.642 26.093 OFFCURVE",
"14.47 24.242 OFFCURVE",
"14.47 22.462 CURVE SMOOTH",
"14.47 9.309 OFFCURVE",
"23.907 0 OFFCURVE",
"38 0 CURVE SMOOTH"
);
},
{
closed = 1;
nodes = (
"200 631 LINE",
"215 632 OFFCURVE",
"236 632 OFFCURVE",
"246 632 CURVE SMOOTH",
"416.699 632 OFFCURVE",
"514.024 589.131 OFFCURVE",
"514.024 504.889 CURVE SMOOTH",
"514.024 496.35 OFFCURVE",
"513.025 487.387 OFFCURVE",
"511 478 CURVE SMOOTH",
"484 349 OFFCURVE",
"273 300 OFFCURVE",
"129 297 CURVE"
);
},
{
closed = 1;
nodes = (
"390 722 OFFCURVE",
"397 724 OFFCURVE",
"404 729 CURVE SMOOTH",
"559 839 LINE SMOOTH",
"567 844 OFFCURVE",
"572 852 OFFCURVE",
"573 860 CURVE SMOOTH",
"573.39 861.949 OFFCURVE",
"573.577 863.83 OFFCURVE",
"573.577 865.629 CURVE SMOOTH",
"573.577 877.673 OFFCURVE",
"565.181 886 OFFCURVE",
"553 886 CURVE SMOOTH",
"547 886 OFFCURVE",
"541 885 OFFCURVE",
"535 881 CURVE SMOOTH",
"401 792 LINE",
"323 879 LINE SMOOTH",
"319 884 OFFCURVE",
"313 886 OFFCURVE",
"306 886 CURVE SMOOTH",
"292 886 OFFCURVE",
"277 874 OFFCURVE",
"274 860 CURVE SMOOTH",
"273 852 OFFCURVE",
"274 845 OFFCURVE",
"279 840 CURVE",
"366 730 LINE",
"371 725 OFFCURVE",
"377 722 OFFCURVE",
"384 722 CURVE SMOOTH"
);
}
);
userData = {
com.fontlab.hintData = {
hhints = (
{
position = 0;
width = 21;
},
{
position = 250;
width = 47;
},
{
position = 632;
width = 56;
}
);
vhints = (
{
position = 514;
width = 57;
}
);
};
};
width = 597;
}
);
unicode = 0158;
},
{
glyphname = S;
lastChange = "2019-10-15 23:54:51 +0000";
layers = (
{
layerId = master01;
paths = (
{
closed = 1;
nodes = (
"352 0 OFFCURVE",
"494 60 OFFCURVE",
"522 191 CURVE SMOOTH",
"524.532 202.646 OFFCURVE",
"525.797 213.842 OFFCURVE",
"525.797 224.601 CURVE SMOOTH",
"525.797 298.834 OFFCURVE",
"465.532 352.19 OFFCURVE",
"345 388 CURVE SMOOTH",
"255.585 414.192 OFFCURVE",
"209.404 448.542 OFFCURVE",
"209.404 491.785 CURVE SMOOTH",
"209.404 496.421 OFFCURVE",
"209.935 501.159 OFFCURVE",
"211 506 CURVE SMOOTH",
"231 602 OFFCURVE",
"316 632 OFFCURVE",
"403 632 CURVE SMOOTH",
"472.139 632 OFFCURVE",
"540.355 606.181 OFFCURVE",
"540.355 549.231 CURVE SMOOTH",
"540.355 546.874 OFFCURVE",
"540.238 544.464 OFFCURVE",
"540 542 CURVE",
"538 529 OFFCURVE",
"548 518 OFFCURVE",
"562 518 CURVE SMOOTH",
"578 518 OFFCURVE",
"592 531 OFFCURVE",
"595 548 CURVE SMOOTH",
"595.974 554.941 OFFCURVE",
"596.44 561.533 OFFCURVE",
"596.44 567.794 CURVE SMOOTH",
"596.44 664.361 OFFCURVE",
"485.495 682 OFFCURVE",
"416 682 CURVE SMOOTH",
"302 682 OFFCURVE",
"176 640 OFFCURVE",
"148 509 CURVE SMOOTH",
"145.945 499.657 OFFCURVE",
"144.972 490.734 OFFCURVE",
"144.972 482.211 CURVE SMOOTH",
"144.972 399.511 OFFCURVE",
"236.595 354.571 OFFCURVE",
"320 331 CURVE SMOOTH",
"442.68 295.596 OFFCURVE",
"462.995 248.667 OFFCURVE",
"462.995 216.447 CURVE SMOOTH",
"462.995 209.535 OFFCURVE",
"462.06 203.299 OFFCURVE",
"461 198 CURVE SMOOTH",
"438 93 OFFCURVE",
"334 53 OFFCURVE",
"259 53 CURVE SMOOTH",
"188 53 OFFCURVE",
"109 87 OFFCURVE",
"99 163 CURVE SMOOTH",
"97 177 OFFCURVE",
"89 186 OFFCURVE",
"74 186 CURVE SMOOTH",
"57 186 OFFCURVE",
"41 173 OFFCURVE",
"38 157 CURVE SMOOTH",
"37 152 OFFCURVE",
"37 144 OFFCURVE",
"38 140 CURVE SMOOTH",
"54 58 OFFCURVE",
"136 0 OFFCURVE",
"249 0 CURVE SMOOTH"
);
}
);
userData = {
com.fontlab.hintData = {
hhints = (
{
position = 0;
width = 53;
},
{
position = 632;
width = 50;
}
);
vhints = (
{
position = 38;
width = 61;
},
{
position = 145;
width = 64;
},
{
position = 463;
width = 63;
},
{
position = 540;
width = 56;
}
);
};
};
width = 598;
}
);
unicode = 0053;
},
{
glyphname = Sacute;
lastChange = "2019-10-15 23:54:51 +0000";
layers = (
{
layerId = master01;
paths = (
{
closed = 1;
nodes = (
"352 0 OFFCURVE",
"494 60 OFFCURVE",
"522 191 CURVE SMOOTH",
"524.532 202.646 OFFCURVE",
"525.797 213.842 OFFCURVE",
"525.797 224.601 CURVE SMOOTH",
"525.797 298.834 OFFCURVE",
"465.532 352.19 OFFCURVE",
"345 388 CURVE SMOOTH",
"255.585 414.192 OFFCURVE",
"209.404 448.542 OFFCURVE",
"209.404 491.785 CURVE SMOOTH",
"209.404 496.421 OFFCURVE",
"209.935 501.159 OFFCURVE",
"211 506 CURVE SMOOTH",
"231 602 OFFCURVE",
"316 632 OFFCURVE",
"403 632 CURVE SMOOTH",
"472.139 632 OFFCURVE",
"540.355 606.181 OFFCURVE",
"540.355 549.231 CURVE SMOOTH",
"540.355 546.874 OFFCURVE",
"540.238 544.464 OFFCURVE",
"540 542 CURVE",
"538 529 OFFCURVE",
"548 518 OFFCURVE",
"562 518 CURVE SMOOTH",
"578 518 OFFCURVE",
"592 531 OFFCURVE",
"595 548 CURVE SMOOTH",
"595.974 554.941 OFFCURVE",
"596.44 561.533 OFFCURVE",
"596.44 567.794 CURVE SMOOTH",
"596.44 664.361 OFFCURVE",
"485.495 682 OFFCURVE",
"416 682 CURVE SMOOTH",
"302 682 OFFCURVE",
"176 640 OFFCURVE",
"148 509 CURVE SMOOTH",
"145.945 499.657 OFFCURVE",
"144.972 490.734 OFFCURVE",
"144.972 482.211 CURVE SMOOTH",
"144.972 399.511 OFFCURVE",
"236.595 354.571 OFFCURVE",
"320 331 CURVE SMOOTH",
"442.68 295.596 OFFCURVE",
"462.995 248.667 OFFCURVE",
"462.995 216.447 CURVE SMOOTH",
"462.995 209.535 OFFCURVE",
"462.06 203.299 OFFCURVE",
"461 198 CURVE SMOOTH",
"438 93 OFFCURVE",
"334 53 OFFCURVE",
"259 53 CURVE SMOOTH",
"188 53 OFFCURVE",
"109 87 OFFCURVE",
"99 163 CURVE SMOOTH",
"97 177 OFFCURVE",
"89 186 OFFCURVE",
"74 186 CURVE SMOOTH",
"57 186 OFFCURVE",
"41 173 OFFCURVE",
"38 157 CURVE SMOOTH",
"37 152 OFFCURVE",
"37 144 OFFCURVE",
"38 140 CURVE SMOOTH",
"54 57 OFFCURVE",
"136 0 OFFCURVE",
"249 0 CURVE SMOOTH"
);
},
{
closed = 1;
nodes = (
"377 750 OFFCURVE",
"386 754 OFFCURVE",
"394 759 CURVE SMOOTH",
"552 853 LINE SMOOTH",
"560 858 OFFCURVE",
"565 867 OFFCURVE",
"567 876 CURVE SMOOTH",
"567.519 878.595 OFFCURVE",
"567.769 881.122 OFFCURVE",
"567.769 883.556 CURVE SMOOTH",
"567.769 899.882 OFFCURVE",
"556.535 912 OFFCURVE",
"540 912 CURVE SMOOTH",
"529 912 OFFCURVE",
"518 904 OFFCURVE",
"508 897 CURVE SMOOTH",
"360 794 LINE SMOOTH",
"354 790 OFFCURVE",
"352 783 OFFCURVE",
"351 777 CURVE SMOOTH",
"350.396 774.735 OFFCURVE",
"350.111 772.538 OFFCURVE",
"350.111 770.441 CURVE SMOOTH",
"350.111 758.65 OFFCURVE",
"359.114 750 OFFCURVE",
"371 750 CURVE SMOOTH"
);
}
);
userData = {
com.fontlab.hintData = {
hhints = (
{
position = 0;
width = 53;
},
{
position = 632;
width = 50;
}
);
vhints = (
{
position = 38;
width = 61;
},
{
position = 145;
width = 64;
},
{
position = 463;
width = 63;
},
{
position = 540;
width = 56;
}
);
};
};
width = 598;
}
);
unicode = 015A;
},
{
glyphname = Scaron;
lastChange = "2019-10-15 23:54:51 +0000";
layers = (
{
layerId = master01;
paths = (
{
closed = 1;
nodes = (
"352 0 OFFCURVE",
"494 60 OFFCURVE",
"522 191 CURVE SMOOTH",
"524.532 202.646 OFFCURVE",
"525.797 213.842 OFFCURVE",
"525.797 224.601 CURVE SMOOTH",
"525.797 298.834 OFFCURVE",
"465.532 352.19 OFFCURVE",
"345 388 CURVE SMOOTH",
"255.585 414.192 OFFCURVE",
"209.404 448.542 OFFCURVE",
"209.404 491.785 CURVE SMOOTH",
"209.404 496.421 OFFCURVE",
"209.935 501.159 OFFCURVE",
"211 506 CURVE SMOOTH",
"231 602 OFFCURVE",
"316 632 OFFCURVE",
"403 632 CURVE SMOOTH",
"472.139 632 OFFCURVE",
"540.355 606.181 OFFCURVE",
"540.355 549.231 CURVE SMOOTH",
"540.355 546.874 OFFCURVE",
"540.238 544.464 OFFCURVE",
"540 542 CURVE",
"538 529 OFFCURVE",
"548 518 OFFCURVE",
"562 518 CURVE SMOOTH",
"578 518 OFFCURVE",
"592 531 OFFCURVE",
"595 548 CURVE SMOOTH",
"595.974 554.941 OFFCURVE",
"596.44 561.533 OFFCURVE",
"596.44 567.794 CURVE SMOOTH",
"596.44 664.361 OFFCURVE",
"485.495 682 OFFCURVE",
"416 682 CURVE SMOOTH",
"302 682 OFFCURVE",
"176 640 OFFCURVE",
"148 509 CURVE SMOOTH",
"145.945 499.657 OFFCURVE",
"144.972 490.734 OFFCURVE",
"144.972 482.211 CURVE SMOOTH",
"144.972 399.511 OFFCURVE",
"236.595 354.571 OFFCURVE",
"320 331 CURVE SMOOTH",
"442.68 295.596 OFFCURVE",
"462.995 248.667 OFFCURVE",
"462.995 216.447 CURVE SMOOTH",
"462.995 209.535 OFFCURVE",
"462.06 203.299 OFFCURVE",
"461 198 CURVE SMOOTH",
"438 93 OFFCURVE",
"334 53 OFFCURVE",
"259 53 CURVE SMOOTH",
"188 53 OFFCURVE",
"109 87 OFFCURVE",
"99 163 CURVE SMOOTH",
"97 177 OFFCURVE",
"89 186 OFFCURVE",
"74 186 CURVE SMOOTH",
"57 186 OFFCURVE",
"41 173 OFFCURVE",
"38 157 CURVE SMOOTH",
"37 152 OFFCURVE",
"37 144 OFFCURVE",
"38 140 CURVE SMOOTH",
"54 57 OFFCURVE",
"136 0 OFFCURVE",
"249 0 CURVE SMOOTH"
);
},
{
closed = 1;
nodes = (
"429 729 OFFCURVE",
"437 731 OFFCURVE",
"444 736 CURVE SMOOTH",
"598 846 LINE SMOOTH",
"606 851 OFFCURVE",
"611 859 OFFCURVE",
"613 867 CURVE SMOOTH",
"613.361 868.806 OFFCURVE",
"613.534 870.554 OFFCURVE",
"613.534 872.232 CURVE SMOOTH",
"613.534 884.489 OFFCURVE",
"604.314 893 OFFCURVE",
"592 893 CURVE SMOOTH",
"586 893 OFFCURVE",
"580 892 OFFCURVE",
"574 888 CURVE SMOOTH",
"440 799 LINE",
"363 886 LINE SMOOTH",
"359 891 OFFCURVE",
"352 893 OFFCURVE",
"345 893 CURVE SMOOTH",
"331 893 OFFCURVE",
"317 881 OFFCURVE",
"314 867 CURVE SMOOTH",
"312 859 OFFCURVE",
"314 852 OFFCURVE",
"319 847 CURVE",
"405 737 LINE",
"410 732 OFFCURVE",
"416 729 OFFCURVE",
"423 729 CURVE SMOOTH"
);
}
);
userData = {
com.fontlab.hintData = {
hhints = (
{
position = 0;
width = 53;
},
{
position = 632;
width = 50;
}
);
vhints = (
{
position = 38;
width = 61;
},
{
position = 145;
width = 64;
},
{
position = 463;
width = 63;
},
{
position = 540;
width = 56;
}
);
};
};
width = 598;
}
);
unicode = 0160;
},
{
glyphname = Scedilla;
lastChange = "2019-10-15 23:54:51 +0000";
layers = (
{
layerId = master01;
paths = (
{
closed = 1;
nodes = (
"257 -201 OFFCURVE",
"306 -160 OFFCURVE",
"317 -110 CURVE SMOOTH",
"318.406 -103.251 OFFCURVE",
"319.12 -96.601 OFFCURVE",
"319.12 -90.156 CURVE SMOOTH",
"319.12 -50.759 OFFCURVE",
"292.439 -19 OFFCURVE",
"234 -19 CURVE",
"240 0 LINE",
"249 0 LINE SMOOTH",
"352 0 OFFCURVE",
"494 60 OFFCURVE",
"522 191 CURVE SMOOTH",
"524.532 202.646 OFFCURVE",
"525.797 213.842 OFFCURVE",
"525.797 224.601 CURVE SMOOTH",
"525.797 298.834 OFFCURVE",
"465.532 352.19 OFFCURVE",
"345 388 CURVE SMOOTH",
"255.585 414.192 OFFCURVE",
"209.404 448.542 OFFCURVE",
"209.404 491.785 CURVE SMOOTH",
"209.404 496.421 OFFCURVE",
"209.935 501.159 OFFCURVE",
"211 506 CURVE SMOOTH",
"231 602 OFFCURVE",
"316 632 OFFCURVE",
"403 632 CURVE SMOOTH",
"472.139 632 OFFCURVE",
"540.355 606.181 OFFCURVE",
"540.355 549.231 CURVE SMOOTH",
"540.355 546.874 OFFCURVE",
"540.238 544.464 OFFCURVE",
"540 542 CURVE",
"538 529 OFFCURVE",
"548 518 OFFCURVE",
"562 518 CURVE SMOOTH",
"578 518 OFFCURVE",
"592 531 OFFCURVE",
"595 548 CURVE SMOOTH",
"595.974 554.941 OFFCURVE",
"596.44 561.533 OFFCURVE",
"596.44 567.794 CURVE SMOOTH",
"596.44 664.361 OFFCURVE",
"485.495 682 OFFCURVE",
"416 682 CURVE SMOOTH",
"302 682 OFFCURVE",
"176 640 OFFCURVE",
"148 509 CURVE SMOOTH",
"145.945 499.657 OFFCURVE",
"144.972 490.734 OFFCURVE",
"144.972 482.211 CURVE SMOOTH",
"144.972 399.511 OFFCURVE",
"236.595 354.571 OFFCURVE",
"320 331 CURVE SMOOTH",
"442.68 295.596 OFFCURVE",
"462.995 248.667 OFFCURVE",
"462.995 216.447 CURVE SMOOTH",
"462.995 209.535 OFFCURVE",
"462.06 203.299 OFFCURVE",
"461 198 CURVE SMOOTH",
"438 93 OFFCURVE",
"334 53 OFFCURVE",
"259 53 CURVE SMOOTH",
"188 53 OFFCURVE",
"109 87 OFFCURVE",
"99 163 CURVE SMOOTH",
"97 177 OFFCURVE",
"89 186 OFFCURVE",
"74 186 CURVE SMOOTH",
"57 186 OFFCURVE",
"41 173 OFFCURVE",
"38 157 CURVE SMOOTH",
"37 152 OFFCURVE",
"37 144 OFFCURVE",
"38 140 CURVE SMOOTH",
"51 68 OFFCURVE",
"115 16 OFFCURVE",
"204 3 CURVE",
"184 -33 LINE SMOOTH",
"178 -43 OFFCURVE",
"175 -50 OFFCURVE",
"174 -56 CURVE SMOOTH",
"171 -68 OFFCURVE",
"179 -76 OFFCURVE",
"190 -76 CURVE SMOOTH",
"194 -76 OFFCURVE",
"199 -74 OFFCURVE",
"203 -71 CURVE SMOOTH",
"211 -67 OFFCURVE",
"222 -61 OFFCURVE",
"237 -61 CURVE SMOOTH",
"260.338 -61 OFFCURVE",
"276.204 -77.437 OFFCURVE",
"276.204 -99.332 CURVE SMOOTH",
"276.204 -102.768 OFFCURVE",
"275.814 -106.338 OFFCURVE",
"275 -110 CURVE SMOOTH",
"269 -137 OFFCURVE",
"243 -159 OFFCURVE",
"216 -159 CURVE SMOOTH",
"193 -159 OFFCURVE",
"186 -148 OFFCURVE",
"180 -139 CURVE SMOOTH",
"176 -133 OFFCURVE",
"172 -128 OFFCURVE",
"164 -128 CURVE SMOOTH",
"152 -128 OFFCURVE",
"141 -138 OFFCURVE",
"139 -146 CURVE SMOOTH",
"138.487 -148.418 OFFCURVE",
"138.243 -150.777 OFFCURVE",
"138.243 -153.073 CURVE SMOOTH",
"138.243 -182.106 OFFCURVE",
"177.345 -201 OFFCURVE",
"207 -201 CURVE SMOOTH"
);
}
);
userData = {
com.fontlab.hintData = {
hhints = (
{
position = -201;
width = 42;
},
{
position = -61;
width = 42;
},
{
position = 0;
width = 53;
},
{
position = 632;
width = 50;
}
);
vhints = (
{
position = 38;
width = 61;
},
{
position = 145;
width = 64;
},
{
position = 276;
width = 43;
},
{
position = 463;
width = 63;
},
{
position = 540;
width = 56;
}
);
};
};
width = 598;
}
);
unicode = 015E;
},
{
glyphname = Scircumflex;
lastChange = "2019-10-15 23:54:51 +0000";
layers = (
{
layerId = master01;
paths = (
{
closed = 1;
nodes = (
"352 0 OFFCURVE",
"494 60 OFFCURVE",
"522 191 CURVE SMOOTH",
"524.532 202.646 OFFCURVE",
"525.797 213.842 OFFCURVE",
"525.797 224.601 CURVE SMOOTH",
"525.797 298.834 OFFCURVE",
"465.532 352.19 OFFCURVE",
"345 388 CURVE SMOOTH",
"255.585 414.192 OFFCURVE",
"209.404 448.542 OFFCURVE",
"209.404 491.785 CURVE SMOOTH",
"209.404 496.421 OFFCURVE",
"209.935 501.159 OFFCURVE",
"211 506 CURVE SMOOTH",
"231 602 OFFCURVE",
"316 632 OFFCURVE",
"403 632 CURVE SMOOTH",
"472.139 632 OFFCURVE",
"540.355 606.181 OFFCURVE",
"540.355 549.231 CURVE SMOOTH",
"540.355 545.816 OFFCURVE",
"539.745 542.063 OFFCURVE",
"539.745 538.704 CURVE SMOOTH",
"539.745 527.194 OFFCURVE",
"549.201 518 OFFCURVE",
"562 518 CURVE SMOOTH",
"578 518 OFFCURVE",
"592 531 OFFCURVE",
"595 548 CURVE SMOOTH",
"595.974 554.941 OFFCURVE",
"596.44 561.533 OFFCURVE",
"596.44 567.794 CURVE SMOOTH",
"596.44 664.361 OFFCURVE",
"485.495 682 OFFCURVE",
"416 682 CURVE SMOOTH",
"302 682 OFFCURVE",
"176 640 OFFCURVE",
"148 509 CURVE SMOOTH",
"145.945 499.657 OFFCURVE",
"144.972 490.734 OFFCURVE",
"144.972 482.211 CURVE SMOOTH",
"144.972 399.511 OFFCURVE",
"236.595 354.571 OFFCURVE",
"320 331 CURVE SMOOTH",
"442.68 295.596 OFFCURVE",
"462.995 248.667 OFFCURVE",
"462.995 216.447 CURVE SMOOTH",
"462.995 209.535 OFFCURVE",
"462.06 203.299 OFFCURVE",
"461 198 CURVE SMOOTH",
"438 93 OFFCURVE",
"334 53 OFFCURVE",
"259 53 CURVE SMOOTH",
"188 53 OFFCURVE",
"109 87 OFFCURVE",
"99 163 CURVE SMOOTH",
"97 177 OFFCURVE",
"89 186 OFFCURVE",
"74 186 CURVE SMOOTH",
"57 186 OFFCURVE",
"41 173 OFFCURVE",
"38 157 CURVE SMOOTH",
"37 152 OFFCURVE",
"37 144 OFFCURVE",
"38 140 CURVE SMOOTH",
"54 58 OFFCURVE",
"136 0 OFFCURVE",
"249 0 CURVE SMOOTH"
);
},
{
closed = 1;
nodes = (
"298 731 OFFCURVE",
"304 732 OFFCURVE",
"310 736 CURVE SMOOTH",
"444 825 LINE",
"521 738 LINE SMOOTH",
"525 733 OFFCURVE",
"532 731 OFFCURVE",
"539 731 CURVE SMOOTH",
"553 731 OFFCURVE",
"567 743 OFFCURVE",
"570 757 CURVE SMOOTH",
"572 765 OFFCURVE",
"571 772 OFFCURVE",
"566 777 CURVE SMOOTH",
"479 887 LINE SMOOTH",
"474 892 OFFCURVE",
"468 895 OFFCURVE",
"461 895 CURVE SMOOTH",
"455 895 OFFCURVE",
"447 893 OFFCURVE",
"440 888 CURVE SMOOTH",
"286 778 LINE SMOOTH",
"278 773 OFFCURVE",
"273 765 OFFCURVE",
"271 757 CURVE SMOOTH",
"270.639 755.194 OFFCURVE",
"270.466 753.446 OFFCURVE",
"270.466 751.768 CURVE SMOOTH",
"270.466 739.511 OFFCURVE",
"279.686 731 OFFCURVE",
"292 731 CURVE SMOOTH"
);
}
);
userData = {
com.fontlab.hintData = {
hhints = (
{
position = 0;
width = 53;
},
{
position = 632;
width = 50;
}
);
vhints = (
{
position = 38;
width = 61;
},
{
position = 145;
width = 64;
},
{
position = 463;
width = 63;
},
{
position = 540;
width = 56;
}
);
};
};
width = 598;
}
);
unicode = 015C;
},
{
glyphname = T;
lastChange = "2019-10-15 23:54:51 +0000";
layers = (
{
layerId = master01;
paths = (
{
closed = 1;
nodes = (
"215 0 OFFCURVE",
"229 13 OFFCURVE",
"232 28 CURVE SMOOTH",
"359 625 LINE",
"561 625 LINE SMOOTH",
"577 625 OFFCURVE",
"592 638 OFFCURVE",
"595 653 CURVE SMOOTH",
"595.597 655.388 OFFCURVE",
"595.882 657.686 OFFCURVE",
"595.882 659.869 CURVE SMOOTH",
"595.882 672.314 OFFCURVE",
"586.612 681 OFFCURVE",
"573 681 CURVE",
"127 681 LINE SMOOTH",
"112 681 OFFCURVE",
"97 669 OFFCURVE",
"93 653 CURVE SMOOTH",
"92.641 651.203 OFFCURVE",
"92.468 649.435 OFFCURVE",
"92.468 647.714 CURVE SMOOTH",
"92.468 635.072 OFFCURVE",
"101.797 625 OFFCURVE",
"115 625 CURVE SMOOTH",
"303 625 LINE",
"176 28 LINE SMOOTH",
"173 13 OFFCURVE",
"184 0 OFFCURVE",
"199 0 CURVE SMOOTH"
);
}
);
userData = {
com.fontlab.hintData = {
hhints = (
{
position = 0;
width = 21;
},
{
position = 625;
width = 56;
}
);
};
};
width = 522;
}
);
unicode = 0054;
},
{
glyphname = Tcaron;
lastChange = "2019-10-15 23:54:51 +0000";
layers = (
{
layerId = master01;
paths = (
{
closed = 1;
nodes = (
"215 0 OFFCURVE",
"229 13 OFFCURVE",
"232 28 CURVE SMOOTH",
"359 625 LINE",
"561 625 LINE SMOOTH",
"577 625 OFFCURVE",
"592 638 OFFCURVE",
"595 653 CURVE SMOOTH",
"595.597 655.388 OFFCURVE",
"595.882 657.686 OFFCURVE",
"595.882 659.869 CURVE SMOOTH",
"595.882 672.314 OFFCURVE",
"586.612 681 OFFCURVE",
"573 681 CURVE",
"127 681 LINE SMOOTH",
"112 681 OFFCURVE",
"97 669 OFFCURVE",
"93 653 CURVE SMOOTH",
"92.641 651.203 OFFCURVE",
"92.468 649.435 OFFCURVE",
"92.468 647.714 CURVE SMOOTH",
"92.468 635.072 OFFCURVE",
"101.797 625 OFFCURVE",
"115 625 CURVE SMOOTH",
"303 625 LINE",
"176 28 LINE SMOOTH",
"173 13 OFFCURVE",
"184 0 OFFCURVE",
"199 0 CURVE SMOOTH"
);
},
{
closed = 1;
nodes = (
"364 722 OFFCURVE",
"371 724 OFFCURVE",
"378 729 CURVE SMOOTH",
"533 839 LINE SMOOTH",
"541 844 OFFCURVE",
"546 852 OFFCURVE",
"547 860 CURVE SMOOTH",
"547.39 861.949 OFFCURVE",
"547.577 863.83 OFFCURVE",
"547.577 865.629 CURVE SMOOTH",
"547.577 877.673 OFFCURVE",
"539.181 886 OFFCURVE",
"527 886 CURVE SMOOTH",
"521 886 OFFCURVE",
"515 885 OFFCURVE",
"509 881 CURVE SMOOTH",
"375 792 LINE",
"297 879 LINE SMOOTH",
"293 884 OFFCURVE",
"287 886 OFFCURVE",
"280 886 CURVE SMOOTH",
"266 886 OFFCURVE",
"251 874 OFFCURVE",
"248 860 CURVE SMOOTH",
"247 852 OFFCURVE",
"248 845 OFFCURVE",
"253 840 CURVE",
"340 730 LINE",
"345 725 OFFCURVE",
"351 722 OFFCURVE",
"358 722 CURVE SMOOTH"
);
}
);
userData = {
com.fontlab.hintData = {
hhints = (
{
position = 0;
width = 21;
},
{
position = 625;
width = 56;
}
);
};
};
width = 522;
}
);
unicode = 0164;
},
{
glyphname = U;
lastChange = "2019-10-15 23:54:51 +0000";
layers = (
{
layerId = master01;
paths = (
{
closed = 1;
nodes = (
"455 0 OFFCURVE",
"555 110 OFFCURVE",
"610 270 CURVE SMOOTH",
"655 400 OFFCURVE",
"677 527 OFFCURVE",
"699 653 CURVE SMOOTH",
"699.359 654.797 OFFCURVE",
"699.532 656.565 OFFCURVE",
"699.532 658.286 CURVE SMOOTH",
"699.532 670.928 OFFCURVE",
"690.203 681 OFFCURVE",
"677 681 CURVE SMOOTH",
"659 681 OFFCURVE",
"646 667 OFFCURVE",
"643 651 CURVE SMOOTH",
"615 518 OFFCURVE",
"594 397 OFFCURVE",
"555 277 CURVE SMOOTH",
"510 139 OFFCURVE",
"425 49 OFFCURVE",
"290 49 CURVE SMOOTH",
"167.05 49 OFFCURVE",
"134.383 140.258 OFFCURVE",
"134.383 244.705 CURVE SMOOTH",
"134.383 289.772 OFFCURVE",
"140.464 337.294 OFFCURVE",
"148 381 CURVE",
"165 474 OFFCURVE",
"185 564 OFFCURVE",
"206 653 CURVE SMOOTH",
"206.562 655.249 OFFCURVE",
"206.828 657.419 OFFCURVE",
"206.828 659.488 CURVE SMOOTH",
"206.828 672.137 OFFCURVE",
"196.891 681 OFFCURVE",
"184 681 CURVE SMOOTH",
"170 681 OFFCURVE",
"154 670 OFFCURVE",
"151 654 CURVE",
"131 569 OFFCURVE",
"108 474 OFFCURVE",
"90 367 CURVE",
"81.27 317.868 OFFCURVE",
"76.909 273.559 OFFCURVE",
"76.909 234.139 CURVE SMOOTH",
"76.909 79.396 OFFCURVE",
"144.108 0 OFFCURVE",
"278 0 CURVE SMOOTH"
);
}
);
userData = {
com.fontlab.hintData = {
hhints = (
{
position = 0;
width = 49;
},
{
position = 661;
width = 20;
}
);
vhints = (
{
position = 77;
width = 57;
}
);
};
};
width = 683;
}
);
unicode = 0055;
},
{
glyphname = Uacute;
lastChange = "2019-10-15 23:54:51 +0000";
layers = (
{
layerId = master01;
paths = (
{
closed = 1;
nodes = (
"455 0 OFFCURVE",
"555 110 OFFCURVE",
"610 270 CURVE SMOOTH",
"655 400 OFFCURVE",
"677 527 OFFCURVE",
"699 653 CURVE SMOOTH",
"699.359 654.797 OFFCURVE",
"699.532 656.565 OFFCURVE",
"699.532 658.286 CURVE SMOOTH",
"699.532 670.928 OFFCURVE",
"690.203 681 OFFCURVE",
"677 681 CURVE SMOOTH",
"659 681 OFFCURVE",
"646 667 OFFCURVE",
"643 651 CURVE SMOOTH",
"615 518 OFFCURVE",
"594 397 OFFCURVE",
"555 277 CURVE SMOOTH",
"510 139 OFFCURVE",
"425 49 OFFCURVE",
"290 49 CURVE SMOOTH",
"167.05 49 OFFCURVE",
"134.383 140.258 OFFCURVE",
"134.383 244.705 CURVE SMOOTH",
"134.383 289.772 OFFCURVE",
"140.464 337.294 OFFCURVE",
"148 381 CURVE",
"165 474 OFFCURVE",
"185 564 OFFCURVE",
"206 653 CURVE SMOOTH",
"206.562 655.249 OFFCURVE",
"206.828 657.419 OFFCURVE",
"206.828 659.488 CURVE SMOOTH",
"206.828 672.137 OFFCURVE",
"196.891 681 OFFCURVE",
"184 681 CURVE SMOOTH",
"170 681 OFFCURVE",
"154 670 OFFCURVE",
"151 654 CURVE",
"131 569 OFFCURVE",
"108 474 OFFCURVE",
"90 367 CURVE",
"81.27 317.868 OFFCURVE",
"76.909 273.559 OFFCURVE",
"76.909 234.139 CURVE SMOOTH",
"76.909 79.396 OFFCURVE",
"144.108 0 OFFCURVE",
"278 0 CURVE SMOOTH"
);
},
{
closed = 1;
nodes = (
"400 732 OFFCURVE",
"409 736 OFFCURVE",
"417 741 CURVE SMOOTH",
"575 835 LINE SMOOTH",
"583 840 OFFCURVE",
"588 849 OFFCURVE",
"590 858 CURVE SMOOTH",
"590.551 860.755 OFFCURVE",
"590.817 863.435 OFFCURVE",
"590.817 866.007 CURVE SMOOTH",
"590.817 882.105 OFFCURVE",
"580.383 894 OFFCURVE",
"564 894 CURVE SMOOTH",
"553 894 OFFCURVE",
"541 886 OFFCURVE",
"531 879 CURVE SMOOTH",
"383 776 LINE SMOOTH",
"378 772 OFFCURVE",
"375 765 OFFCURVE",
"374 759 CURVE SMOOTH",
"373.61 757.051 OFFCURVE",
"373.423 755.153 OFFCURVE",
"373.423 753.325 CURVE SMOOTH",
"373.423 741.084 OFFCURVE",
"381.819 732 OFFCURVE",
"394 732 CURVE SMOOTH"
);
}
);
userData = {
com.fontlab.hintData = {
hhints = (
{
position = 0;
width = 49;
},
{
position = 661;
width = 20;
}
);
vhints = (
{
position = 77;
width = 57;
}
);
};
};
width = 683;
}
);
unicode = 00DA;
},
{
glyphname = Ubreve;
lastChange = "2019-10-15 23:54:51 +0000";
layers = (
{
layerId = master01;
paths = (
{
closed = 1;
nodes = (
"455 0 OFFCURVE",
"555 110 OFFCURVE",
"610 270 CURVE SMOOTH",
"655 400 OFFCURVE",
"677 527 OFFCURVE",
"699 653 CURVE SMOOTH",
"699.359 654.797 OFFCURVE",
"699.532 656.565 OFFCURVE",
"699.532 658.286 CURVE SMOOTH",
"699.532 670.928 OFFCURVE",
"690.203 681 OFFCURVE",
"677 681 CURVE SMOOTH",
"659 681 OFFCURVE",
"646 667 OFFCURVE",
"643 651 CURVE SMOOTH",
"615 518 OFFCURVE",
"594 397 OFFCURVE",
"555 277 CURVE SMOOTH",
"510 139 OFFCURVE",
"425 49 OFFCURVE",
"290 49 CURVE SMOOTH",
"167.05 49 OFFCURVE",
"134.383 140.258 OFFCURVE",
"134.383 244.705 CURVE SMOOTH",
"134.383 289.772 OFFCURVE",
"140.464 337.294 OFFCURVE",
"148 381 CURVE SMOOTH",
"165 474 OFFCURVE",
"185 564 OFFCURVE",
"206 653 CURVE SMOOTH",
"206.562 655.249 OFFCURVE",
"206.828 657.419 OFFCURVE",
"206.828 659.488 CURVE SMOOTH",
"206.828 672.137 OFFCURVE",
"196.891 681 OFFCURVE",
"184 681 CURVE SMOOTH",
"170 681 OFFCURVE",
"154 670 OFFCURVE",
"151 654 CURVE SMOOTH",
"131 569 OFFCURVE",
"108 474 OFFCURVE",
"90 367 CURVE SMOOTH",
"81.27 317.868 OFFCURVE",
"76.909 273.559 OFFCURVE",
"76.909 234.139 CURVE SMOOTH",
"76.909 79.396 OFFCURVE",
"144.108 0 OFFCURVE",
"278 0 CURVE SMOOTH"
);
},
{
closed = 1;
nodes = (
"525 740 OFFCURVE",
"594 814 OFFCURVE",
"603 859 CURVE SMOOTH",
"605 868 OFFCURVE",
"599 876 OFFCURVE",
"590 876 CURVE SMOOTH",
"577 876 OFFCURVE",
"570 867 OFFCURVE",
"562 855 CURVE SMOOTH",
"532 806 OFFCURVE",
"493 786 OFFCURVE",
"442 786 CURVE SMOOTH",
"405 786 OFFCURVE",
"350 803 OFFCURVE",
"336 853 CURVE SMOOTH",
"333 860 OFFCURVE",
"328 871 OFFCURVE",
"317 871 CURVE SMOOTH",
"302 871 OFFCURVE",
"297 860 OFFCURVE",
"296 852 CURVE SMOOTH",
"295.57 850.193 OFFCURVE",
"295.332 847.868 OFFCURVE",
"295.332 845.127 CURVE SMOOTH",
"295.332 816.014 OFFCURVE",
"322.153 740 OFFCURVE",
"430 740 CURVE SMOOTH"
);
}
);
userData = {
com.fontlab.hintData = {
hhints = (
{
position = 0;
width = 49;
},
{
position = 661;
width = 20;
},
{
position = 740;
width = 46;
}
);
vhints = (
{
position = 77;
width = 57;
},
{
position = 296;
width = 40;
},
{
position = 562;
width = 41;
}
);
};
};
width = 683;
}
);
unicode = 016C;
},
{
glyphname = Ucircumflex;
lastChange = "2019-10-15 23:54:51 +0000";
layers = (
{
layerId = master01;
paths = (
{
closed = 1;
nodes = (
"455 0 OFFCURVE",
"555 110 OFFCURVE",
"610 270 CURVE SMOOTH",
"655 400 OFFCURVE",
"677 527 OFFCURVE",
"699 653 CURVE SMOOTH",
"699.359 654.797 OFFCURVE",
"699.532 656.565 OFFCURVE",
"699.532 658.286 CURVE SMOOTH",
"699.532 670.928 OFFCURVE",
"690.203 681 OFFCURVE",
"677 681 CURVE SMOOTH",
"659 681 OFFCURVE",
"646 667 OFFCURVE",
"643 651 CURVE SMOOTH",
"615 518 OFFCURVE",
"594 397 OFFCURVE",
"555 277 CURVE SMOOTH",
"510 139 OFFCURVE",
"425 49 OFFCURVE",
"290 49 CURVE SMOOTH",
"167.05 49 OFFCURVE",
"134.383 140.258 OFFCURVE",
"134.383 244.705 CURVE SMOOTH",
"134.383 289.772 OFFCURVE",
"140.464 337.294 OFFCURVE",
"148 381 CURVE",
"165 474 OFFCURVE",
"185 564 OFFCURVE",
"206 653 CURVE SMOOTH",
"206.562 655.249 OFFCURVE",
"206.828 657.419 OFFCURVE",
"206.828 659.488 CURVE SMOOTH",
"206.828 672.137 OFFCURVE",
"196.891 681 OFFCURVE",
"184 681 CURVE SMOOTH",
"170 681 OFFCURVE",
"154 670 OFFCURVE",
"151 654 CURVE",
"131 569 OFFCURVE",
"108 474 OFFCURVE",
"90 367 CURVE",
"81.27 317.868 OFFCURVE",
"76.909 273.559 OFFCURVE",
"76.909 234.139 CURVE SMOOTH",
"76.909 79.396 OFFCURVE",
"144.108 0 OFFCURVE",
"278 0 CURVE SMOOTH"
);
},
{
closed = 1;
nodes = (
"334 731 OFFCURVE",
"340 732 OFFCURVE",
"346 736 CURVE SMOOTH",
"480 825 LINE",
"557 738 LINE SMOOTH",
"561 733 OFFCURVE",
"568 731 OFFCURVE",
"575 731 CURVE SMOOTH",
"589 731 OFFCURVE",
"603 743 OFFCURVE",
"606 757 CURVE SMOOTH",
"608 765 OFFCURVE",
"607 772 OFFCURVE",
"602 777 CURVE",
"515 887 LINE",
"510 892 OFFCURVE",
"504 895 OFFCURVE",
"497 895 CURVE SMOOTH",
"491 895 OFFCURVE",
"483 893 OFFCURVE",
"476 888 CURVE SMOOTH",
"322 778 LINE SMOOTH",
"314 773 OFFCURVE",
"309 765 OFFCURVE",
"307 757 CURVE SMOOTH",
"306.639 755.194 OFFCURVE",
"306.466 753.446 OFFCURVE",
"306.466 751.768 CURVE SMOOTH",
"306.466 739.511 OFFCURVE",
"315.686 731 OFFCURVE",
"328 731 CURVE SMOOTH"
);
}
);
userData = {
com.fontlab.hintData = {
hhints = (
{
position = 0;
width = 49;
},
{
position = 661;
width = 20;
}
);
vhints = (
{
position = 77;
width = 57;
}
);
};
};
width = 683;
}
);
unicode = 00DB;
},
{
glyphname = Udieresis;
lastChange = "2019-10-15 23:54:51 +0000";
layers = (
{
layerId = master01;
paths = (
{
closed = 1;
nodes = (
"455 0 OFFCURVE",
"555 110 OFFCURVE",
"610 270 CURVE SMOOTH",
"655 400 OFFCURVE",
"677 527 OFFCURVE",
"699 653 CURVE SMOOTH",
"699.359 654.797 OFFCURVE",
"699.532 656.565 OFFCURVE",
"699.532 658.286 CURVE SMOOTH",
"699.532 670.928 OFFCURVE",
"690.203 681 OFFCURVE",
"677 681 CURVE SMOOTH",
"659 681 OFFCURVE",
"646 667 OFFCURVE",
"643 651 CURVE SMOOTH",
"615 518 OFFCURVE",
"594 397 OFFCURVE",
"555 277 CURVE SMOOTH",
"510 139 OFFCURVE",
"425 49 OFFCURVE",
"290 49 CURVE SMOOTH",
"167.05 49 OFFCURVE",
"134.383 140.258 OFFCURVE",
"134.383 244.705 CURVE SMOOTH",
"134.383 289.772 OFFCURVE",
"140.464 337.294 OFFCURVE",
"148 381 CURVE",
"165 474 OFFCURVE",
"185 564 OFFCURVE",
"206 653 CURVE SMOOTH",
"206.562 655.249 OFFCURVE",
"206.828 657.419 OFFCURVE",
"206.828 659.488 CURVE SMOOTH",
"206.828 672.137 OFFCURVE",
"196.891 681 OFFCURVE",
"184 681 CURVE SMOOTH",
"170 681 OFFCURVE",
"154 670 OFFCURVE",
"151 654 CURVE",
"131 569 OFFCURVE",
"108 474 OFFCURVE",
"90 367 CURVE",
"81.27 317.868 OFFCURVE",
"76.909 273.559 OFFCURVE",
"76.909 234.139 CURVE SMOOTH",
"76.909 79.396 OFFCURVE",
"144.108 0 OFFCURVE",
"278 0 CURVE SMOOTH"
);
},
{
closed = 1;
nodes = (
"390 733 OFFCURVE",
"417 753 OFFCURVE",
"422 777 CURVE SMOOTH",
"422.377 779.076 OFFCURVE",
"422.559 781.107 OFFCURVE",
"422.559 783.083 CURVE SMOOTH",
"422.559 802.057 OFFCURVE",
"405.83 816 OFFCURVE",
"385 816 CURVE SMOOTH",
"357 816 OFFCURVE",
"329 795 OFFCURVE",
"325 772 CURVE SMOOTH",
"324.383 769.162 OFFCURVE",
"324.086 766.43 OFFCURVE",
"324.086 763.822 CURVE SMOOTH",
"324.086 745.295 OFFCURVE",
"339.085 733 OFFCURVE",
"361 733 CURVE SMOOTH"
);
},
{
closed = 1;
nodes = (
"549 733 OFFCURVE",
"576 753 OFFCURVE",
"581 777 CURVE SMOOTH",
"581.377 779.076 OFFCURVE",
"581.559 781.107 OFFCURVE",
"581.559 783.083 CURVE SMOOTH",
"581.559 802.057 OFFCURVE",
"564.83 816 OFFCURVE",
"544 816 CURVE SMOOTH",
"516 816 OFFCURVE",
"488 795 OFFCURVE",
"484 772 CURVE SMOOTH",
"483.383 769.162 OFFCURVE",
"483.086 766.43 OFFCURVE",
"483.086 763.822 CURVE SMOOTH",
"483.086 745.295 OFFCURVE",
"498.085 733 OFFCURVE",
"520 733 CURVE SMOOTH"
);
}
);
userData = {
com.fontlab.hintData = {
hhints = (
{
position = 0;
width = 49;
},
{
position = 661;
width = 20;
},
{
position = 733;
width = 83;
}
);
vhints = (
{
position = 77;
width = 57;
},
{
position = 324;
width = 98;
},
{
position = 483;
width = 98;
}
);
};
};
width = 683;
}
);
unicode = 00DC;
},
{
glyphname = Ugrave;
lastChange = "2019-10-15 23:54:51 +0000";
layers = (
{
layerId = master01;
paths = (
{
closed = 1;
nodes = (
"455 0 OFFCURVE",
"555 110 OFFCURVE",
"610 270 CURVE SMOOTH",
"655 400 OFFCURVE",
"677 527 OFFCURVE",
"699 653 CURVE SMOOTH",
"699.359 654.797 OFFCURVE",
"699.532 656.565 OFFCURVE",
"699.532 658.286 CURVE SMOOTH",
"699.532 670.928 OFFCURVE",
"690.203 681 OFFCURVE",
"677 681 CURVE SMOOTH",
"659 681 OFFCURVE",
"646 667 OFFCURVE",
"643 651 CURVE SMOOTH",
"615 518 OFFCURVE",
"594 397 OFFCURVE",
"555 277 CURVE SMOOTH",
"510 139 OFFCURVE",
"425 49 OFFCURVE",
"290 49 CURVE SMOOTH",
"167.05 49 OFFCURVE",
"134.383 140.258 OFFCURVE",
"134.383 244.705 CURVE SMOOTH",
"134.383 289.772 OFFCURVE",
"140.464 337.294 OFFCURVE",
"148 381 CURVE",
"165 474 OFFCURVE",
"185 564 OFFCURVE",
"206 653 CURVE SMOOTH",
"206.562 655.249 OFFCURVE",
"206.828 657.419 OFFCURVE",
"206.828 659.488 CURVE SMOOTH",
"206.828 672.137 OFFCURVE",
"196.891 681 OFFCURVE",
"184 681 CURVE SMOOTH",
"170 681 OFFCURVE",
"154 670 OFFCURVE",
"151 654 CURVE",
"131 569 OFFCURVE",
"108 474 OFFCURVE",
"90 367 CURVE",
"81.27 317.868 OFFCURVE",
"76.909 273.559 OFFCURVE",
"76.909 234.139 CURVE SMOOTH",
"76.909 79.396 OFFCURVE",
"144.108 0 OFFCURVE",
"278 0 CURVE SMOOTH"
);
},
{
closed = 1;
nodes = (
"496 716 OFFCURVE",
"512 727 OFFCURVE",
"515 742 CURVE SMOOTH",
"516 748 OFFCURVE",
"516 753 OFFCURVE",
"512 760 CURVE SMOOTH",
"435 890 LINE",
"429 898 OFFCURVE",
"420 905 OFFCURVE",
"409 905 CURVE SMOOTH",
"391 905 OFFCURVE",
"370 889 OFFCURVE",
"367 871 CURVE SMOOTH",
"365 861 OFFCURVE",
"367 853 OFFCURVE",
"372 846 CURVE SMOOTH",
"465 725 LINE SMOOTH",
"469 720 OFFCURVE",
"474 716 OFFCURVE",
"482 716 CURVE SMOOTH"
);
}
);
userData = {
com.fontlab.hintData = {
hhints = (
{
position = 0;
width = 49;
},
{
position = 661;
width = 20;
}
);
vhints = (
{
position = 77;
width = 57;
}
);
};
};
width = 683;
}
);
unicode = 00D9;
},
{
glyphname = Uhungarumlaut;
lastChange = "2019-10-15 23:54:51 +0000";
layers = (
{
layerId = master01;
paths = (
{
closed = 1;
nodes = (
"455 0 OFFCURVE",
"555 110 OFFCURVE",
"610 270 CURVE SMOOTH",
"655 400 OFFCURVE",
"677 527 OFFCURVE",
"699 653 CURVE SMOOTH",
"699.359 654.797 OFFCURVE",
"699.532 656.565 OFFCURVE",
"699.532 658.286 CURVE SMOOTH",
"699.532 670.928 OFFCURVE",
"690.203 681 OFFCURVE",
"677 681 CURVE SMOOTH",
"659 681 OFFCURVE",
"646 667 OFFCURVE",
"643 651 CURVE SMOOTH",
"615 518 OFFCURVE",
"594 397 OFFCURVE",
"555 277 CURVE SMOOTH",
"510 139 OFFCURVE",
"425 49 OFFCURVE",
"290 49 CURVE SMOOTH",
"167.05 49 OFFCURVE",
"134.383 140.258 OFFCURVE",
"134.383 244.705 CURVE SMOOTH",
"134.383 289.772 OFFCURVE",
"140.464 337.294 OFFCURVE",
"148 381 CURVE",
"165 474 OFFCURVE",
"185 564 OFFCURVE",
"206 653 CURVE SMOOTH",
"206.562 655.249 OFFCURVE",
"206.828 657.419 OFFCURVE",
"206.828 659.488 CURVE SMOOTH",
"206.828 672.137 OFFCURVE",
"196.891 681 OFFCURVE",
"184 681 CURVE SMOOTH",
"170 681 OFFCURVE",
"154 670 OFFCURVE",
"151 654 CURVE",
"131 569 OFFCURVE",
"108 474 OFFCURVE",
"90 367 CURVE",
"81.27 317.868 OFFCURVE",
"76.909 273.559 OFFCURVE",
"76.909 234.139 CURVE SMOOTH",
"76.909 79.396 OFFCURVE",
"144.108 0 OFFCURVE",
"278 0 CURVE SMOOTH"
);
},
{
closed = 1;
nodes = (
"331 721 OFFCURVE",
"340 725 OFFCURVE",
"348 730 CURVE SMOOTH",
"506 824 LINE SMOOTH",
"514 829 OFFCURVE",
"519 838 OFFCURVE",
"521 847 CURVE SMOOTH",
"521.519 849.595 OFFCURVE",
"521.769 852.122 OFFCURVE",
"521.769 854.556 CURVE SMOOTH",
"521.769 870.882 OFFCURVE",
"510.535 883 OFFCURVE",
"494 883 CURVE SMOOTH",
"483 883 OFFCURVE",
"471 875 OFFCURVE",
"462 868 CURVE SMOOTH",
"314 765 LINE SMOOTH",
"308 761 OFFCURVE",
"306 754 OFFCURVE",
"304 748 CURVE SMOOTH",
"303.639 746.194 OFFCURVE",
"303.466 744.431 OFFCURVE",
"303.466 742.728 CURVE SMOOTH",
"303.466 730.284 OFFCURVE",
"312.686 721 OFFCURVE",
"325 721 CURVE SMOOTH"
);
},
{
closed = 1;
nodes = (
"491 721 OFFCURVE",
"500 725 OFFCURVE",
"508 730 CURVE SMOOTH",
"666 824 LINE SMOOTH",
"674 829 OFFCURVE",
"679 838 OFFCURVE",
"681 847 CURVE SMOOTH",
"681.519 849.595 OFFCURVE",
"681.769 852.122 OFFCURVE",
"681.769 854.556 CURVE SMOOTH",
"681.769 870.882 OFFCURVE",
"670.535 883 OFFCURVE",
"654 883 CURVE SMOOTH",
"643 883 OFFCURVE",
"631 875 OFFCURVE",
"622 868 CURVE SMOOTH",
"474 765 LINE SMOOTH",
"468 761 OFFCURVE",
"466 754 OFFCURVE",
"464 748 CURVE SMOOTH",
"463.639 746.194 OFFCURVE",
"463.466 744.431 OFFCURVE",
"463.466 742.728 CURVE SMOOTH",
"463.466 730.284 OFFCURVE",
"472.686 721 OFFCURVE",
"485 721 CURVE SMOOTH"
);
}
);
userData = {
com.fontlab.hintData = {
hhints = (
{
position = 0;
width = 49;
},
{
position = 661;
width = 20;
}
);
vhints = (
{
position = 77;
width = 57;
}
);
};
};
width = 683;
}
);
unicode = 0170;
},
{
glyphname = Uring;
lastChange = "2019-10-15 23:54:51 +0000";
layers = (
{
layerId = master01;
paths = (
{
closed = 1;
nodes = (
"455 0 OFFCURVE",
"555 110 OFFCURVE",
"610 270 CURVE SMOOTH",
"655 400 OFFCURVE",
"677 527 OFFCURVE",
"699 653 CURVE SMOOTH",
"699.359 654.797 OFFCURVE",
"699.532 656.565 OFFCURVE",
"699.532 658.286 CURVE SMOOTH",
"699.532 670.928 OFFCURVE",
"690.203 681 OFFCURVE",
"677 681 CURVE SMOOTH",
"659 681 OFFCURVE",
"646 667 OFFCURVE",
"643 651 CURVE SMOOTH",
"615 518 OFFCURVE",
"594 397 OFFCURVE",
"555 277 CURVE SMOOTH",
"510 139 OFFCURVE",
"425 49 OFFCURVE",
"290 49 CURVE SMOOTH",
"167.05 49 OFFCURVE",
"134.383 140.258 OFFCURVE",
"134.383 244.705 CURVE SMOOTH",
"134.383 289.772 OFFCURVE",
"140.464 337.294 OFFCURVE",
"148 381 CURVE",
"165 474 OFFCURVE",
"185 564 OFFCURVE",
"206 653 CURVE SMOOTH",
"206.562 655.249 OFFCURVE",
"206.828 657.419 OFFCURVE",
"206.828 659.488 CURVE SMOOTH",
"206.828 672.137 OFFCURVE",
"196.891 681 OFFCURVE",
"184 681 CURVE SMOOTH",
"170 681 OFFCURVE",
"154 670 OFFCURVE",
"151 654 CURVE",
"131 569 OFFCURVE",
"108 474 OFFCURVE",
"90 367 CURVE",
"81.27 317.868 OFFCURVE",
"76.909 273.559 OFFCURVE",
"76.909 234.139 CURVE SMOOTH",
"76.909 79.396 OFFCURVE",
"144.108 0 OFFCURVE",
"278 0 CURVE SMOOTH"
);
},
{
closed = 1;
nodes = (
"505 721 OFFCURVE",
"583 768 OFFCURVE",
"597 837 CURVE",
"598.549 843.91 OFFCURVE",
"599.289 850.636 OFFCURVE",
"599.289 857.123 CURVE SMOOTH",
"599.289 905.084 OFFCURVE",
"558.852 940 OFFCURVE",
"506 940 CURVE SMOOTH",
"438 940 OFFCURVE",
"360 891 OFFCURVE",
"345 823 CURVE SMOOTH",
"343.641 816.542 OFFCURVE",
"342.987 810.239 OFFCURVE",
"342.987 804.137 CURVE SMOOTH",
"342.987 756.381 OFFCURVE",
"383.024 721 OFFCURVE",
"438 721 CURVE SMOOTH"
);
},
{
closed = 1;
nodes = (
"415.362 767 OFFCURVE",
"386.014 784.206 OFFCURVE",
"386.014 813.427 CURVE SMOOTH",
"386.014 816.488 OFFCURVE",
"386.336 819.681 OFFCURVE",
"387 823 CURVE SMOOTH",
"394 853 OFFCURVE",
"438 893 OFFCURVE",
"492 893 CURVE SMOOTH",
"530.876 893 OFFCURVE",
"555.857 869.296 OFFCURVE",
"555.857 843.318 CURVE SMOOTH",
"555.857 840.563 OFFCURVE",
"555.575 837.781 OFFCURVE",
"555 835 CURVE SMOOTH",
"546 793 OFFCURVE",
"492 767 OFFCURVE",
"457 767 CURVE SMOOTH"
);
}
);
userData = {
com.fontlab.hintData = {
hhints = (
{
position = 0;
width = 49;
},
{
position = 661;
width = 20;
},
{
position = 721;
width = 46;
},
{
position = 893;
width = 47;
}
);
vhints = (
{
position = 77;
width = 57;
},
{
position = 343;
width = 43;
},
{
position = 556;
width = 43;
}
);
};
};
width = 683;
}
);
unicode = 016E;
},
{
glyphname = V;
lastChange = "2019-10-15 23:54:51 +0000";
layers = (
{
layerId = master01;
paths = (
{
closed = 1;
nodes = (
"206 0 OFFCURVE",
"217 7 OFFCURVE",
"224 18 CURVE SMOOTH",
"603 642 LINE SMOOTH",
"605 646 OFFCURVE",
"606 649 OFFCURVE",
"607 653 CURVE SMOOTH",
"607.417 654.946 OFFCURVE",
"607.621 656.873 OFFCURVE",
"607.621 658.748 CURVE SMOOTH",
"607.621 670.363 OFFCURVE",
"599.776 680 OFFCURVE",
"586 680 CURVE SMOOTH",
"574 680 OFFCURVE",
"563 674 OFFCURVE",
"555 663 CURVE",
"220 110 LINE",
"151 661 LINE SMOOTH",
"150 673 OFFCURVE",
"140 680 OFFCURVE",
"128 680 CURVE SMOOTH",
"110 680 OFFCURVE",
"97 668 OFFCURVE",
"94 653 CURVE SMOOTH",
"94 650 OFFCURVE",
"93 643 OFFCURVE",
"94 638 CURVE SMOOTH",
"172 19 LINE SMOOTH",
"173 8 OFFCURVE",
"183 0 OFFCURVE",
"195 0 CURVE SMOOTH"
);
}
);
userData = {
com.fontlab.hintData = {
hhints = (
{
position = 0;
width = 21;
}
);
vhints = (
{
position = 94;
width = 57;
}
);
};
};
width = 535;
}
);
unicode = 0056;
},
{
glyphname = W;
lastChange = "2019-10-15 23:54:51 +0000";
layers = (
{
layerId = master01;
paths = (
{
closed = 1;
nodes = (
"186 0 OFFCURVE",
"197 6 OFFCURVE",
"204 19 CURVE SMOOTH",
"491 556 LINE",
"525 20 LINE",
"525 7 OFFCURVE",
"534 0 OFFCURVE",
"548 0 CURVE SMOOTH",
"560 0 OFFCURVE",
"571 7 OFFCURVE",
"577 18 CURVE SMOOTH",
"935 644 LINE SMOOTH",
"937.45 647.675 OFFCURVE",
"940.276 652.438 OFFCURVE",
"940.276 658.367 CURVE SMOOTH",
"940.276 669.469 OFFCURVE",
"931.521 681 OFFCURVE",
"917 681 CURVE SMOOTH",
"906 681 OFFCURVE",
"894 674 OFFCURVE",
"887 663 CURVE SMOOTH",
"576 120 LINE",
"542 661 LINE",
"542 673 OFFCURVE",
"532 681 OFFCURVE",
"520 681 CURVE SMOOTH",
"507 681 OFFCURVE",
"496 675 OFFCURVE",
"489 662 CURVE SMOOTH",
"199 121 LINE",
"150 661 LINE SMOOTH",
"149 673 OFFCURVE",
"140 681 OFFCURVE",
"127 681 CURVE SMOOTH",
"112 681 OFFCURVE",
"98 670 OFFCURVE",
"95 654 CURVE SMOOTH",
"94 651 OFFCURVE",
"94 645 OFFCURVE",
"95 632 CURVE SMOOTH",
"151 19 LINE",
"151 8 OFFCURVE",
"161 0 OFFCURVE",
"173 0 CURVE SMOOTH"
);
}
);
userData = {
com.fontlab.hintData = {
hhints = (
{
position = 0;
width = 21;
},
{
position = 661;
width = 20;
}
);
vhints = (
{
position = 95;
width = 55;
}
);
};
};
width = 867;
}
);
unicode = 0057;
},
{
glyphname = X;
lastChange = "2019-10-15 23:54:51 +0000";
layers = (
{
layerId = master01;
paths = (
{
closed = 1;
nodes = (
"32 0 OFFCURVE",
"40 3 OFFCURVE",
"47 10 CURVE SMOOTH",
"352 301 LINE",
"523 10 LINE SMOOTH",
"527 3 OFFCURVE",
"535 0 OFFCURVE",
"543 0 CURVE SMOOTH",
"558 0 OFFCURVE",
"572 13 OFFCURVE",
"575 28 CURVE SMOOTH",
"577 34 OFFCURVE",
"577 40 OFFCURVE",
"574 45 CURVE SMOOTH",
"399 345 LINE",
"703 635 LINE SMOOTH",
"709 640 OFFCURVE",
"713 647 OFFCURVE",
"715 654 CURVE",
"717 668 OFFCURVE",
"707 681 OFFCURVE",
"692 681 CURVE SMOOTH",
"684 681 OFFCURVE",
"676 678 OFFCURVE",
"668 671 CURVE SMOOTH",
"372 390 LINE",
"209 671 LINE SMOOTH",
"205 678 OFFCURVE",
"197 681 OFFCURVE",
"189 681 CURVE SMOOTH",
"174 681 OFFCURVE",
"158 669 OFFCURVE",
"155 654 CURVE SMOOTH",
"153 647 OFFCURVE",
"155 641 OFFCURVE",
"158 636 CURVE SMOOTH",
"327 346 LINE",
"11 46 LINE SMOOTH",
"6 41 OFFCURVE",
"2 34 OFFCURVE",
"0 28 CURVE SMOOTH",
"-0.356 26.339 OFFCURVE",
"-0.529 24.678 OFFCURVE",
"-0.529 23.041 CURVE SMOOTH",
"-0.529 10.875 OFFCURVE",
"9.017 0 OFFCURVE",
"24 0 CURVE SMOOTH"
);
}
);
userData = {
com.fontlab.hintData = {
hhints = (
{
position = 0;
width = 21;
},
{
position = 661;
width = 20;
}
);
};
};
width = 681;
}
);
unicode = 0058;
},
{
glyphname = Y;
lastChange = "2019-10-15 23:54:51 +0000";
layers = (
{
layerId = master01;
paths = (
{
closed = 1;
nodes = (
"148 0 OFFCURVE",
"158 5 OFFCURVE",
"164 14 CURVE",
"663 632 LINE SMOOTH",
"672 644 OFFCURVE",
"674 648 OFFCURVE",
"675 653 CURVE SMOOTH",
"675.531 655.123 OFFCURVE",
"675.78 657.176 OFFCURVE",
"675.78 659.14 CURVE SMOOTH",
"675.78 671.974 OFFCURVE",
"665.142 681 OFFCURVE",
"653 681 CURVE SMOOTH",
"643 681 OFFCURVE",
"633 676 OFFCURVE",
"626 667 CURVE SMOOTH",
"306 269 LINE",
"158 667 LINE SMOOTH",
"155 676 OFFCURVE",
"147 681 OFFCURVE",
"138 681 CURVE SMOOTH",
"122 681 OFFCURVE",
"106 668 OFFCURVE",
"103 653 CURVE SMOOTH",
"102 648 OFFCURVE",
"103 642 OFFCURVE",
"105 635 CURVE SMOOTH",
"261 214 LINE",
"125 46 LINE SMOOTH",
"121 41 OFFCURVE",
"117 34 OFFCURVE",
"115 28 CURVE SMOOTH",
"114.642 26.331 OFFCURVE",
"114.469 24.662 OFFCURVE",
"114.469 23.017 CURVE SMOOTH",
"114.469 10.861 OFFCURVE",
"123.907 0 OFFCURVE",
"138 0 CURVE SMOOTH"
);
}
);
userData = {
com.fontlab.hintData = {
hhints = (
{
position = 0;
width = 21;
},
{
position = 661;
width = 20;
}
);
};
};
width = 593;
}
);
unicode = 0059;
},
{
glyphname = Yacute;
lastChange = "2019-10-15 23:54:51 +0000";
layers = (
{
layerId = master01;
paths = (
{
closed = 1;
nodes = (
"148 0 OFFCURVE",
"158 5 OFFCURVE",
"164 14 CURVE",
"663 632 LINE SMOOTH",
"672 644 OFFCURVE",
"674 648 OFFCURVE",
"675 653 CURVE SMOOTH",
"675.531 655.123 OFFCURVE",
"675.78 657.176 OFFCURVE",
"675.78 659.14 CURVE SMOOTH",
"675.78 671.974 OFFCURVE",
"665.142 681 OFFCURVE",
"653 681 CURVE SMOOTH",
"643 681 OFFCURVE",
"633 676 OFFCURVE",
"626 667 CURVE SMOOTH",
"306 269 LINE",
"158 667 LINE SMOOTH",
"155 676 OFFCURVE",
"147 681 OFFCURVE",
"138 681 CURVE SMOOTH",
"122 681 OFFCURVE",
"106 668 OFFCURVE",
"103 653 CURVE SMOOTH",
"102 648 OFFCURVE",
"103 642 OFFCURVE",
"105 635 CURVE SMOOTH",
"261 214 LINE",
"125 46 LINE SMOOTH",
"121 41 OFFCURVE",
"117 34 OFFCURVE",
"115 28 CURVE SMOOTH",
"114.642 26.331 OFFCURVE",
"114.469 24.662 OFFCURVE",
"114.469 23.017 CURVE SMOOTH",
"114.469 10.861 OFFCURVE",
"123.907 0 OFFCURVE",
"138 0 CURVE SMOOTH"
);
},
{
closed = 1;
nodes = (
"355 750 OFFCURVE",
"364 754 OFFCURVE",
"372 759 CURVE SMOOTH",
"530 853 LINE SMOOTH",
"538 858 OFFCURVE",
"543 867 OFFCURVE",
"545 876 CURVE SMOOTH",
"545.519 878.595 OFFCURVE",
"545.769 881.122 OFFCURVE",
"545.769 883.556 CURVE SMOOTH",
"545.769 899.882 OFFCURVE",
"534.535 912 OFFCURVE",
"518 912 CURVE SMOOTH",
"507 912 OFFCURVE",
"496 904 OFFCURVE",
"486 897 CURVE SMOOTH",
"338 794 LINE SMOOTH",
"332 790 OFFCURVE",
"330 783 OFFCURVE",
"329 777 CURVE SMOOTH",
"328.396 774.735 OFFCURVE",
"328.111 772.538 OFFCURVE",
"328.111 770.441 CURVE SMOOTH",
"328.111 758.65 OFFCURVE",
"337.114 750 OFFCURVE",
"349 750 CURVE SMOOTH"
);
}
);
userData = {
com.fontlab.hintData = {
hhints = (
{
position = 0;
width = 21;
},
{
position = 661;
width = 20;
}
);
};
};
width = 593;
}
);
unicode = 00DD;
},
{
glyphname = Ydieresis;
lastChange = "2019-10-15 23:54:51 +0000";
layers = (
{
layerId = master01;
paths = (
{
closed = 1;
nodes = (
"148 0 OFFCURVE",
"158 5 OFFCURVE",
"164 14 CURVE",
"663 632 LINE SMOOTH",
"672 644 OFFCURVE",
"674 648 OFFCURVE",
"675 653 CURVE SMOOTH",
"675.531 655.123 OFFCURVE",
"675.78 657.176 OFFCURVE",
"675.78 659.14 CURVE SMOOTH",
"675.78 671.974 OFFCURVE",
"665.142 681 OFFCURVE",
"653 681 CURVE SMOOTH",
"643 681 OFFCURVE",
"633 676 OFFCURVE",
"626 667 CURVE SMOOTH",
"306 269 LINE",
"158 667 LINE SMOOTH",
"155 676 OFFCURVE",
"147 681 OFFCURVE",
"138 681 CURVE SMOOTH",
"122 681 OFFCURVE",
"106 668 OFFCURVE",
"103 653 CURVE SMOOTH",
"102 648 OFFCURVE",
"103 642 OFFCURVE",
"105 635 CURVE SMOOTH",
"261 214 LINE",
"125 46 LINE SMOOTH",
"121 41 OFFCURVE",
"117 34 OFFCURVE",
"115 28 CURVE SMOOTH",
"114.642 26.331 OFFCURVE",
"114.469 24.662 OFFCURVE",
"114.469 23.017 CURVE SMOOTH",
"114.469 10.861 OFFCURVE",
"123.907 0 OFFCURVE",
"138 0 CURVE SMOOTH"
);
},
{
closed = 1;
nodes = (
"348 723 OFFCURVE",
"374 743 OFFCURVE",
"380 767 CURVE",
"380.377 769.076 OFFCURVE",
"380.559 771.107 OFFCURVE",
"380.559 773.083 CURVE SMOOTH",
"380.559 792.057 OFFCURVE",
"363.83 806 OFFCURVE",
"343 806 CURVE SMOOTH",
"315 806 OFFCURVE",
"287 785 OFFCURVE",
"282 762 CURVE SMOOTH",
"281.588 759.633 OFFCURVE",
"281.389 757.34 OFFCURVE",
"281.389 755.131 CURVE SMOOTH",
"281.389 735.876 OFFCURVE",
"296.573 723 OFFCURVE",
"319 723 CURVE SMOOTH"
);
},
{
closed = 1;
nodes = (
"507 723 OFFCURVE",
"533 743 OFFCURVE",
"539 767 CURVE",
"539.377 769.076 OFFCURVE",
"539.559 771.107 OFFCURVE",
"539.559 773.083 CURVE SMOOTH",
"539.559 792.057 OFFCURVE",
"522.83 806 OFFCURVE",
"502 806 CURVE SMOOTH",
"474 806 OFFCURVE",
"446 785 OFFCURVE",
"441 762 CURVE SMOOTH",
"440.588 759.633 OFFCURVE",
"440.389 757.34 OFFCURVE",
"440.389 755.131 CURVE SMOOTH",
"440.389 735.876 OFFCURVE",
"455.573 723 OFFCURVE",
"478 723 CURVE SMOOTH"
);
}
);
userData = {
com.fontlab.hintData = {
hhints = (
{
position = 0;
width = 21;
},
{
position = 661;
width = 20;
},
{
position = 723;
width = 83;
}
);
vhints = (
{
position = 281;
width = 99;
},
{
position = 440;
width = 99;
}
);
};
};
width = 593;
}
);
unicode = 0178;
},
{
glyphname = Z;
lastChange = "2019-10-15 23:54:51 +0000";
layers = (
{
layerId = master01;
paths = (
{
closed = 1;
nodes = (
"488 0 LINE SMOOTH",
"504 0 OFFCURVE",
"519 14 OFFCURVE",
"523 30 CURVE",
"523.358 32.027 OFFCURVE",
"523.531 33.996 OFFCURVE",
"523.531 35.894 CURVE SMOOTH",
"523.531 49.915 OFFCURVE",
"514.093 60 OFFCURVE",
"500 60 CURVE SMOOTH",
"83 60 LINE",
"659 626 LINE",
"664 632 OFFCURVE",
"669 639 OFFCURVE",
"671 648 CURVE SMOOTH",
"671.521 650.346 OFFCURVE",
"671.771 652.623 OFFCURVE",
"671.771 654.811 CURVE SMOOTH",
"671.771 669.411 OFFCURVE",
"660.654 680 OFFCURVE",
"645 680 CURVE SMOOTH",
"183 680 LINE SMOOTH",
"167 680 OFFCURVE",
"151 666 OFFCURVE",
"148 650 CURVE SMOOTH",
"147.403 647.463 OFFCURVE",
"147.118 644.993 OFFCURVE",
"147.118 642.627 CURVE SMOOTH",
"147.118 629.134 OFFCURVE",
"156.388 619 OFFCURVE",
"170 619 CURVE SMOOTH",
"587 619 LINE",
"12 55 LINE",
"6 48 OFFCURVE",
"1 40 OFFCURVE",
"-1 30 CURVE SMOOTH",
"-1.292 28.249 OFFCURVE",
"-1.432 26.554 OFFCURVE",
"-1.432 24.922 CURVE SMOOTH",
"-1.432 9.778 OFFCURVE",
"10.654 0 OFFCURVE",
"26 0 CURVE SMOOTH"
);
}
);
userData = {
com.fontlab.hintData = {
hhints = (
{
position = 0;
width = 60;
},
{
position = 619;
width = 61;
}
);
};
};
width = 639;
}
);
unicode = 005A;
},
{
glyphname = Zacute;
lastChange = "2019-10-15 23:54:51 +0000";
layers = (
{
layerId = master01;
paths = (
{
closed = 1;
nodes = (
"488 0 LINE SMOOTH",
"504 0 OFFCURVE",
"519 14 OFFCURVE",
"523 30 CURVE",
"523.358 32.027 OFFCURVE",
"523.531 33.996 OFFCURVE",
"523.531 35.894 CURVE SMOOTH",
"523.531 49.915 OFFCURVE",
"514.093 60 OFFCURVE",
"500 60 CURVE SMOOTH",
"83 60 LINE",
"659 626 LINE",
"664 632 OFFCURVE",
"669 639 OFFCURVE",
"671 648 CURVE SMOOTH",
"671.521 650.346 OFFCURVE",
"671.771 652.623 OFFCURVE",
"671.771 654.811 CURVE SMOOTH",
"671.771 669.411 OFFCURVE",
"660.654 680 OFFCURVE",
"645 680 CURVE SMOOTH",
"183 680 LINE SMOOTH",
"167 680 OFFCURVE",
"151 666 OFFCURVE",
"148 650 CURVE SMOOTH",
"147.403 647.463 OFFCURVE",
"147.118 644.993 OFFCURVE",
"147.118 642.627 CURVE SMOOTH",
"147.118 629.134 OFFCURVE",
"156.388 619 OFFCURVE",
"170 619 CURVE SMOOTH",
"587 619 LINE",
"12 55 LINE",
"6 48 OFFCURVE",
"1 40 OFFCURVE",
"-1 30 CURVE SMOOTH",
"-1.292 28.249 OFFCURVE",
"-1.432 26.554 OFFCURVE",
"-1.432 24.922 CURVE SMOOTH",
"-1.432 9.778 OFFCURVE",
"10.654 0 OFFCURVE",
"26 0 CURVE SMOOTH"
);
},
{
closed = 1;
nodes = (
"387 750 OFFCURVE",
"396 754 OFFCURVE",
"404 759 CURVE SMOOTH",
"562 853 LINE SMOOTH",
"570 858 OFFCURVE",
"575 867 OFFCURVE",
"577 876 CURVE SMOOTH",
"577.519 878.595 OFFCURVE",
"577.769 881.122 OFFCURVE",
"577.769 883.556 CURVE SMOOTH",
"577.769 899.882 OFFCURVE",
"566.535 912 OFFCURVE",
"550 912 CURVE SMOOTH",
"539 912 OFFCURVE",
"528 904 OFFCURVE",
"518 897 CURVE SMOOTH",
"370 794 LINE SMOOTH",
"364 790 OFFCURVE",
"362 783 OFFCURVE",
"361 777 CURVE SMOOTH",
"360.396 774.735 OFFCURVE",
"360.111 772.538 OFFCURVE",
"360.111 770.441 CURVE SMOOTH",
"360.111 758.65 OFFCURVE",
"369.114 750 OFFCURVE",
"381 750 CURVE SMOOTH"
);
}
);
userData = {
com.fontlab.hintData = {
hhints = (
{
position = 0;
width = 60;
},
{
position = 619;
width = 61;
}
);
};
};
width = 639;
}
);
unicode = 0179;
},
{
glyphname = Zcaron;
lastChange = "2019-10-15 23:54:51 +0000";
layers = (
{
layerId = master01;
paths = (
{
closed = 1;
nodes = (
"488 0 LINE SMOOTH",
"504 0 OFFCURVE",
"519 14 OFFCURVE",
"523 30 CURVE",
"523.358 32.027 OFFCURVE",
"523.531 33.996 OFFCURVE",
"523.531 35.894 CURVE SMOOTH",
"523.531 49.915 OFFCURVE",
"514.093 60 OFFCURVE",
"500 60 CURVE SMOOTH",
"83 60 LINE",
"659 626 LINE",
"664 632 OFFCURVE",
"669 639 OFFCURVE",
"671 648 CURVE SMOOTH",
"671.521 650.346 OFFCURVE",
"671.771 652.623 OFFCURVE",
"671.771 654.811 CURVE SMOOTH",
"671.771 669.411 OFFCURVE",
"660.654 680 OFFCURVE",
"645 680 CURVE SMOOTH",
"183 680 LINE SMOOTH",
"167 680 OFFCURVE",
"151 666 OFFCURVE",
"148 650 CURVE SMOOTH",
"147.403 647.463 OFFCURVE",
"147.118 644.993 OFFCURVE",
"147.118 642.627 CURVE SMOOTH",
"147.118 629.134 OFFCURVE",
"156.388 619 OFFCURVE",
"170 619 CURVE SMOOTH",
"587 619 LINE",
"12 55 LINE",
"6 48 OFFCURVE",
"1 40 OFFCURVE",
"-1 30 CURVE SMOOTH",
"-1.292 28.249 OFFCURVE",
"-1.432 26.554 OFFCURVE",
"-1.432 24.922 CURVE SMOOTH",
"-1.432 9.778 OFFCURVE",
"10.654 0 OFFCURVE",
"26 0 CURVE SMOOTH"
);
},
{
closed = 1;
nodes = (
"418 730 OFFCURVE",
"425 732 OFFCURVE",
"432 737 CURVE SMOOTH",
"587 847 LINE SMOOTH",
"595 852 OFFCURVE",
"599 860 OFFCURVE",
"601 868 CURVE SMOOTH",
"601.39 869.949 OFFCURVE",
"601.577 871.83 OFFCURVE",
"601.577 873.629 CURVE SMOOTH",
"601.577 885.673 OFFCURVE",
"593.181 894 OFFCURVE",
"581 894 CURVE SMOOTH",
"575 894 OFFCURVE",
"568 893 OFFCURVE",
"562 889 CURVE SMOOTH",
"429 800 LINE",
"351 887 LINE SMOOTH",
"347 892 OFFCURVE",
"341 894 OFFCURVE",
"334 894 CURVE SMOOTH",
"320 894 OFFCURVE",
"305 882 OFFCURVE",
"302 868 CURVE SMOOTH",
"300 860 OFFCURVE",
"302 853 OFFCURVE",
"307 848 CURVE",
"393 738 LINE",
"398 733 OFFCURVE",
"405 730 OFFCURVE",
"412 730 CURVE SMOOTH"
);
}
);
userData = {
com.fontlab.hintData = {
hhints = (
{
position = 0;
width = 60;
},
{
position = 619;
width = 61;
}
);
};
};
width = 639;
}
);
unicode = 017D;
},
{
glyphname = Zdotaccent;
lastChange = "2019-10-15 23:54:51 +0000";
layers = (
{
layerId = master01;
paths = (
{
closed = 1;
nodes = (
"488 0 LINE SMOOTH",
"504 0 OFFCURVE",
"519 14 OFFCURVE",
"523 30 CURVE",
"523.358 32.027 OFFCURVE",
"523.531 33.996 OFFCURVE",
"523.531 35.894 CURVE SMOOTH",
"523.531 49.915 OFFCURVE",
"514.093 60 OFFCURVE",
"500 60 CURVE SMOOTH",
"83 60 LINE",
"659 626 LINE",
"664 632 OFFCURVE",
"669 639 OFFCURVE",
"671 648 CURVE SMOOTH",
"671.521 650.346 OFFCURVE",
"671.771 652.623 OFFCURVE",
"671.771 654.811 CURVE SMOOTH",
"671.771 669.411 OFFCURVE",
"660.654 680 OFFCURVE",
"645 680 CURVE SMOOTH",
"183 680 LINE SMOOTH",
"167 680 OFFCURVE",
"151 666 OFFCURVE",
"148 650 CURVE SMOOTH",
"147.403 647.463 OFFCURVE",
"147.118 644.993 OFFCURVE",
"147.118 642.627 CURVE SMOOTH",
"147.118 629.134 OFFCURVE",
"156.388 619 OFFCURVE",
"170 619 CURVE SMOOTH",
"587 619 LINE",
"12 55 LINE",
"6 48 OFFCURVE",
"1 40 OFFCURVE",
"-1 30 CURVE SMOOTH",
"-1.292 28.249 OFFCURVE",
"-1.432 26.554 OFFCURVE",
"-1.432 24.922 CURVE SMOOTH",
"-1.432 9.778 OFFCURVE",
"10.654 0 OFFCURVE",
"26 0 CURVE SMOOTH"
);
},
{
closed = 1;
nodes = (
"460 733 OFFCURVE",
"487 753 OFFCURVE",
"492 777 CURVE SMOOTH",
"492.377 779.076 OFFCURVE",
"492.559 781.107 OFFCURVE",
"492.559 783.083 CURVE SMOOTH",
"492.559 802.057 OFFCURVE",
"475.83 816 OFFCURVE",
"455 816 CURVE SMOOTH",
"427 816 OFFCURVE",
"399 795 OFFCURVE",
"395 772 CURVE SMOOTH",
"394.383 769.162 OFFCURVE",
"394.086 766.43 OFFCURVE",
"394.086 763.822 CURVE SMOOTH",
"394.086 745.295 OFFCURVE",
"409.085 733 OFFCURVE",
"431 733 CURVE SMOOTH"
);
}
);
userData = {
com.fontlab.hintData = {
hhints = (
{
position = 0;
width = 60;
},
{
position = 619;
width = 61;
},
{
position = 733;
width = 83;
}
);
vhints = (
{
position = 394;
width = 98;
}
);
};
};
width = 639;
}
);
unicode = 017B;
},
{
glyphname = uni0162;
lastChange = "2019-10-15 23:54:51 +0000";
layers = (
{
layerId = master01;
paths = (
{
closed = 1;
nodes = (
"215 0 OFFCURVE",
"229 13 OFFCURVE",
"232 28 CURVE SMOOTH",
"359 625 LINE",
"561 625 LINE SMOOTH",
"577 625 OFFCURVE",
"592 638 OFFCURVE",
"595 653 CURVE SMOOTH",
"595.597 655.388 OFFCURVE",
"595.882 657.686 OFFCURVE",
"595.882 659.869 CURVE SMOOTH",
"595.882 672.314 OFFCURVE",
"586.612 681 OFFCURVE",
"573 681 CURVE",
"127 681 LINE SMOOTH",
"112 681 OFFCURVE",
"97 669 OFFCURVE",
"93 653 CURVE SMOOTH",
"92.641 651.203 OFFCURVE",
"92.468 649.435 OFFCURVE",
"92.468 647.714 CURVE SMOOTH",
"92.468 635.072 OFFCURVE",
"101.797 625 OFFCURVE",
"115 625 CURVE SMOOTH",
"303 625 LINE",
"176 28 LINE SMOOTH",
"173 13 OFFCURVE",
"184 0 OFFCURVE",
"199 0 CURVE SMOOTH"
);
},
{
closed = 1;
nodes = (
"154 -198 OFFCURVE",
"159 -182 OFFCURVE",
"195 -124 CURVE SMOOTH",
"218 -88 OFFCURVE",
"224 -79 OFFCURVE",
"228 -60 CURVE SMOOTH",
"228.354 -58.229 OFFCURVE",
"228.527 -56.43 OFFCURVE",
"228.527 -54.635 CURVE SMOOTH",
"228.527 -41.223 OFFCURVE",
"218.875 -28 OFFCURVE",
"203 -28 CURVE SMOOTH",
"182 -28 OFFCURVE",
"158 -49 OFFCURVE",
"153 -73 CURVE SMOOTH",
"152.196 -76.215 OFFCURVE",
"151.823 -79.359 OFFCURVE",
"151.823 -82.373 CURVE SMOOTH",
"151.823 -90.608 OFFCURVE",
"154.608 -97.876 OFFCURVE",
"159 -103 CURVE",
"121 -167 LINE SMOOTH",
"118.435 -170.848 OFFCURVE",
"116.662 -174.566 OFFCURVE",
"116.662 -179.988 CURVE SMOOTH",
"116.662 -190.137 OFFCURVE",
"123.472 -198 OFFCURVE",
"135 -198 CURVE SMOOTH"
);
}
);
userData = {
com.fontlab.hintData = {
hhints = (
{
position = -198;
width = 170;
},
{
position = 0;
width = 21;
},
{
position = 625;
width = 56;
}
);
vhints = (
{
position = 152;
width = 77;
}
);
};
};
width = 522;
}
);
unicode = 0162;
},
{
glyphname = a;
lastChange = "2019-10-15 23:54:51 +0000";
layers = (
{
layerId = master01;
paths = (
{
closed = 1;
nodes = (
"373 0 OFFCURVE",
"387 14 OFFCURVE",
"391 30 CURVE SMOOTH",
"485 473 LINE",
"472 481 OFFCURVE",
"417 514 OFFCURVE",
"343 514 CURVE SMOOTH",
"169 514 OFFCURVE",
"64 328 OFFCURVE",
"42 224 CURVE SMOOTH",
"37.698 203.447 OFFCURVE",
"35.63 183.961 OFFCURVE",
"35.63 165.723 CURVE SMOOTH",
"35.63 69.486 OFFCURVE",
"93.207 8 OFFCURVE",
"184 8 CURVE SMOOTH",
"239 8 OFFCURVE",
"300 33 OFFCURVE",
"340 55 CURVE",
"335 32 LINE SMOOTH",
"334.517 29.265 OFFCURVE",
"334.268 26.581 OFFCURVE",
"334.268 24.003 CURVE SMOOTH",
"334.268 10.561 OFFCURVE",
"341.057 0 OFFCURVE",
"357 0 CURVE SMOOTH"
);
},
{
closed = 1;
nodes = (
"119.574 63 OFFCURVE",
"94.863 120.08 OFFCURVE",
"94.863 178.462 CURVE SMOOTH",
"94.863 194.601 OFFCURVE",
"96.751 210.84 OFFCURVE",
"100 226 CURVE SMOOTH",
"117 309 OFFCURVE",
"197 459 OFFCURVE",
"334 459 CURVE SMOOTH",
"368 459 OFFCURVE",
"406 446 OFFCURVE",
"424 438 CURVE",
"352 121 LINE",
"326 105 OFFCURVE",
"255 63 OFFCURVE",
"194 63 CURVE SMOOTH"
);
}
);
userData = {
com.fontlab.hintData = {
hhints = (
{
position = 0;
width = 21;
},
{
position = 8;
width = 55;
},
{
position = 459;
width = 55;
}
);
vhints = (
{
position = 36;
width = 59;
},
{
position = 334;
width = 57;
}
);
};
};
width = 505;
}
);
unicode = 0061;
},
{
glyphname = aacute;
lastChange = "2019-10-15 23:54:51 +0000";
layers = (
{
layerId = master01;
paths = (
{
closed = 1;
nodes = (
"370 -10 OFFCURVE",
"385 4 OFFCURVE",
"389 20 CURVE SMOOTH",
"483 463 LINE",
"470 471 OFFCURVE",
"415 504 OFFCURVE",
"341 504 CURVE SMOOTH",
"167 504 OFFCURVE",
"62 318 OFFCURVE",
"40 214 CURVE SMOOTH",
"35.698 193.447 OFFCURVE",
"33.63 173.961 OFFCURVE",
"33.63 155.723 CURVE SMOOTH",
"33.63 59.486 OFFCURVE",
"91.207 -2 OFFCURVE",
"182 -2 CURVE SMOOTH",
"237 -2 OFFCURVE",
"297 23 OFFCURVE",
"338 45 CURVE",
"333 22 LINE SMOOTH",
"332.472 19.01 OFFCURVE",
"332.192 16.081 OFFCURVE",
"332.192 13.286 CURVE SMOOTH",
"332.192 0.187 OFFCURVE",
"338.342 -10 OFFCURVE",
"354 -10 CURVE SMOOTH"
);
},
{
closed = 1;
nodes = (
"116.832 53 OFFCURVE",
"92.375 111.224 OFFCURVE",
"92.375 170.21 CURVE SMOOTH",
"92.375 185.772 OFFCURVE",
"94.077 201.387 OFFCURVE",
"97 216 CURVE",
"115 299 OFFCURVE",
"195 449 OFFCURVE",
"332 449 CURVE SMOOTH",
"366 449 OFFCURVE",
"404 436 OFFCURVE",
"421 428 CURVE",
"350 111 LINE",
"324 95 OFFCURVE",
"253 53 OFFCURVE",
"192 53 CURVE SMOOTH"
);
},
{
closed = 1;
nodes = (
"327 563 OFFCURVE",
"336 567 OFFCURVE",
"344 572 CURVE SMOOTH",
"502 666 LINE SMOOTH",
"510 671 OFFCURVE",
"515 680 OFFCURVE",
"517 689 CURVE SMOOTH",
"517.551 691.755 OFFCURVE",
"517.817 694.435 OFFCURVE",
"517.817 697.007 CURVE SMOOTH",
"517.817 713.105 OFFCURVE",
"507.383 725 OFFCURVE",
"491 725 CURVE SMOOTH",
"480 725 OFFCURVE",
"468 717 OFFCURVE",
"458 710 CURVE SMOOTH",
"311 607 LINE SMOOTH",
"305 603 OFFCURVE",
"302 596 OFFCURVE",
"301 590 CURVE SMOOTH",
"300.61 588.051 OFFCURVE",
"300.423 586.153 OFFCURVE",
"300.423 584.325 CURVE SMOOTH",
"300.423 572.084 OFFCURVE",
"308.819 563 OFFCURVE",
"321 563 CURVE SMOOTH"
);
}
);
userData = {
com.fontlab.hintData = {
hhints = (
{
position = -2;
width = 55;
},
{
position = 449;
width = 55;
}
);
vhints = (
{
position = 34;
width = 59;
},
{
position = 332;
width = 57;
}
);
};
};
width = 505;
}
);
unicode = 00E1;
},
{
glyphname = abreve;
lastChange = "2019-10-15 23:54:51 +0000";
layers = (
{
layerId = master01;
paths = (
{
closed = 1;
nodes = (
"370 -10 OFFCURVE",
"385 4 OFFCURVE",
"389 20 CURVE SMOOTH",
"483 463 LINE",
"470 471 OFFCURVE",
"415 504 OFFCURVE",
"341 504 CURVE SMOOTH",
"167 504 OFFCURVE",
"62 318 OFFCURVE",
"40 214 CURVE SMOOTH",
"35.698 193.447 OFFCURVE",
"33.63 173.961 OFFCURVE",
"33.63 155.723 CURVE SMOOTH",
"33.63 59.486 OFFCURVE",
"91.207 -2 OFFCURVE",
"182 -2 CURVE SMOOTH",
"237 -2 OFFCURVE",
"297 23 OFFCURVE",
"338 45 CURVE",
"333 22 LINE SMOOTH",
"332.472 19.01 OFFCURVE",
"332.192 16.081 OFFCURVE",
"332.192 13.286 CURVE SMOOTH",
"332.192 0.187 OFFCURVE",
"338.342 -10 OFFCURVE",
"354 -10 CURVE SMOOTH"
);
},
{
closed = 1;
nodes = (
"116.832 53 OFFCURVE",
"92.375 111.224 OFFCURVE",
"92.375 170.21 CURVE SMOOTH",
"92.375 185.772 OFFCURVE",
"94.077 201.387 OFFCURVE",
"97 216 CURVE",
"115 299 OFFCURVE",
"195 449 OFFCURVE",
"332 449 CURVE SMOOTH",
"366 449 OFFCURVE",
"404 436 OFFCURVE",
"421 428 CURVE",
"350 111 LINE",
"324 95 OFFCURVE",
"253 53 OFFCURVE",
"192 53 CURVE SMOOTH"
);
},
{
closed = 1;
nodes = (
"443 559 OFFCURVE",
"512 633 OFFCURVE",
"522 678 CURVE SMOOTH",
"524 687 OFFCURVE",
"517 695 OFFCURVE",
"508 695 CURVE SMOOTH",
"495 695 OFFCURVE",
"488 686 OFFCURVE",
"481 674 CURVE SMOOTH",
"450 625 OFFCURVE",
"411 605 OFFCURVE",
"360 605 CURVE SMOOTH",
"323 605 OFFCURVE",
"269 622 OFFCURVE",
"254 672 CURVE SMOOTH",
"252 679 OFFCURVE",
"246 690 OFFCURVE",
"235 690 CURVE SMOOTH",
"220 690 OFFCURVE",
"216 679 OFFCURVE",
"214 671 CURVE SMOOTH",
"213.701 669.431 OFFCURVE",
"213.536 667.471 OFFCURVE",
"213.536 665.187 CURVE SMOOTH",
"213.536 636.908 OFFCURVE",
"238.818 559 OFFCURVE",
"348 559 CURVE SMOOTH"
);
}
);
userData = {
com.fontlab.hintData = {
hhints = (
{
position = -2;
width = 55;
},
{
position = 449;
width = 55;
},
{
position = 559;
width = 46;
},
{
position = 670;
width = 20;
}
);
vhints = (
{
position = 34;
width = 59;
},
{
position = 214;
width = 40;
},
{
position = 332;
width = 57;
},
{
position = 481;
width = 41;
}
);
};
};
width = 505;
}
);
unicode = 0103;
},
{
glyphname = acircumflex;
lastChange = "2019-10-15 23:54:51 +0000";
layers = (
{
layerId = master01;
paths = (
{
closed = 1;
nodes = (
"370 -10 OFFCURVE",
"385 4 OFFCURVE",
"389 20 CURVE SMOOTH",
"483 463 LINE",
"470 471 OFFCURVE",
"415 504 OFFCURVE",
"341 504 CURVE SMOOTH",
"167 504 OFFCURVE",
"62 318 OFFCURVE",
"40 214 CURVE SMOOTH",
"35.698 193.447 OFFCURVE",
"33.63 173.961 OFFCURVE",
"33.63 155.723 CURVE SMOOTH",
"33.63 59.486 OFFCURVE",
"91.207 -2 OFFCURVE",
"182 -2 CURVE SMOOTH",
"237 -2 OFFCURVE",
"297 23 OFFCURVE",
"338 45 CURVE",
"333 22 LINE SMOOTH",
"332.472 19.01 OFFCURVE",
"332.192 16.081 OFFCURVE",
"332.192 13.286 CURVE SMOOTH",
"332.192 0.187 OFFCURVE",
"338.342 -10 OFFCURVE",
"354 -10 CURVE SMOOTH"
);
},
{
closed = 1;
nodes = (
"116.832 53 OFFCURVE",
"92.375 111.224 OFFCURVE",
"92.375 170.21 CURVE SMOOTH",
"92.375 185.772 OFFCURVE",
"94.077 201.387 OFFCURVE",
"97 216 CURVE",
"115 299 OFFCURVE",
"195 449 OFFCURVE",
"332 449 CURVE SMOOTH",
"366 449 OFFCURVE",
"404 436 OFFCURVE",
"421 428 CURVE",
"350 111 LINE",
"324 95 OFFCURVE",
"253 53 OFFCURVE",
"192 53 CURVE SMOOTH"
);
},
{
closed = 1;
nodes = (
"246 574 OFFCURVE",
"252 575 OFFCURVE",
"258 579 CURVE SMOOTH",
"391 668 LINE",
"469 581 LINE SMOOTH",
"473 576 OFFCURVE",
"480 574 OFFCURVE",
"487 574 CURVE SMOOTH",
"501 574 OFFCURVE",
"515 586 OFFCURVE",
"518 600 CURVE SMOOTH",
"520 608 OFFCURVE",
"518 615 OFFCURVE",
"513 620 CURVE",
"427 730 LINE",
"422 735 OFFCURVE",
"415 738 OFFCURVE",
"408 738 CURVE SMOOTH",
"402 738 OFFCURVE",
"395 736 OFFCURVE",
"388 731 CURVE SMOOTH",
"233 621 LINE SMOOTH",
"225 616 OFFCURVE",
"221 608 OFFCURVE",
"219 600 CURVE SMOOTH",
"218.639 598.194 OFFCURVE",
"218.466 596.446 OFFCURVE",
"218.466 594.768 CURVE SMOOTH",
"218.466 582.511 OFFCURVE",
"227.686 574 OFFCURVE",
"240 574 CURVE SMOOTH"
);
}
);
userData = {
com.fontlab.hintData = {
hhints = (
{
position = -2;
width = 55;
},
{
position = 449;
width = 55;
}
);
vhints = (
{
position = 34;
width = 59;
},
{
position = 332;
width = 57;
}
);
};
};
width = 505;
}
);
unicode = 00E2;
},
{
glyphname = adieresis;
lastChange = "2019-10-15 23:54:51 +0000";
layers = (
{
layerId = master01;
paths = (
{
closed = 1;
nodes = (
"370 -10 OFFCURVE",
"385 4 OFFCURVE",
"389 20 CURVE SMOOTH",
"483 463 LINE",
"470 471 OFFCURVE",
"415 504 OFFCURVE",
"341 504 CURVE SMOOTH",
"167 504 OFFCURVE",
"62 318 OFFCURVE",
"40 214 CURVE SMOOTH",
"35.698 193.447 OFFCURVE",
"33.63 173.961 OFFCURVE",
"33.63 155.723 CURVE SMOOTH",
"33.63 59.486 OFFCURVE",
"91.207 -2 OFFCURVE",
"182 -2 CURVE SMOOTH",
"237 -2 OFFCURVE",
"297 23 OFFCURVE",
"338 45 CURVE",
"333 22 LINE SMOOTH",
"332.472 19.01 OFFCURVE",
"332.192 16.081 OFFCURVE",
"332.192 13.286 CURVE SMOOTH",
"332.192 0.187 OFFCURVE",
"338.342 -10 OFFCURVE",
"354 -10 CURVE SMOOTH"
);
},
{
closed = 1;
nodes = (
"116.832 53 OFFCURVE",
"92.375 111.224 OFFCURVE",
"92.375 170.21 CURVE SMOOTH",
"92.375 185.772 OFFCURVE",
"94.077 201.387 OFFCURVE",
"97 216 CURVE",
"115 299 OFFCURVE",
"195 449 OFFCURVE",
"332 449 CURVE SMOOTH",
"366 449 OFFCURVE",
"404 436 OFFCURVE",
"421 428 CURVE",
"350 111 LINE",
"324 95 OFFCURVE",
"253 53 OFFCURVE",
"192 53 CURVE SMOOTH"
);
},
{
closed = 1;
nodes = (
"298 576 OFFCURVE",
"324 596 OFFCURVE",
"329 620 CURVE SMOOTH",
"329.569 622.503 OFFCURVE",
"329.84 624.941 OFFCURVE",
"329.84 627.296 CURVE SMOOTH",
"329.84 645.648 OFFCURVE",
"313.384 659 OFFCURVE",
"293 659 CURVE SMOOTH",
"265 659 OFFCURVE",
"237 638 OFFCURVE",
"232 615 CURVE SMOOTH",
"231.41 612.284 OFFCURVE",
"231.126 609.666 OFFCURVE",
"231.126 607.161 CURVE SMOOTH",
"231.126 588.445 OFFCURVE",
"246.952 576 OFFCURVE",
"269 576 CURVE SMOOTH"
);
},
{
closed = 1;
nodes = (
"457 576 OFFCURVE",
"483 596 OFFCURVE",
"488 620 CURVE SMOOTH",
"488.569 622.503 OFFCURVE",
"488.84 624.941 OFFCURVE",
"488.84 627.296 CURVE SMOOTH",
"488.84 645.648 OFFCURVE",
"472.384 659 OFFCURVE",
"452 659 CURVE SMOOTH",
"424 659 OFFCURVE",
"396 638 OFFCURVE",
"391 615 CURVE SMOOTH",
"390.41 612.284 OFFCURVE",
"390.126 609.666 OFFCURVE",
"390.126 607.161 CURVE SMOOTH",
"390.126 588.445 OFFCURVE",
"405.952 576 OFFCURVE",
"428 576 CURVE SMOOTH"
);
}
);
userData = {
com.fontlab.hintData = {
hhints = (
{
position = -2;
width = 55;
},
{
position = 449;
width = 55;
},
{
position = 576;
width = 83;
}
);
vhints = (
{
position = 34;
width = 59;
},
{
position = 231;
width = 99;
},
{
position = 332;
width = 57;
},
{
position = 390;
width = 99;
}
);
};
};
width = 505;
}
);
unicode = 00E4;
},
{
glyphname = agrave;
lastChange = "2019-10-15 23:54:51 +0000";
layers = (
{
layerId = master01;
paths = (
{
closed = 1;
nodes = (
"370 -10 OFFCURVE",
"385 4 OFFCURVE",
"389 20 CURVE SMOOTH",
"483 463 LINE",
"470 471 OFFCURVE",
"415 504 OFFCURVE",
"341 504 CURVE SMOOTH",
"167 504 OFFCURVE",
"62 318 OFFCURVE",
"40 214 CURVE SMOOTH",
"35.698 193.447 OFFCURVE",
"33.63 173.961 OFFCURVE",
"33.63 155.723 CURVE SMOOTH",
"33.63 59.486 OFFCURVE",
"91.207 -2 OFFCURVE",
"182 -2 CURVE SMOOTH",
"237 -2 OFFCURVE",
"297 23 OFFCURVE",
"338 45 CURVE",
"333 22 LINE SMOOTH",
"332.472 19.01 OFFCURVE",
"332.192 16.081 OFFCURVE",
"332.192 13.286 CURVE SMOOTH",
"332.192 0.187 OFFCURVE",
"338.342 -10 OFFCURVE",
"354 -10 CURVE SMOOTH"
);
},
{
closed = 1;
nodes = (
"116.832 53 OFFCURVE",
"92.375 111.224 OFFCURVE",
"92.375 170.21 CURVE SMOOTH",
"92.375 185.772 OFFCURVE",
"94.077 201.387 OFFCURVE",
"97 216 CURVE",
"115 299 OFFCURVE",
"195 449 OFFCURVE",
"332 449 CURVE SMOOTH",
"366 449 OFFCURVE",
"404 436 OFFCURVE",
"421 428 CURVE",
"350 111 LINE",
"324 95 OFFCURVE",
"253 53 OFFCURVE",
"192 53 CURVE SMOOTH"
);
},
{
closed = 1;
nodes = (
"424 558 OFFCURVE",
"440 569 OFFCURVE",
"444 584 CURVE SMOOTH",
"445 590 OFFCURVE",
"444 595 OFFCURVE",
"440 602 CURVE SMOOTH",
"363 732 LINE SMOOTH",
"358 740 OFFCURVE",
"348 747 OFFCURVE",
"337 747 CURVE SMOOTH",
"319 747 OFFCURVE",
"299 731 OFFCURVE",
"295 713 CURVE SMOOTH",
"293 703 OFFCURVE",
"295 695 OFFCURVE",
"301 688 CURVE SMOOTH",
"393 567 LINE SMOOTH",
"397 562 OFFCURVE",
"402 558 OFFCURVE",
"410 558 CURVE SMOOTH"
);
}
);
userData = {
com.fontlab.hintData = {
hhints = (
{
position = -2;
width = 55;
},
{
position = 449;
width = 55;
}
);
vhints = (
{
position = 34;
width = 59;
},
{
position = 332;
width = 57;
}
);
};
};
width = 505;
}
);
unicode = 00E0;
},
{
glyphname = aogonek;
lastChange = "2019-10-15 23:54:51 +0000";
layers = (
{
layerId = master01;
paths = (
{
closed = 1;
nodes = (
"338 -201 OFFCURVE",
"410 -181 OFFCURVE",
"416 -152 CURVE SMOOTH",
"419 -141 OFFCURVE",
"410 -131 OFFCURVE",
"400 -131 CURVE SMOOTH",
"395 -131 OFFCURVE",
"390 -132 OFFCURVE",
"386 -135 CURVE SMOOTH",
"362 -151 OFFCURVE",
"339 -158 OFFCURVE",
"319 -158 CURVE SMOOTH",
"289.26 -158 OFFCURVE",
"268.701 -140.402 OFFCURVE",
"268.701 -113.238 CURVE SMOOTH",
"268.701 -109.347 OFFCURVE",
"269.123 -105.26 OFFCURVE",
"270 -101 CURVE SMOOTH",
"279 -57 OFFCURVE",
"322 -30 OFFCURVE",
"352 -11 CURVE SMOOTH",
"370 0 OFFCURVE",
"387 12 OFFCURVE",
"391 30 CURVE SMOOTH",
"485 473 LINE",
"472 481 OFFCURVE",
"417 514 OFFCURVE",
"343 514 CURVE SMOOTH",
"169 514 OFFCURVE",
"64 328 OFFCURVE",
"42 224 CURVE SMOOTH",
"37.698 203.447 OFFCURVE",
"35.63 183.961 OFFCURVE",
"35.63 165.723 CURVE SMOOTH",
"35.63 69.486 OFFCURVE",
"93.207 8 OFFCURVE",
"184 8 CURVE SMOOTH",
"239 8 OFFCURVE",
"300 33 OFFCURVE",
"340 55 CURVE",
"335 32 LINE SMOOTH",
"335 29 OFFCURVE",
"334 26 OFFCURVE",
"334 23 CURVE",
"287 -5 OFFCURVE",
"240 -47 OFFCURVE",
"228 -100 CURVE SMOOTH",
"226.417 -107.651 OFFCURVE",
"225.652 -115.024 OFFCURVE",
"225.652 -122.061 CURVE SMOOTH",
"225.652 -168.368 OFFCURVE",
"258.783 -200.132 OFFCURVE",
"310 -201 CURVE SMOOTH"
);
},
{
closed = 1;
nodes = (
"119.574 63 OFFCURVE",
"94.863 120.08 OFFCURVE",
"94.863 178.462 CURVE SMOOTH",
"94.863 194.601 OFFCURVE",
"96.751 210.84 OFFCURVE",
"100 226 CURVE SMOOTH",
"117 309 OFFCURVE",
"197 459 OFFCURVE",
"334 459 CURVE SMOOTH",
"368 459 OFFCURVE",
"406 446 OFFCURVE",
"424 438 CURVE",
"352 121 LINE",
"326 105 OFFCURVE",
"255 63 OFFCURVE",
"194 63 CURVE SMOOTH"
);
}
);
userData = {
com.fontlab.hintData = {
hhints = (
{
position = -201;
width = 43;
},
{
position = 8;
width = 55;
},
{
position = 459;
width = 55;
}
);
vhints = (
{
position = 36;
width = 59;
},
{
position = 226;
width = 43;
}
);
};
};
width = 505;
}
);
unicode = 0105;
},
{
glyphname = aring;
lastChange = "2019-10-15 23:54:51 +0000";
layers = (
{
layerId = master01;
paths = (
{
closed = 1;
nodes = (
"370 -10 OFFCURVE",
"385 4 OFFCURVE",
"389 20 CURVE SMOOTH",
"483 463 LINE",
"470 471 OFFCURVE",
"415 504 OFFCURVE",
"341 504 CURVE SMOOTH",
"167 504 OFFCURVE",
"62 318 OFFCURVE",
"40 214 CURVE SMOOTH",
"35.698 193.447 OFFCURVE",
"33.63 173.961 OFFCURVE",
"33.63 155.723 CURVE SMOOTH",
"33.63 59.486 OFFCURVE",
"91.207 -2 OFFCURVE",
"182 -2 CURVE SMOOTH",
"237 -2 OFFCURVE",
"297 23 OFFCURVE",
"338 45 CURVE",
"333 22 LINE SMOOTH",
"332.472 19.01 OFFCURVE",
"332.192 16.081 OFFCURVE",
"332.192 13.286 CURVE SMOOTH",
"332.192 0.187 OFFCURVE",
"338.342 -10 OFFCURVE",
"354 -10 CURVE SMOOTH"
);
},
{
closed = 1;
nodes = (
"116.832 53 OFFCURVE",
"92.375 111.224 OFFCURVE",
"92.375 170.21 CURVE SMOOTH",
"92.375 185.772 OFFCURVE",
"94.077 201.387 OFFCURVE",
"97 216 CURVE",
"115 299 OFFCURVE",
"195 449 OFFCURVE",
"332 449 CURVE SMOOTH",
"366 449 OFFCURVE",
"404 436 OFFCURVE",
"421 428 CURVE",
"350 111 LINE",
"324 95 OFFCURVE",
"253 53 OFFCURVE",
"192 53 CURVE SMOOTH"
);
},
{
closed = 1;
nodes = (
"423 563 OFFCURVE",
"501 610 OFFCURVE",
"516 679 CURVE SMOOTH",
"517.363 685.586 OFFCURVE",
"518.016 692.004 OFFCURVE",
"518.016 698.207 CURVE SMOOTH",
"518.016 746.639 OFFCURVE",
"478.187 782 OFFCURVE",
"425 782 CURVE SMOOTH",
"357 782 OFFCURVE",
"278 733 OFFCURVE",
"264 665 CURVE SMOOTH",
"262.616 658.428 OFFCURVE",
"261.951 652.016 OFFCURVE",
"261.951 645.814 CURVE SMOOTH",
"261.951 598.222 OFFCURVE",
"301.148 563 OFFCURVE",
"356 563 CURVE SMOOTH"
);
},
{
closed = 1;
nodes = (
"333.877 609 OFFCURVE",
"304.742 625.783 OFFCURVE",
"304.742 654.348 CURVE SMOOTH",
"304.742 657.736 OFFCURVE",
"305.152 661.289 OFFCURVE",
"306 665 CURVE SMOOTH",
"312 695 OFFCURVE",
"357 735 OFFCURVE",
"411 735 CURVE SMOOTH",
"449.316 735 OFFCURVE",
"474.134 711.974 OFFCURVE",
"474.134 686.44 CURVE SMOOTH",
"474.134 683.318 OFFCURVE",
"473.763 680.159 OFFCURVE",
"473 677 CURVE SMOOTH",
"464 635 OFFCURVE",
"410 609 OFFCURVE",
"375 609 CURVE SMOOTH"
);
}
);
userData = {
com.fontlab.hintData = {
hhints = (
{
position = -2;
width = 55;
},
{
position = 449;
width = 55;
},
{
position = 563;
width = 46;
},
{
position = 735;
width = 47;
}
);
vhints = (
{
position = 34;
width = 59;
},
{
position = 262;
width = 43;
},
{
position = 332;
width = 57;
},
{
position = 474;
width = 44;
}
);
};
};
width = 505;
}
);
unicode = 00E5;
},
{
glyphname = atilde;
lastChange = "2019-10-15 23:54:51 +0000";
layers = (
{
layerId = master01;
paths = (
{
closed = 1;
nodes = (
"370 -10 OFFCURVE",
"385 4 OFFCURVE",
"389 20 CURVE SMOOTH",
"483 463 LINE",
"470 471 OFFCURVE",
"415 504 OFFCURVE",
"341 504 CURVE SMOOTH",
"167 504 OFFCURVE",
"62 318 OFFCURVE",
"40 214 CURVE SMOOTH",
"35.698 193.447 OFFCURVE",
"33.63 173.961 OFFCURVE",
"33.63 155.723 CURVE SMOOTH",
"33.63 59.486 OFFCURVE",
"91.207 -2 OFFCURVE",
"182 -2 CURVE SMOOTH",
"237 -2 OFFCURVE",
"297 23 OFFCURVE",
"338 45 CURVE",
"333 22 LINE SMOOTH",
"332.472 19.01 OFFCURVE",
"332.192 16.081 OFFCURVE",
"332.192 13.286 CURVE SMOOTH",
"332.192 0.187 OFFCURVE",
"338.342 -10 OFFCURVE",
"354 -10 CURVE SMOOTH"
);
},
{
closed = 1;
nodes = (
"116.832 53 OFFCURVE",
"92.375 111.224 OFFCURVE",
"92.375 170.21 CURVE SMOOTH",
"92.375 185.772 OFFCURVE",
"94.077 201.387 OFFCURVE",
"97 216 CURVE",
"115 299 OFFCURVE",
"195 449 OFFCURVE",
"332 449 CURVE SMOOTH",
"366 449 OFFCURVE",
"404 436 OFFCURVE",
"421 428 CURVE",
"350 111 LINE",
"324 95 OFFCURVE",
"253 53 OFFCURVE",
"192 53 CURVE SMOOTH"
);
},
{
closed = 1;
nodes = (
"460 556 OFFCURVE",
"505 624 OFFCURVE",
"523 655 CURVE SMOOTH",
"526.509 662.019 OFFCURVE",
"529.277 664.864 OFFCURVE",
"529.277 672.578 CURVE SMOOTH",
"529.277 683.956 OFFCURVE",
"520.694 693 OFFCURVE",
"508 693 CURVE SMOOTH",
"498 693 OFFCURVE",
"486 686 OFFCURVE",
"480 676 CURVE SMOOTH",
"463 647 OFFCURVE",
"434 598 OFFCURVE",
"404 598 CURVE SMOOTH",
"387 598 OFFCURVE",
"380 620 OFFCURVE",
"367 646 CURVE SMOOTH",
"353 673 OFFCURVE",
"336 706 OFFCURVE",
"291 706 CURVE SMOOTH",
"254 706 OFFCURVE",
"218 685 OFFCURVE",
"188 647 CURVE SMOOTH",
"180 636 OFFCURVE",
"166 619 OFFCURVE",
"163 604 CURVE SMOOTH",
"162.639 602.314 OFFCURVE",
"162.466 600.672 OFFCURVE",
"162.466 599.088 CURVE SMOOTH",
"162.466 587.511 OFFCURVE",
"171.686 579 OFFCURVE",
"184 579 CURVE SMOOTH",
"196 579 OFFCURVE",
"206 585 OFFCURVE",
"213 598 CURVE SMOOTH",
"239 647 OFFCURVE",
"269 664 OFFCURVE",
"282 664 CURVE SMOOTH",
"299 664 OFFCURVE",
"305 642 OFFCURVE",
"318 616 CURVE SMOOTH",
"332 588 OFFCURVE",
"350 556 OFFCURVE",
"395 556 CURVE SMOOTH"
);
}
);
userData = {
com.fontlab.hintData = {
hhints = (
{
position = -2;
width = 55;
},
{
position = 449;
width = 55;
},
{
position = 556;
width = 42;
},
{
position = 664;
width = 42;
}
);
vhints = (
{
position = 34;
width = 59;
},
{
position = 332;
width = 57;
}
);
};
};
width = 505;
}
);
unicode = 00E3;
},
{
glyphname = ae;
lastChange = "2019-10-15 23:54:51 +0000";
layers = (
{
layerId = master01;
paths = (
{
closed = 1;
nodes = (
"359 0 OFFCURVE",
"374 14 OFFCURVE",
"377 27 CURVE SMOOTH",
"389 82 LINE",
"422 27 OFFCURVE",
"480 0 OFFCURVE",
"557 0 CURVE SMOOTH",
"618 0 OFFCURVE",
"690 32 OFFCURVE",
"734 72 CURVE SMOOTH",
"739 76 OFFCURVE",
"743 83 OFFCURVE",
"745 90 CURVE SMOOTH",
"745.388 91.938 OFFCURVE",
"745.575 93.808 OFFCURVE",
"745.575 95.597 CURVE SMOOTH",
"745.575 107.658 OFFCURVE",
"737.062 116 OFFCURVE",
"724 116 CURVE SMOOTH",
"717 116 OFFCURVE",
"710 113 OFFCURVE",
"704 108 CURVE SMOOTH",
"671 77 OFFCURVE",
"618 52 OFFCURVE",
"575 52 CURVE SMOOTH",
"494 52 OFFCURVE",
"439 78 OFFCURVE",
"417 147 CURVE",
"764 325 LINE SMOOTH",
"781 334 OFFCURVE",
"789 343 OFFCURVE",
"792 354 CURVE SMOOTH",
"792.818 357.909 OFFCURVE",
"793.24 362.174 OFFCURVE",
"793.24 366.696 CURVE SMOOTH",
"793.24 411.926 OFFCURVE",
"751.091 483 OFFCURVE",
"642 483 CURVE SMOOTH",
"582 483 OFFCURVE",
"511 455 OFFCURVE",
"455 398 CURVE",
"468 458 LINE",
"454 470 OFFCURVE",
"390 498 OFFCURVE",
"325 498 CURVE SMOOTH",
"206 498 OFFCURVE",
"75 380 OFFCURVE",
"40 214 CURVE SMOOTH",
"35.726 193.737 OFFCURVE",
"33.682 174.728 OFFCURVE",
"33.682 157.082 CURVE SMOOTH",
"33.682 63.26 OFFCURVE",
"91.463 8 OFFCURVE",
"179 8 CURVE SMOOTH",
"231 8 OFFCURVE",
"289 32 OFFCURVE",
"328 53 CURVE",
"322 27 LINE SMOOTH",
"321.617 25.34 OFFCURVE",
"321.429 23.663 OFFCURVE",
"321.429 22.001 CURVE SMOOTH",
"321.429 10.652 OFFCURVE",
"330.171 0 OFFCURVE",
"345 0 CURVE SMOOTH"
);
},
{
closed = 1;
nodes = (
"122.067 61 OFFCURVE",
"89.571 106.845 OFFCURVE",
"89.571 169.913 CURVE SMOOTH",
"89.571 184.777 OFFCURVE",
"91.376 200.597 OFFCURVE",
"95 217 CURVE SMOOTH",
"112 298 OFFCURVE",
"189 445 OFFCURVE",
"322 445 CURVE SMOOTH",
"356 445 OFFCURVE",
"394 432 OFFCURVE",
"410 424 CURVE",
"339 117 LINE",
"308 95 OFFCURVE",
"237 61 OFFCURVE",
"186 61 CURVE SMOOTH"
);
},
{
closed = 1;
nodes = (
"411 209 OFFCURVE",
"413 218 OFFCURVE",
"415 229 CURVE SMOOTH",
"440 345 OFFCURVE",
"534 430 OFFCURVE",
"631 430 CURVE SMOOTH",
"696 430 OFFCURVE",
"725 411 OFFCURVE",
"739 361 CURVE",
"411 198 LINE"
);
}
);
userData = {
com.fontlab.hintData = {
hhints = (
{
position = 0;
width = 52;
},
{
position = 8;
width = 53;
},
{
position = 430;
width = 53;
},
{
position = 445;
width = 53;
}
);
vhints = (
{
position = 34;
width = 56;
}
);
};
};
width = 832;
}
);
unicode = 00E6;
},
